# SSTK version 0.8.0
# 5
mtllib original-5.mtl
o R2_10_1/R2_10/mesh4/mesh4-geometry#mesh4-geometry
v -0.689382 0.564806 -0.457543
v 0.658936 0.456940 -0.457543
v -0.689382 0.456940 -0.457543
v 0.658936 0.564806 -0.457543
v -0.689382 0.456940 -0.430577
v 0.658936 0.564806 -0.430577
v 0.658936 0.456940 -0.430577
v -0.689382 0.564806 -0.430577
v -0.689382 0.519862 -0.430577
v 0.658936 0.519862 -0.430577
vt -0.188497 -0.910089
vt -0.250997 -0.316339
vt -0.250997 -0.910089
vt -0.188497 -0.316339
vt -0.266622 -0.910089
vt -0.172872 -0.316339
vt -0.266622 -0.316339
vt -0.172872 -0.910089
vt -0.214538 -3.170505
vt -0.188497 -3.764255
vt -0.188497 -3.170505
vt -0.214538 -3.764255
vn 0 0 -1
vn 0 -1 0
vn 0 1 0
vn 0 0 1
usemtl material_0_0
f 1/1/1 2/2/1 3/3/1
f 2/2/1 1/1/1 4/4/1
f 2/2/2 5/5/2 3/3/2
f 1/1/3 6/6/3 4/4/3
f 5/5/2 2/2/2 7/7/2
f 6/6/3 1/1/3 8/8/3
f 9/9/4 6/10/4 8/11/4
f 6/10/4 9/9/4 10/12/4
usemtl material_1_0
f 3//4 2//4 1//4
f 4//4 1//4 2//4
f 3//3 5//3 2//3
f 4//2 6//2 1//2
f 7//3 2//3 5//3
f 8//2 1//2 6//2
f 8//1 6//1 9//1
f 10//1 9//1 6//1
