# SSTK version 0.8.0
# 74
mtllib original-74.mtl
o DF_11_CR2/DF_11_CR/mesh31/mesh31-geometry#mesh31-geometry
v -0.051178 0.406401 0.420639
v -0.051745 0.435570 0.422496
v -0.051745 0.406401 0.422496
v -0.051178 0.435570 0.420639
v -0.052555 0.435570 0.424111
v -0.051178 0.406401 0.408044
v -0.052555 0.406401 0.424111
v -0.051178 0.435570 0.408044
v -0.054985 0.435570 0.426856
v -0.051664 0.406401 0.406833
v -0.054985 0.406401 0.426856
v -0.051664 0.435570 0.406833
v -0.058305 0.406401 0.428552
v -0.052069 0.406401 0.406349
v -0.058305 0.435570 0.428552
v -0.052069 0.435570 0.406349
v -0.060087 0.406401 0.428955
v -0.052555 0.435570 0.405945
v -0.060087 0.435570 0.428955
v -0.052555 0.406401 0.405945
v -0.060087 0.435570 0.431135
v -0.053851 0.435570 0.405380
v -0.060087 0.406401 0.431135
v -0.053851 0.406401 0.405380
v -0.060168 0.435570 0.431539
v -0.130632 0.435570 0.405380
v -0.060168 0.406401 0.431539
v -0.130632 0.406401 0.405380
v -0.060249 0.435570 0.431781
v -0.168032 0.406401 0.405380
v -0.060249 0.406401 0.431781
v -0.168032 0.435570 0.405380
v -0.060654 0.406401 0.432185
v -0.060654 0.435570 0.432185
v -0.060816 0.406401 0.432266
v -0.060816 0.435570 0.432266
v -0.061221 0.406401 0.432346
v -0.061221 0.435570 0.432346
v -0.123261 0.406401 0.432346
v -0.123261 0.435570 0.432346
v -0.123261 0.406401 0.430086
v -0.123261 0.435570 0.430086
v -0.125934 0.406401 0.429036
v -0.125934 0.435570 0.429036
v -0.127149 0.406401 0.428148
v -0.127149 0.435570 0.428148
v -0.128931 0.406401 0.425887
v -0.128931 0.435570 0.425887
v -0.129903 0.406401 0.423062
v -0.129903 0.435570 0.423062
v -0.129984 0.406401 0.418479
v -0.129984 0.435570 0.418479
v -0.134357 0.406401 0.418782
v -0.134357 0.435570 0.418782
v -0.149098 0.406401 0.424111
v -0.149098 0.435570 0.424111
v -0.156225 0.406401 0.424757
v -0.156225 0.435570 0.424757
v -0.157602 0.406401 0.425564
v -0.157602 0.435570 0.425564
v -0.158574 0.435570 0.426856
v -0.158574 0.406401 0.426856
v -0.159222 0.435570 0.428229
v -0.159222 0.406401 0.428229
v -0.159222 0.435570 0.431055
v -0.159222 0.406401 0.431055
v -0.159546 0.435570 0.431458
v -0.159546 0.406401 0.431458
v -0.160194 0.406401 0.432023
v -0.160194 0.435570 0.432023
v -0.161409 0.406401 0.432346
v -0.161409 0.435570 0.432346
v -0.168032 0.406401 0.432346
v -0.168032 0.435570 0.432346
vt 1.972014 0.054049
vt 1.971685 0.073554
vt 1.971685 0.054049
vt 1.972014 0.073554
vt 1.971216 0.073554
vt 1.971216 0.054049
vt 1.969808 0.073554
vt 1.971732 0.054049
vt 1.969808 0.054049
vt 1.971732 0.073554
vt 1.967884 0.054049
vt 1.971497 0.054049
vt 1.967884 0.073554
vt 1.971497 0.073554
vt 1.966851 0.054049
vt 1.966851 0.073554
vt 1.970465 0.073554
vt 1.970465 0.054049
vt 1.966804 0.073554
vt 1.925976 0.073554
vt 1.966804 0.054049
vt 1.925976 0.054049
vt 1.966757 0.073554
vt 1.251559 0.057272
vt 1.226846 0.078943
vt 1.251559 0.078943
vt 1.966757 0.054049
vt 1.226846 0.057272
vt 1.966523 0.054049
vt 1.966523 0.073554
vt 1.966429 0.054049
vt 1.966429 0.073554
vt 1.966194 0.054049
vt 1.966194 0.073554
vt 1.930247 0.054049
vt 1.930247 0.073554
vt 1.928698 0.054049
vt 1.928698 0.073554
vt 1.927994 0.054049
vt 1.927994 0.073554
vt 1.926962 0.054049
vt 1.926962 0.073554
vt 1.926398 0.054049
vt 1.926398 0.073554
vt 1.926351 0.054049
vt 1.926351 0.073554
vt 1.232054 0.079319
vt 1.251559 0.076784
vt 1.251559 0.079319
vt 1.232054 0.076784
vt 1.251559 0.068243
vt 1.232054 0.068243
vt 1.251559 0.064114
vt 1.232054 0.064114
vt 1.251559 0.063316
vt 1.232054 0.063316
vt 1.232054 0.062753
vt 1.251559 0.062753
vt 1.232054 0.062377
vt 1.251559 0.062377
vt 1.232054 0.062189
vt 1.251559 0.062189
vt 1.251559 0.061814
vt 1.232054 0.061814
vt 1.251559 0.06111
vt 1.232054 0.06111
vt 1.232054 0.057272
vn 0.9890442951817975 0 0.14761904405713167
vn 0.9284364785269613 0 0.37149119147088155
vn 0.8283019491720808 0 0.5602819656188585
vn 0.981853293685619 0 -0.18964205672450782
vn 0.6124569538008425 0 0.7905039403703137
vn 0.8582522250818251 0 -0.5132281345971753
vn 0.34048915992353984 0 0.9402484416230437
vn 0.7060099319039334 0 -0.7082019316925106
vn 0.2209580698390015 0 0.9752833082612574
vn 0.5245800711537834 0 -0.8513611154782038
vn 0.9951033352458922 0 0.09884003329876806
vn 1 0 0
vn 0.2041810307037248 0 -0.9789331472070831
vn 0.9662998881213224 0 0.25741897019590465
vn 0 0 -1
vn 0.8499868493037198 0 0.5268039066016266
vn 0.5835593526505672 0 0.8120704907420605
vn 0.32365415497519434 0 0.9461754530568277
vn 0.09823601432944287 0 0.9951631451619707
vn 0 0 1
vn -1 0 0
vn -0.3655251777867379 0 0.9308014527298364
vn -0.4818122586320717 0 0.8762744703754992
vn -0.6941731003798672 0 0.7198081040867788
vn -0.8778781455785449 0 0.47888407941335337
vn -0.9848188941388684 0 0.17358498134083059
vn -0.9998438734017764 0 0.017669997762660365
vn 0.06928399836957433 0 0.9975969765240494
vn 0.2066110338583859 0 0.9784231603391084
vn 0.21689001057165316 0 0.9761960475817489
vn 0.3054030558676915 0 0.9522231741911534
vn 0.665425911906931 0 0.7464639011786366
vn 0.8561436963344462 0 0.5167378167182962
vn 0.9757818419038388 0 0.21874596455878167
vn 0.9433732828148621 0 0.33173309945061247
vn 0.7214492865272483 0 0.6924672750168952
vn 0.46934022108534446 0 0.8830174159503082
vn 0.2569049159928769 0 0.9664366839781553
vn -0.9284364785269613 0 -0.37149119147088155
vn -0.9890442951817975 0 -0.14761904405713167
vn -0.8283019491720808 0 -0.5602819656188585
vn -0.981853293685619 0 0.18964205672450782
vn -0.6124569538008425 0 -0.7905039403703137
vn -0.8582522250818251 0 0.5132281345971753
vn -0.34048915992353984 0 -0.9402484416230437
vn -0.7060099319039334 0 0.7082019316925106
vn -0.2209580698390015 0 -0.9752833082612574
vn -0.5245800711537834 0 0.8513611154782038
vn -0.9951033352458922 0 -0.09884003329876806
vn -0.2041810307037248 0 0.9789331472070831
vn -0.9662998881213224 0 -0.25741897019590465
vn -0.8499868493037198 0 -0.5268039066016266
vn -0.5835593526505672 0 -0.8120704907420605
vn -0.32365415497519434 0 -0.9461754530568277
vn -0.09823601432944287 0 -0.9951631451619707
vn 0.3655251777867379 0 -0.9308014527298364
vn 0.4818122586320717 0 -0.8762744703754992
vn 0.6941731003798672 0 -0.7198081040867788
vn 0.8778781455785449 0 -0.47888407941335337
vn 0.9848188941388684 0 -0.17358498134083059
vn 0.9998438734017764 0 -0.017669997762660365
vn -0.06928399836957433 0 -0.9975969765240494
vn -0.2066110338583859 0 -0.9784231603391084
vn -0.21689001057165316 0 -0.9761960475817489
vn -0.3054030558676915 0 -0.9522231741911534
vn -0.665425911906931 0 -0.7464639011786366
vn -0.8561436963344462 0 -0.5167378167182962
vn -0.9757818419038388 0 -0.21874596455878167
vn -0.9433732828148621 0 -0.33173309945061247
vn -0.7214492865272483 0 -0.6924672750168952
vn -0.46934022108534446 0 -0.8830174159503082
vn -0.2569049159928769 0 -0.9664366839781553
usemtl material_0_0
f 1/1/1 2/2/2 3/3/2
f 2/2/2 1/1/1 4/4/1
f 5/5/3 3/3/2 2/2/2
f 6/1/4 4/4/1 1/1/1
f 3/3/2 5/5/3 7/6/3
f 4/4/1 6/1/4 8/4/4
f 9/7/5 7/6/3 5/5/3
f 10/8/6 8/4/4 6/1/4
f 7/6/3 9/7/5 11/9/5
f 8/4/4 10/8/6 12/10/6
f 9/7/5 13/11/7 11/9/5
f 14/12/8 12/10/6 10/8/6
f 13/11/7 9/7/5 15/13/7
f 12/10/6 14/12/8 16/14/8
f 15/13/7 17/15/9 13/11/7
f 14/12/8 18/5/10 16/14/8
f 17/15/9 15/13/7 19/16/9
f 18/5/10 14/12/8 20/6/10
f 21/16/11 17/15/12 19/16/12
f 20/6/10 22/17/13 18/5/10
f 17/15/12 21/16/11 23/15/11
f 22/17/13 20/6/10 24/18/13
f 25/19/14 23/15/11 21/16/11
f 24/18/13 26/20/15 22/17/13
f 23/15/11 25/19/14 27/21/14
f 26/20/15 24/18/13 28/22/15
f 29/23/16 27/21/14 25/19/14
f 30/24/15 26/25/15 28/26/15
f 27/21/14 29/23/16 31/27/16
f 26/25/15 30/24/15 32/28/15
f 29/23/16 33/29/17 31/27/16
f 33/29/17 29/23/16 34/30/17
f 34/30/17 35/31/18 33/29/17
f 35/31/18 34/30/17 36/32/18
f 36/32/18 37/33/19 35/31/18
f 37/33/19 36/32/18 38/34/19
f 38/34/19 39/35/20 37/33/19
f 39/35/20 38/34/19 40/36/20
f 40/36/21 41/35/21 39/35/21
f 41/35/21 40/36/21 42/36/21
f 42/36/22 43/37/23 41/35/22
f 43/37/23 42/36/22 44/38/23
f 44/38/23 45/39/24 43/37/23
f 45/39/24 44/38/23 46/40/24
f 46/40/24 47/41/25 45/39/24
f 47/41/25 46/40/24 48/42/25
f 48/42/25 49/43/26 47/41/25
f 49/43/26 48/42/25 50/44/26
f 50/44/26 51/45/27 49/43/26
f 51/45/27 50/44/26 52/46/27
f 52/47/28 53/48/29 51/49/28
f 53/48/29 52/47/28 54/50/29
f 54/50/29 55/51/30 53/48/29
f 55/51/30 54/50/29 56/52/30
f 56/52/30 57/53/31 55/51/30
f 57/53/31 56/52/30 58/54/31
f 58/54/31 59/55/32 57/53/31
f 59/55/32 58/54/31 60/56/32
f 61/57/33 59/55/32 60/56/32
f 59/55/32 61/57/33 62/58/33
f 63/59/34 62/58/33 61/57/33
f 62/58/33 63/59/34 64/60/34
f 65/59/35 64/60/34 63/59/34
f 64/60/34 65/59/35 66/60/35
f 67/61/36 66/60/35 65/59/35
f 66/60/35 67/61/36 68/62/36
f 67/61/36 69/63/37 68/62/36
f 69/63/37 67/61/36 70/64/37
f 70/64/37 71/65/38 69/63/37
f 71/65/38 70/64/37 72/66/38
f 72/66/20 73/24/20 71/65/20
f 73/24/20 72/66/20 74/67/20
usemtl material_1_0
f 3//39 2//39 1//40
f 4//40 1//40 2//39
f 2//39 3//39 5//41
f 1//40 4//40 6//42
f 7//41 5//41 3//39
f 8//42 6//42 4//40
f 5//41 7//41 9//43
f 6//42 8//42 10//44
f 11//43 9//43 7//41
f 12//44 10//44 8//42
f 11//43 13//45 9//43
f 10//44 12//44 14//46
f 15//45 9//43 13//45
f 16//46 14//46 12//44
f 13//45 17//47 15//45
f 16//46 18//48 14//46
f 19//47 15//45 17//47
f 20//48 14//46 18//48
f 19//21 17//21 21//49
f 18//48 22//50 20//48
f 23//49 21//49 17//21
f 24//50 20//48 22//50
f 21//49 23//49 25//51
f 22//50 26//20 24//50
f 27//51 25//51 23//49
f 28//20 24//50 26//20
f 25//51 27//51 29//52
f 28//20 26//20 30//20
f 31//52 29//52 27//51
f 32//20 30//20 26//20
f 31//52 33//53 29//52
f 34//53 29//52 33//53
f 33//53 35//54 34//53
f 36//54 34//53 35//54
f 35//54 37//55 36//54
f 38//55 36//54 37//55
f 37//55 39//15 38//55
f 40//15 38//55 39//15
f 39//12 41//12 40//12
f 42//12 40//12 41//12
f 41//56 43//57 42//56
f 44//57 42//56 43//57
f 43//57 45//58 44//57
f 46//58 44//57 45//58
f 45//58 47//59 46//58
f 48//59 46//58 47//59
f 47//59 49//60 48//59
f 50//60 48//59 49//60
f 49//60 51//61 50//60
f 52//61 50//60 51//61
f 51//62 53//63 52//62
f 54//63 52//62 53//63
f 53//63 55//64 54//63
f 56//64 54//63 55//64
f 55//64 57//65 56//64
f 58//65 56//64 57//65
f 57//65 59//66 58//65
f 60//66 58//65 59//66
f 60//66 59//66 61//67
f 62//67 61//67 59//66
f 61//67 62//67 63//68
f 64//68 63//68 62//67
f 63//68 64//68 65//69
f 66//69 65//69 64//68
f 65//69 66//69 67//70
f 68//70 67//70 66//69
f 68//70 69//71 67//70
f 70//71 67//70 69//71
f 69//71 71//72 70//71
f 72//72 70//71 71//72
f 71//15 73//15 72//15
f 74//15 72//15 73//15
