# SSTK version 0.8.0
# 6
mtllib original-6.mtl
o BK_9_1/BK_9/mesh5/mesh5-geometry#mesh5-geometry
v -0.689382 0.519862 -0.430577
v 0.658936 -0.486882 -0.430577
v -0.689382 -0.486882 -0.430577
v 0.658936 0.519862 -0.430577
v 0.658936 0.519862 -0.417094
v -0.689382 0.519862 -0.417094
v -0.689382 -0.486882 -0.417094
v 0.658936 -0.486882 -0.417094
vt -0.704297 0.592655
vt -1.298047 0.009322
vt -0.704297 0.009322
vt -1.298047 0.592655
vt 1.556119 0.600467
vt 2.149869 0.592655
vt 2.149869 0.600467
vt 1.556119 0.592655
vt 1.556119 0.009322
vt 2.149869 0.009322
vn 0 0 -1
vn 0 1 0
vn 0 0 1
vn 0 -1 0
usemtl material_0_0
f 1/1/1 2/2/1 3/3/1
f 2/2/1 1/1/1 4/4/1
f 1/5/2 5/6/2 4/7/2
f 5/6/2 1/5/2 6/8/2
f 7/9/3 5/6/3 6/8/3
f 5/6/3 7/9/3 8/10/3
usemtl material_1_0
f 3//3 2//3 1//3
f 4//3 1//3 2//3
f 4//4 5//4 1//4
f 6//4 1//4 5//4
f 6//1 5//1 7//1
f 8//1 7//1 5//1
