# SSTK version 0.8.0
# 93
mtllib original-93.mtl
o LT_11_CL1/LT_11_CL/mesh45/mesh45-geometry#mesh45-geometry
v -0.679016 0.164805 0.424087
v -0.680393 -0.347556 0.420583
v -0.679016 -0.347556 0.424087
v -0.680393 0.164805 0.420583
v -0.676576 0.164805 0.426848
v -0.680384 -0.347556 0.408004
v -0.676576 -0.347556 0.426848
v -0.680384 0.164805 0.408004
v -0.675038 0.164805 0.427858
v -0.680225 -0.347556 0.407368
v -0.675038 -0.347556 0.427858
v -0.680225 0.164805 0.407368
v -0.673340 0.164805 0.428549
v -0.679959 -0.347556 0.406784
v -0.673340 -0.347556 0.428549
v -0.679959 0.164805 0.406784
v -0.671483 0.164805 0.428921
v -0.679003 -0.347556 0.405882
v -0.671483 -0.347556 0.428921
v -0.679003 0.164805 0.405882
v -0.671485 0.164805 0.431363
v -0.678419 -0.347556 0.405564
v -0.671485 -0.347556 0.431363
v -0.678419 0.164805 0.405564
v -0.671326 0.164805 0.431734
v -0.677729 -0.347556 0.405353
v -0.671326 -0.347556 0.431734
v -0.677729 0.164805 0.405353
v -0.671220 0.164805 0.431894
v -0.601221 -0.347556 0.405353
v -0.671220 -0.347556 0.431894
v -0.601221 0.164805 0.405353
v -0.670954 0.164805 0.432159
v -0.601224 0.164805 0.409758
v -0.670954 -0.347556 0.432159
v -0.601224 -0.347556 0.409758
v -0.670742 0.164805 0.432266
v -0.550056 -0.347556 0.409758
v -0.670742 -0.347556 0.432266
v -0.550056 0.164805 0.409758
v -0.670318 0.164805 0.432319
v -0.670318 -0.347556 0.432319
v -0.608236 0.164805 0.432319
v -0.608236 -0.347556 0.432319
v -0.608235 -0.347556 0.430080
v -0.608235 0.164805 0.430080
v -0.606695 0.164805 0.429656
v -0.606695 -0.347556 0.429656
v -0.605262 0.164805 0.428914
v -0.605262 -0.347556 0.428914
v -0.602978 0.164805 0.426687
v -0.602978 -0.347556 0.426687
v -0.601978 -0.347556 0.425308
v -0.601978 0.164805 0.425308
v -0.601234 -0.347556 0.423822
v -0.601234 0.164805 0.423822
v -0.601230 -0.347556 0.418045
v -0.601230 0.164805 0.418045
v -0.582050 0.164805 0.418581
v -0.582050 -0.347556 0.418581
v -0.572606 0.164805 0.422515
v -0.572606 -0.347556 0.422515
v -0.559864 0.164805 0.424541
v -0.559864 -0.347556 0.424541
v -0.558378 0.164805 0.425073
v -0.558378 -0.347556 0.425073
v -0.557742 0.164805 0.425498
v -0.557742 -0.347556 0.425498
v -0.557211 0.164805 0.426029
v -0.557211 -0.347556 0.426029
v -0.556734 0.164805 0.426719
v -0.556734 -0.347556 0.426719
v -0.556098 0.164805 0.428152
v -0.556098 -0.347556 0.428152
v -0.556100 0.164805 0.430541
v -0.556100 -0.347556 0.430541
v -0.555517 0.164805 0.431709
v -0.555517 -0.347556 0.431709
v -0.555146 0.164805 0.431974
v -0.555146 -0.347556 0.431974
v -0.554350 0.164805 0.432346
v -0.554350 -0.347556 0.432346
v -0.550056 -0.347556 0.432346
v -0.550056 0.164805 0.432346
vt 0.000798 0.406264
vt 0 0.075523
vt 0.000798 0.075523
vt 0 0.406264
vt 0.002212 0.406264
vt 0.000005 0.075523
vt 0.002212 0.075523
vt 0.000005 0.406264
vt 0.003103 0.406264
vt 0.000098 0.075523
vt 0.003103 0.075523
vt 0.000098 0.406264
vt 0.004087 0.406264
vt 0.000252 0.075523
vt 0.004087 0.075523
vt 0.000252 0.406264
vt 0.005163 0.406264
vt 0.000805 0.075523
vt 0.005163 0.075523
vt 0.000805 0.406264
vt 0.005162 0.406264
vt 0.001144 0.075523
vt 0.005162 0.075523
vt 0.001144 0.406264
vt 0.005254 0.406264
vt 0.001544 0.075523
vt 0.005254 0.075523
vt 0.001544 0.406264
vt 0.005316 0.406264
vt 0.045876 0.075523
vt 0.005316 0.075523
vt 0.045876 0.406264
vt 0.005469 0.406264
vt 0.045874 0.406264
vt 0.005469 0.075523
vt 0.045874 0.075523
vt 0.005592 0.406264
vt 0.075523 0.075523
vt 0.005592 0.075523
vt 0.075523 0.406264
vt 0.005838 0.406264
vt 0.005838 0.075523
vt 0.041811 0.406264
vt 0.041811 0.075523
vt 0.041812 0.075523
vt 0.041812 0.406264
vt 0.042704 0.406264
vt 0.042704 0.075523
vt 0.043535 0.406264
vt 0.043535 0.075523
vt 0.044858 0.406264
vt 0.044858 0.075523
vt 0.045437 0.075523
vt 0.045437 0.406264
vt 0.045869 0.075523
vt 0.045869 0.406264
vt 0.045871 0.075523
vt 0.045871 0.406264
vt 0.056984 0.406264
vt 0.056984 0.075523
vt 0.062457 0.406264
vt 0.062457 0.075523
vt 0.06984 0.406264
vt 0.06984 0.075523
vt 0.070701 0.406264
vt 0.070701 0.075523
vt 0.07107 0.406264
vt 0.07107 0.075523
vt 0.071377 0.406264
vt 0.071377 0.075523
vt 0.071654 0.406264
vt 0.071654 0.075523
vt 0.072022 0.406264
vt 0.072022 0.075523
vt 0.072021 0.406264
vt 0.072021 0.075523
vt 0.072359 0.406264
vt 0.072359 0.075523
vt 0.072574 0.406264
vt 0.072574 0.075523
vt 0.073035 0.406264
vt 0.073035 0.075523
vn -0.8530200324305031 0 0.5218781699518229
vn -0.9825783298556123 0 0.18584893246439518
vn -0.6548508523716569 0 0.7557581366734429
vn -0.99242304332 0 -0.12286782771527158
vn -0.46501423924472485 0 0.8853032007734127
vn -0.9439207555054012 0 -0.33017208744246157
vn -0.28819602629055185 0 0.9575714335914244
vn -0.8133133538738644 0 -0.5818259090230052
vn -0.1968025204241288 0 0.9804431487621862
vn -0.587053046929582 0 -0.8095484667953451
vn -0.9999997591984623 0 -0.0006939762368894149
vn -0.9797183624844547 0 0.20037946554170366
vn -0.3877982069272291 0 -0.9217442978961279
vn -0.8796172201569932 0 0.47568219012622676
vn -0.14835800221586293 0 -0.9889337203162394
vn -0.7737925489867886 0 0.6334390982032357
vn 0 0 -1
vn -0.5852862284248568 0 0.8108267575852477
vn 0.9999997591984623 0 0.0006939762368894149
vn -0.2904569804736312 0 0.9568880511816106
vn -0.06248611409697295 0 0.9980458333889581
vn 0 0 1
vn 0.9999997500925883 0 0.0007069757853214672
vn 0.265268363954758 0 0.9641746185648976
vn 0.36448373134622414 0 0.9312097559540136
vn 0.5853530547901954 0 0.8107785155316997
vn 0.756617949583019 0 0.6538572308759674
vn 0.8546520281313881 0 0.5192012238149147
vn 0.9730911142538625 0 0.2304206660874326
vn -0.027921952315005567 0 0.9996101062809032
vn -0.2097437844706327 0 0.9777563831936547
vn -0.272675704860854 0 0.9621060024647161
vn -0.24806995339295318 0 0.9687421216317673
vn -0.4495131262789551 0 0.8932737258550261
vn -0.6345380537719681 0 0.7728916213255795
vn -0.7682065745906621 0 0.6402020452604643
vn -0.8721698383155781 0 0.48920320229182707
vn -0.9783607555641897 0 0.20690633622938684
vn -0.9734098026636545 0 0.22907063556533167
vn -0.7607121187939594 0 0.6490894178154542
vn -0.5047970884246094 0 0.8632380317838396
vn -0.4235256475496695 0 0.9058841128243905
vn 0.8530200324305031 0 -0.5218781699518229
vn 0.9825783298556123 0 -0.18584893246439518
vn 0.6548508523716569 0 -0.7557581366734429
vn 0.99242304332 0 0.12286782771527158
vn 0.46501423924472485 0 -0.8853032007734127
vn 0.9439207555054012 0 0.33017208744246157
vn 0.28819602629055185 0 -0.9575714335914244
vn 0.8133133538738644 0 0.5818259090230052
vn 0.1968025204241288 0 -0.9804431487621862
vn 0.587053046929582 0 0.8095484667953451
vn 0.9797183624844547 0 -0.20037946554170366
vn 0.3877982069272291 0 0.9217442978961279
vn 0.8796172201569932 0 -0.47568219012622676
vn 0.14835800221586293 0 0.9889337203162394
vn 0.7737925489867886 0 -0.6334390982032357
vn 0.5852862284248568 0 -0.8108267575852477
vn 0.2904569804736312 0 -0.9568880511816106
vn 0.06248611409697295 0 -0.9980458333889581
vn -0.9999997500925883 0 -0.0007069757853214672
vn -0.265268363954758 0 -0.9641746185648976
vn -0.36448373134622414 0 -0.9312097559540136
vn -0.5853530547901954 0 -0.8107785155316997
vn -0.756617949583019 0 -0.6538572308759674
vn -0.8546520281313881 0 -0.5192012238149147
vn -0.9730911142538625 0 -0.2304206660874326
vn 0.027921952315005567 0 -0.9996101062809032
vn 0.2097437844706327 0 -0.9777563831936547
vn 0.272675704860854 0 -0.9621060024647161
vn 0.24806995339295318 0 -0.9687421216317673
vn 0.4495131262789551 0 -0.8932737258550261
vn 0.6345380537719681 0 -0.7728916213255795
vn 0.7682065745906621 0 -0.6402020452604643
vn 0.8721698383155781 0 -0.48920320229182707
vn 0.9783607555641897 0 -0.20690633622938684
vn 0.9734098026636545 0 -0.22907063556533167
vn 0.7607121187939594 0 -0.6490894178154542
vn 0.5047970884246094 0 -0.8632380317838396
vn 0.4235256475496695 0 -0.9058841128243905
usemtl material_0_0
f 1/1/1 2/2/2 3/3/1
f 2/2/2 1/1/1 4/4/2
f 3/3/1 5/5/3 1/1/1
f 4/4/2 6/6/4 2/2/2
f 5/5/3 3/3/1 7/7/3
f 6/6/4 4/4/2 8/8/4
f 7/7/3 9/9/5 5/5/3
f 8/8/4 10/10/6 6/6/4
f 9/9/5 7/7/3 11/11/5
f 10/10/6 8/8/4 12/12/6
f 11/11/5 13/13/7 9/9/5
f 12/12/6 14/14/8 10/10/6
f 13/13/7 11/11/5 15/15/7
f 14/14/8 12/12/6 16/16/8
f 15/15/7 17/17/9 13/13/7
f 16/16/8 18/18/10 14/14/8
f 17/17/9 15/15/7 19/19/9
f 18/18/10 16/16/8 20/20/10
f 19/19/11 21/21/12 17/17/11
f 20/20/10 22/22/13 18/18/10
f 21/21/12 19/19/11 23/23/12
f 22/22/13 20/20/10 24/24/13
f 23/23/12 25/25/14 21/21/12
f 24/24/13 26/26/15 22/22/13
f 25/25/14 23/23/12 27/27/14
f 26/26/15 24/24/13 28/28/15
f 27/27/14 29/29/16 25/25/14
f 28/28/15 30/30/17 26/26/15
f 29/29/16 27/27/14 31/31/16
f 30/30/17 28/28/15 32/32/17
f 31/31/16 33/33/18 29/29/16
f 34/34/19 30/30/19 32/32/19
f 33/33/18 31/31/16 35/35/18
f 30/30/19 34/34/19 36/36/19
f 35/35/18 37/37/20 33/33/18
f 34/34/17 38/38/17 36/36/17
f 37/37/20 35/35/18 39/39/20
f 38/38/17 34/34/17 40/40/17
f 39/39/20 41/41/21 37/37/20
f 41/41/21 39/39/20 42/42/21
f 42/42/21 43/43/22 41/41/21
f 43/43/22 42/42/21 44/44/22
f 45/45/23 43/43/23 44/44/23
f 43/43/23 45/45/23 46/46/23
f 45/45/24 47/47/25 46/46/24
f 47/47/25 45/45/24 48/48/25
f 48/48/25 49/49/26 47/47/25
f 49/49/26 48/48/25 50/50/26
f 50/50/26 51/51/27 49/49/26
f 51/51/27 50/50/26 52/52/27
f 53/53/28 51/51/27 52/52/27
f 51/51/27 53/53/28 54/54/28
f 55/55/29 54/54/28 53/53/28
f 54/54/28 55/55/29 56/56/29
f 57/57/19 56/56/29 55/55/29
f 56/56/29 57/57/19 58/58/19
f 57/57/30 59/59/31 58/58/30
f 59/59/31 57/57/30 60/60/31
f 60/60/31 61/61/32 59/59/31
f 61/61/32 60/60/31 62/62/32
f 62/62/32 63/63/33 61/61/32
f 63/63/33 62/62/32 64/64/33
f 64/64/33 65/65/34 63/63/33
f 65/65/34 64/64/33 66/66/34
f 66/66/34 67/67/35 65/65/34
f 67/67/35 66/66/34 68/68/35
f 68/68/35 69/69/36 67/67/35
f 69/69/36 68/68/35 70/70/36
f 70/70/36 71/71/37 69/69/36
f 71/71/37 70/70/36 72/72/37
f 72/72/37 73/73/38 71/71/37
f 73/73/38 72/72/37 74/74/38
f 74/74/38 75/75/39 73/73/38
f 75/75/39 74/74/38 76/76/39
f 76/76/39 77/77/40 75/75/39
f 77/77/40 76/76/39 78/78/40
f 78/78/40 79/79/41 77/77/40
f 79/79/41 78/78/40 80/80/41
f 80/80/41 81/81/42 79/79/41
f 81/81/42 80/80/41 82/82/42
f 83/38/22 81/81/22 82/82/22
f 81/81/22 83/38/22 84/40/22
usemtl material_1_0
f 3//43 2//44 1//43
f 4//44 1//43 2//44
f 1//43 5//45 3//43
f 2//44 6//46 4//44
f 7//45 3//43 5//45
f 8//46 4//44 6//46
f 5//45 9//47 7//45
f 6//46 10//48 8//46
f 11//47 7//45 9//47
f 12//48 8//46 10//48
f 9//47 13//49 11//47
f 10//48 14//50 12//48
f 15//49 11//47 13//49
f 16//50 12//48 14//50
f 13//49 17//51 15//49
f 14//50 18//52 16//50
f 19//51 15//49 17//51
f 20//52 16//50 18//52
f 17//19 21//53 19//19
f 18//52 22//54 20//52
f 23//53 19//19 21//53
f 24//54 20//52 22//54
f 21//53 25//55 23//53
f 22//54 26//56 24//54
f 27//55 23//53 25//55
f 28//56 24//54 26//56
f 25//55 29//57 27//55
f 26//56 30//22 28//56
f 31//57 27//55 29//57
f 32//22 28//56 30//22
f 29//57 33//58 31//57
f 32//11 30//11 34//11
f 35//58 31//57 33//58
f 36//11 34//11 30//11
f 33//58 37//59 35//58
f 36//22 38//22 34//22
f 39//59 35//58 37//59
f 40//22 34//22 38//22
f 37//59 41//60 39//59
f 42//60 39//59 41//60
f 41//60 43//17 42//60
f 44//17 42//60 43//17
f 44//61 43//61 45//61
f 46//61 45//61 43//61
f 46//62 47//63 45//62
f 48//63 45//62 47//63
f 47//63 49//64 48//63
f 50//64 48//63 49//64
f 49//64 51//65 50//64
f 52//65 50//64 51//65
f 52//65 51//65 53//66
f 54//66 53//66 51//65
f 53//66 54//66 55//67
f 56//67 55//67 54//66
f 55//67 56//67 57//11
f 58//11 57//11 56//67
f 58//68 59//69 57//68
f 60//69 57//68 59//69
f 59//69 61//70 60//69
f 62//70 60//69 61//70
f 61//70 63//71 62//70
f 64//71 62//70 63//71
f 63//71 65//72 64//71
f 66//72 64//71 65//72
f 65//72 67//73 66//72
f 68//73 66//72 67//73
f 67//73 69//74 68//73
f 70//74 68//73 69//74
f 69//74 71//75 70//74
f 72//75 70//74 71//75
f 71//75 73//76 72//75
f 74//76 72//75 73//76
f 73//76 75//77 74//76
f 76//77 74//76 75//77
f 75//77 77//78 76//77
f 78//78 76//77 77//78
f 77//78 79//79 78//78
f 80//79 78//78 79//79
f 79//79 81//80 80//79
f 82//80 80//79 81//80
f 82//17 81//17 83//17
f 84//17 83//17 81//17
