# SSTK version 0.8.0
# 120
mtllib original-120.mtl
o mesh34/mesh34-geometry#mesh34-geometry
v 0.478390 0.246093 0.440749
v 0.475315 0.248827 0.441579
v 0.474708 0.248219 0.440749
v 0.478612 0.246923 0.441579
v 0.473412 0.252124 0.441579
v 0.478319 0.245828 0.439906
v 0.482642 0.246093 0.440749
v 0.476504 0.250016 0.441579
v 0.472582 0.251901 0.440749
v 0.473412 0.255931 0.441579
v 0.474514 0.248025 0.439906
v 0.482419 0.246923 0.441579
v 0.475036 0.252559 0.441579
v 0.479047 0.248547 0.441579
v 0.472582 0.256153 0.440749
v 0.472317 0.251830 0.439906
v 0.478128 0.245116 0.439306
v 0.482713 0.245828 0.439906
v 0.485716 0.248827 0.441579
v 0.476716 0.250227 0.445772
v 0.472317 0.256224 0.439906
v 0.475036 0.255496 0.441579
v 0.474708 0.259836 0.440749
v 0.473992 0.247504 0.439306
v 0.482903 0.245116 0.439306
v 0.486324 0.248219 0.440749
v 0.484527 0.250016 0.441579
v 0.481984 0.248547 0.441579
v 0.475325 0.252636 0.445772
v 0.479125 0.248837 0.445772
v 0.471605 0.256415 0.439306
v 0.475315 0.259228 0.441579
v 0.471605 0.251640 0.439306
v 0.486518 0.248025 0.439906
v 0.487620 0.252124 0.441579
v 0.485996 0.252559 0.441579
v 0.481907 0.248837 0.445772
v 0.478225 0.251736 0.449041
v 0.474514 0.260029 0.439906
v 0.473992 0.260551 0.439306
v 0.476504 0.258039 0.441579
v 0.475325 0.255418 0.445772
v 0.478390 0.261962 0.440749
v 0.487039 0.247504 0.439306
v 0.488715 0.251830 0.439906
v 0.488450 0.251901 0.440749
v 0.484316 0.250227 0.445772
v 0.477386 0.253189 0.449041
v 0.481354 0.250898 0.449041
v 0.479677 0.250898 0.449041
v 0.476716 0.257827 0.445772
v 0.478612 0.261131 0.441579
v 0.487620 0.255931 0.441579
v 0.485996 0.255496 0.441579
v 0.485707 0.252636 0.445772
v 0.482807 0.251736 0.449041
v 0.480516 0.254027 0.450271
v 0.478319 0.262226 0.439906
v 0.478128 0.262938 0.439306
v 0.479125 0.259218 0.445772
v 0.479047 0.259507 0.441579
v 0.477386 0.254866 0.449041
v 0.478225 0.256318 0.449041
v 0.482642 0.261962 0.440749
v 0.489427 0.251640 0.439306
v 0.488715 0.256224 0.439906
v 0.488450 0.256153 0.440749
v 0.482713 0.262226 0.439906
v 0.479677 0.257157 0.449041
v 0.482419 0.261131 0.441579
v 0.486324 0.259836 0.440749
v 0.485716 0.259228 0.441579
v 0.485707 0.255418 0.445772
v 0.483645 0.253189 0.449041
v 0.482903 0.262938 0.439306
v 0.481984 0.259507 0.441579
v 0.481907 0.259218 0.445772
v 0.486518 0.260029 0.439906
v 0.489427 0.256415 0.439306
v 0.484527 0.258039 0.441579
v 0.484316 0.257827 0.445772
v 0.483645 0.254866 0.449041
v 0.481354 0.257157 0.449041
v 0.487039 0.260551 0.439306
v 0.482807 0.256318 0.449041
vt 0.910237 0.175476
vt 0.890968 0.278109
vt 0.887134 0.25546
vt 0.911654 0.206494
vt 0.879073 0.401652
vt 0.909785 0.165584
vt 0.936969 0.174921
vt 0.898469 0.322414
vt 0.873849 0.393442
vt 0.879157 0.544021
vt 0.885911 0.248237
vt 0.935589 0.205997
vt 0.889293 0.417714
vt 0.914426 0.267172
vt 0.873942 0.552448
vt 0.872183 0.390823
vt 0.90857 0.138978
vt 0.937409 0.16501
vt 0.956358 0.276751
vt 0.899804 0.3303
vt 0.872279 0.555136
vt 0.889358 0.527535
vt 0.887389 0.689875
vt 0.882622 0.22881
vt 0.938593 0.138354
vt 0.960166 0.253944
vt 0.94891 0.321367
vt 0.932888 0.266788
vt 0.891112 0.420573
vt 0.914919 0.277972
vt 0.867806 0.562365
vt 0.891196 0.667068
vt 0.867701 0.38378
vt 0.96138 0.24667
vt 0.968398 0.399797
vt 0.958197 0.416283
vt 0.932408 0.277609
vt 0.909323 0.386531
vt 0.886174 0.697149
vt 0.882908 0.716712
vt 0.898645 0.622452
vt 0.891173 0.524601
vt 0.910586 0.768898
vt 0.964646 0.227107
vt 0.975275 0.388682
vt 0.973612 0.39137
vt 0.947584 0.329308
vt 0.904083 0.440958
vt 0.928981 0.354762
vt 0.918436 0.354981
vt 0.89997 0.61451
vt 0.911966 0.737822
vt 0.968481 0.542166
vt 0.958261 0.526105
vt 0.956381 0.419218
vt 0.938131 0.385933
vt 0.923777 0.471909
vt 0.910145 0.778809
vt 0.908961 0.805464
vt 0.915147 0.66621
vt 0.914666 0.67703
vt 0.90412 0.503678
vt 0.909424 0.557886
vt 0.937317 0.768343
vt 0.979748 0.381454
vt 0.975372 0.552996
vt 0.973706 0.550377
vt 0.937769 0.778235
vt 0.918574 0.589056
vt 0.9359 0.737325
vt 0.960421 0.688359
vt 0.956586 0.66571
vt 0.956442 0.523246
vt 0.943435 0.440141
vt 0.938984 0.804841
vt 0.933129 0.676647
vt 0.932635 0.665847
vt 0.961644 0.695582
vt 0.979853 0.560038
vt 0.949086 0.621404
vt 0.947751 0.613518
vt 0.943471 0.502861
vt 0.929118 0.588837
vt 0.964932 0.715009
vt 0.938231 0.557288
vn -0.22086632734633832 -0.8242827240571983 0.5213214519520414
vn -0.3585335044940177 -0.3585335044940177 0.8619207923646327
vn -0.6034167732718811 -0.6034167732718811 0.5213217772818458
vn -0.13123213635503728 -0.48976569766780814 0.8619209289579052
vn -0.48976569766780814 -0.13123213635503728 0.8619209289579052
vn -0.21554696317860877 -0.8044333892631316 0.5535579724862706
vn 0.22086632734633832 -0.8242827240571983 0.5213214519520414
vn 0 0 1
vn -0.8242827240571983 -0.22086632734633832 0.5213214519520414
vn -0.48976569766780814 0.13123213635503728 0.8619209289579052
vn -0.5888861685775203 -0.5888861685775203 0.5535577304276191
vn 0.13123213635503728 -0.48976569766780814 0.8619209289579052
vn -0.8242827240571983 0.22086632734633832 0.5213214519520414
vn -0.8044333892631316 -0.21554696317860877 0.5535579724862706
vn -0.16344528698411828 -0.6099854869566839 0.775373035296493
vn 0.21554696317860877 -0.8044333892631316 0.5535579724862706
vn 0.3585335044940177 -0.3585335044940177 0.8619207923646327
vn -0.6718911550605533 -0.6718911550605533 0.3116481212887236
vn -0.9634744389921679 -0.2581618819240803 0.07120005709368753
vn -0.7053121852113818 -0.7053121852113818 0.07120001955540975
vn -0.2581618819240803 -0.9634744389921679 0.07120005709368753
vn -0.8044333892631316 0.21554696317860877 0.5535579724862706
vn -0.6034167732718811 0.6034167732718811 0.5213217772818458
vn -0.4465402794013771 -0.4465402794013771 0.7753731732167938
vn 0.16344528698411828 -0.6099854869566839 0.775373035296493
vn 0.6034167732718811 -0.6034167732718811 0.5213217772818458
vn -0.917820415405362 -0.24592892726778873 0.31164827578224047
vn -0.24592892726778873 -0.917820415405362 0.31164827578224047
vn -0.6099854869566839 0.16344528698411828 0.775373035296493
vn -0.3585335044940177 0.3585335044940177 0.8619207923646327
vn -0.9634744389921679 0.2581618819240803 0.07120005709368753
vn -0.6099854869566839 -0.16344528698411828 0.775373035296493
vn 0.5888861685775203 -0.5888861685775203 0.5535577304276191
vn 0.48976569766780814 -0.13123213635503728 0.8619209289579052
vn 0.24592892726778873 -0.917820415405362 0.31164827578224047
vn 0.2581618819240803 -0.9634744389921679 0.07120005709368753
vn -0.4522971055796044 -0.4522971055796044 0.7686707075000482
vn -0.5888861685775203 0.5888861685775203 0.5535577304276191
vn -0.4465402794013771 0.4465402794013771 0.7753731732167938
vn -0.917820415405362 0.24592892726778873 0.31164827578224047
vn -0.22086632734633832 0.8242827240571983 0.5213214519520414
vn 0.4465402794013771 -0.4465402794013771 0.7753731732167938
vn 0.8044333892631316 -0.21554696317860877 0.5535579724862706
vn 0.8242827240571983 -0.22086632734633832 0.5213214519520414
vn 0.6718911550605533 -0.6718911550605533 0.3116481212887236
vn 0.7053121852113818 -0.7053121852113818 0.07120001955540975
vn 0.9634744389921679 -0.2581618819240803 0.07120005709368753
vn -0.6178487285322712 -0.16555252181094252 0.7686711333028535
vn 0.16555252181094252 -0.6178487285322712 0.7686711333028535
vn -0.16555252181094252 -0.6178487285322712 0.7686711333028535
vn -0.6718911550605533 0.6718911550605533 0.3116481212887236
vn -0.7053121852113818 0.7053121852113818 0.07120001955540975
vn -0.13123213635503728 0.48976569766780814 0.8619209289579052
vn 0.48976569766780814 0.13123213635503728 0.8619209289579052
vn 0.917820415405362 -0.24592892726778873 0.31164827578224047
vn 0.4522971055796044 -0.4522971055796044 0.7686707075000482
vn -0.21554696317860877 0.8044333892631316 0.5535579724862706
vn -0.16344528698411828 0.6099854869566839 0.775373035296493
vn -0.24592892726778873 0.917820415405362 0.31164827578224047
vn -0.6178487285322712 0.16555252181094252 0.7686711333028535
vn -0.4522971055796044 0.4522971055796044 0.7686707075000482
vn 0.22086632734633832 0.8242827240571983 0.5213214519520414
vn 0.6099854869566839 -0.16344528698411828 0.775373035296493
vn 0.8044333892631316 0.21554696317860877 0.5535579724862706
vn 0.8242827240571983 0.22086632734633832 0.5213214519520414
vn 0.9634744389921679 0.2581618819240803 0.07120005709368753
vn 0.21554696317860877 0.8044333892631316 0.5535579724862706
vn -0.2581618819240803 0.9634744389921679 0.07120005709368753
vn -0.16555252181094252 0.6178487285322712 0.7686711333028535
vn 0.13123213635503728 0.48976569766780814 0.8619209289579052
vn 0.6034167732718811 0.6034167732718811 0.5213217772818458
vn 0.3585335044940177 0.3585335044940177 0.8619207923646327
vn 0.917820415405362 0.24592892726778873 0.31164827578224047
vn 0.6178487285322712 -0.16555252181094252 0.7686711333028535
vn 0.16344528698411828 0.6099854869566839 0.775373035296493
vn 0.2581618819240803 0.9634744389921679 0.07120005709368753
vn 0.24592892726778873 0.917820415405362 0.31164827578224047
vn 0.5888861685775203 0.5888861685775203 0.5535577304276191
vn 0.6099854869566839 0.16344528698411828 0.775373035296493
vn 0.6718911550605533 0.6718911550605533 0.3116481212887236
vn 0.6178487285322712 0.16555252181094252 0.7686711333028535
vn 0.16555252181094252 0.6178487285322712 0.7686711333028535
vn 0.4465402794013771 0.4465402794013771 0.7753731732167938
vn 0.7053121852113818 0.7053121852113818 0.07120001955540975
vn 0.4522971055796044 0.4522971055796044 0.7686707075000482
vn 0.6034167732718811 0.6034167732718811 -0.5213217772818458
vn 0.3585335044940177 0.3585335044940177 -0.8619207923646327
vn 0.22086632734633832 0.8242827240571983 -0.5213214519520414
vn 0.13123213635503728 0.48976569766780814 -0.8619209289579052
vn 0.48976569766780814 0.13123213635503728 -0.8619209289579052
vn 0.21554696317860877 0.8044333892631316 -0.5535579724862706
vn -0.22086632734633832 0.8242827240571983 -0.5213214519520414
vn 0 0 -1
vn 0.8242827240571983 0.22086632734633832 -0.5213214519520414
vn 0.48976569766780814 -0.13123213635503728 -0.8619209289579052
vn 0.5888861685775203 0.5888861685775203 -0.5535577304276191
vn -0.13123213635503728 0.48976569766780814 -0.8619209289579052
vn 0.8242827240571983 -0.22086632734633832 -0.5213214519520414
vn 0.8044333892631316 0.21554696317860877 -0.5535579724862706
vn 0.16344528698411828 0.6099854869566839 -0.775373035296493
vn -0.21554696317860877 0.8044333892631316 -0.5535579724862706
vn -0.3585335044940177 0.3585335044940177 -0.8619207923646327
vn 0.7053121852113818 0.7053121852113818 -0.07120001955540975
vn 0.9634744389921679 0.2581618819240803 -0.07120005709368753
vn 0.6718911550605533 0.6718911550605533 -0.3116481212887236
vn 0.2581618819240803 0.9634744389921679 -0.07120005709368753
vn 0.8044333892631316 -0.21554696317860877 -0.5535579724862706
vn 0.6034167732718811 -0.6034167732718811 -0.5213217772818458
vn 0.4465402794013771 0.4465402794013771 -0.7753731732167938
vn -0.16344528698411828 0.6099854869566839 -0.775373035296493
vn -0.6034167732718811 0.6034167732718811 -0.5213217772818458
vn 0.917820415405362 0.24592892726778873 -0.31164827578224047
vn 0.24592892726778873 0.917820415405362 -0.31164827578224047
vn 0.6099854869566839 -0.16344528698411828 -0.775373035296493
vn 0.3585335044940177 -0.3585335044940177 -0.8619207923646327
vn 0.9634744389921679 -0.2581618819240803 -0.07120005709368753
vn 0.6099854869566839 0.16344528698411828 -0.775373035296493
vn -0.5888861685775203 0.5888861685775203 -0.5535577304276191
vn -0.48976569766780814 0.13123213635503728 -0.8619209289579052
vn -0.2581618819240803 0.9634744389921679 -0.07120005709368753
vn -0.24592892726778873 0.917820415405362 -0.31164827578224047
vn 0.4522971055796044 0.4522971055796044 -0.7686707075000482
vn 0.5888861685775203 -0.5888861685775203 -0.5535577304276191
vn 0.4465402794013771 -0.4465402794013771 -0.7753731732167938
vn 0.917820415405362 -0.24592892726778873 -0.31164827578224047
vn 0.22086632734633832 -0.8242827240571983 -0.5213214519520414
vn -0.4465402794013771 0.4465402794013771 -0.7753731732167938
vn -0.8044333892631316 0.21554696317860877 -0.5535579724862706
vn -0.8242827240571983 0.22086632734633832 -0.5213214519520414
vn -0.7053121852113818 0.7053121852113818 -0.07120001955540975
vn -0.6718911550605533 0.6718911550605533 -0.3116481212887236
vn -0.9634744389921679 0.2581618819240803 -0.07120005709368753
vn 0.6178487285322712 0.16555252181094252 -0.7686711333028535
vn -0.16555252181094252 0.6178487285322712 -0.7686711333028535
vn 0.16555252181094252 0.6178487285322712 -0.7686711333028535
vn 0.7053121852113818 -0.7053121852113818 -0.07120001955540975
vn 0.6718911550605533 -0.6718911550605533 -0.3116481212887236
vn 0.13123213635503728 -0.48976569766780814 -0.8619209289579052
vn -0.48976569766780814 -0.13123213635503728 -0.8619209289579052
vn -0.917820415405362 0.24592892726778873 -0.31164827578224047
vn -0.4522971055796044 0.4522971055796044 -0.7686707075000482
vn 0.21554696317860877 -0.8044333892631316 -0.5535579724862706
vn 0.16344528698411828 -0.6099854869566839 -0.775373035296493
vn 0.24592892726778873 -0.917820415405362 -0.31164827578224047
vn 0.6178487285322712 -0.16555252181094252 -0.7686711333028535
vn 0.4522971055796044 -0.4522971055796044 -0.7686707075000482
vn -0.22086632734633832 -0.8242827240571983 -0.5213214519520414
vn -0.6099854869566839 0.16344528698411828 -0.775373035296493
vn -0.8044333892631316 -0.21554696317860877 -0.5535579724862706
vn -0.8242827240571983 -0.22086632734633832 -0.5213214519520414
vn -0.9634744389921679 -0.2581618819240803 -0.07120005709368753
vn -0.21554696317860877 -0.8044333892631316 -0.5535579724862706
vn 0.2581618819240803 -0.9634744389921679 -0.07120005709368753
vn 0.16555252181094252 -0.6178487285322712 -0.7686711333028535
vn -0.13123213635503728 -0.48976569766780814 -0.8619209289579052
vn -0.6034167732718811 -0.6034167732718811 -0.5213217772818458
vn -0.3585335044940177 -0.3585335044940177 -0.8619207923646327
vn -0.917820415405362 -0.24592892726778873 -0.31164827578224047
vn -0.6178487285322712 0.16555252181094252 -0.7686711333028535
vn -0.16344528698411828 -0.6099854869566839 -0.775373035296493
vn -0.2581618819240803 -0.9634744389921679 -0.07120005709368753
vn -0.24592892726778873 -0.917820415405362 -0.31164827578224047
vn -0.5888861685775203 -0.5888861685775203 -0.5535577304276191
vn -0.6099854869566839 -0.16344528698411828 -0.775373035296493
vn -0.6718911550605533 -0.6718911550605533 -0.3116481212887236
vn -0.6178487285322712 -0.16555252181094252 -0.7686711333028535
vn -0.16555252181094252 -0.6178487285322712 -0.7686711333028535
vn -0.4465402794013771 -0.4465402794013771 -0.7753731732167938
vn -0.7053121852113818 -0.7053121852113818 -0.07120001955540975
vn -0.4522971055796044 -0.4522971055796044 -0.7686707075000482
usemtl material_0_0
f 1/1/1 2/2/2 3/3/3
f 2/2/2 1/1/1 4/4/4
f 5/5/5 3/3/3 2/2/2
f 3/3/3 6/6/6 1/1/1
f 7/7/7 4/4/4 1/1/1
f 8/8/8 2/2/2 4/4/4
f 3/3/3 5/5/5 9/9/9
f 2/2/2 10/10/10 5/5/5
f 6/6/6 3/3/3 11/11/11
f 6/6/6 7/7/7 1/1/1
f 4/4/4 7/7/7 12/12/12
f 13/13/8 2/2/2 8/8/8
f 8/8/8 4/4/4 14/14/8
f 5/5/5 15/15/13 9/9/9
f 16/16/14 3/3/3 9/9/9
f 10/10/10 2/2/2 13/13/8
f 15/15/13 5/5/5 10/10/10
f 3/3/3 16/16/14 11/11/11
f 11/11/11 17/17/15 6/6/6
f 7/7/7 6/6/6 18/18/16
f 7/7/7 19/19/17 12/12/12
f 14/14/8 4/4/4 12/12/12
f 20/20/18 13/13/19 8/8/20
f 14/14/21 20/20/18 8/8/20
f 21/21/22 9/9/9 15/15/13
f 9/9/9 21/21/22 16/16/14
f 22/22/8 10/10/10 13/13/8
f 10/10/10 23/23/23 15/15/13
f 16/16/14 24/24/24 11/11/11
f 17/17/15 11/11/11 24/24/24
f 25/25/25 6/6/6 17/17/15
f 6/6/6 25/25/25 18/18/16
f 18/18/16 26/26/26 7/7/7
f 19/19/17 7/7/7 26/26/26
f 27/27/8 12/12/12 19/19/17
f 14/14/8 12/12/12 28/28/8
f 13/13/19 20/20/18 29/29/27
f 20/20/18 14/14/21 30/30/28
f 23/23/23 21/21/22 15/15/13
f 31/31/29 16/16/14 21/21/22
f 10/10/10 22/22/8 32/32/30
f 29/29/27 22/22/31 13/13/19
f 23/23/23 10/10/10 32/32/30
f 24/24/24 16/16/14 33/33/32
f 25/25/25 34/34/33 18/18/16
f 26/26/26 18/18/16 34/34/33
f 26/26/26 35/35/34 19/19/17
f 28/28/8 12/12/12 27/27/8
f 27/27/8 19/19/17 36/36/8
f 37/37/35 14/14/21 28/28/36
f 38/38/37 29/29/27 20/20/18
f 14/14/21 37/37/35 30/30/28
f 30/30/28 38/38/37 20/20/18
f 21/21/22 23/23/23 39/39/38
f 16/16/14 31/31/29 33/33/32
f 21/21/22 40/40/39 31/31/29
f 32/32/30 22/22/8 41/41/8
f 22/22/31 29/29/27 42/42/40
f 32/32/30 43/43/41 23/23/23
f 34/34/33 25/25/25 44/44/42
f 45/45/43 26/26/26 34/34/33
f 35/35/34 26/26/26 46/46/44
f 36/36/8 19/19/17 35/35/34
f 47/47/45 28/28/36 27/27/46
f 36/36/47 47/47/45 27/27/46
f 28/28/36 47/47/45 37/37/35
f 29/29/27 38/38/37 48/48/48
f 49/49/49 30/30/28 37/37/35
f 38/38/37 30/30/28 50/50/50
f 43/43/41 39/39/38 23/23/23
f 40/40/39 21/21/22 39/39/38
f 22/22/31 51/51/51 41/41/52
f 32/32/30 41/41/8 52/52/53
f 48/48/48 42/42/40 29/29/27
f 51/51/51 22/22/31 42/42/40
f 43/43/41 32/32/30 52/52/53
f 44/44/42 45/45/43 34/34/33
f 26/26/26 45/45/43 46/46/44
f 46/46/44 53/53/54 35/35/34
f 36/36/8 35/35/34 54/54/8
f 47/47/45 36/36/47 55/55/55
f 56/56/56 37/37/35 47/47/45
f 57/57/8 48/48/48 38/38/37
f 30/30/28 49/49/49 50/50/50
f 37/37/35 56/56/56 49/49/49
f 57/57/8 38/38/37 50/50/50
f 39/39/38 43/43/41 58/58/57
f 39/39/38 59/59/58 40/40/39
f 60/60/59 41/41/52 51/51/51
f 52/52/53 41/41/8 61/61/8
f 42/42/40 48/48/48 62/62/60
f 42/42/40 63/63/61 51/51/51
f 52/52/53 64/64/62 43/43/41
f 45/45/43 44/44/42 65/65/63
f 66/66/64 46/46/44 45/45/43
f 53/53/54 46/46/44 67/67/65
f 53/53/54 54/54/8 35/35/34
f 54/54/66 55/55/55 36/36/47
f 55/55/55 56/56/56 47/47/45
f 57/57/8 62/62/60 48/48/48
f 49/49/49 57/57/8 50/50/50
f 56/56/56 57/57/8 49/49/49
f 43/43/41 68/68/67 58/58/57
f 59/59/58 39/39/38 58/58/57
f 41/41/52 60/60/59 61/61/68
f 51/51/51 69/69/69 60/60/59
f 52/52/53 61/61/8 70/70/70
f 63/63/61 42/42/40 62/62/60
f 69/69/69 51/51/51 63/63/61
f 64/64/62 52/52/53 70/70/70
f 68/68/67 43/43/41 64/64/62
f 65/65/63 66/66/64 45/45/43
f 46/46/44 66/66/64 67/67/65
f 71/71/71 53/53/54 67/67/65
f 72/72/72 54/54/8 53/53/54
f 55/55/55 54/54/66 73/73/73
f 56/56/56 55/55/55 74/74/74
f 57/57/8 63/63/61 62/62/60
f 74/74/74 57/57/8 56/56/56
f 75/75/75 58/58/57 68/68/67
f 58/58/57 75/75/75 59/59/58
f 60/60/59 76/76/76 61/61/68
f 69/69/69 77/77/77 60/60/59
f 70/70/70 61/61/8 76/76/8
f 57/57/8 69/69/69 63/63/61
f 72/72/72 64/64/62 70/70/70
f 64/64/62 78/78/78 68/68/67
f 66/66/64 65/65/63 79/79/79
f 66/66/64 71/71/71 67/67/65
f 53/53/54 71/71/71 72/72/72
f 72/72/72 80/80/8 54/54/8
f 54/54/66 81/81/80 73/73/73
f 73/73/73 74/74/74 55/55/55
f 82/82/81 57/57/8 74/74/74
f 78/78/78 75/75/75 68/68/67
f 76/76/76 60/60/59 77/77/77
f 77/77/77 69/69/69 83/83/82
f 70/70/70 76/76/8 80/80/8
f 83/83/82 69/69/69 57/57/8
f 64/64/62 72/72/72 71/71/71
f 70/70/70 80/80/8 72/72/72
f 78/78/78 64/64/62 71/71/71
f 84/84/83 66/66/64 79/79/79
f 71/71/71 66/66/64 78/78/78
f 81/81/80 54/54/66 80/80/84
f 85/85/85 73/73/73 81/81/80
f 74/74/74 73/73/73 82/82/81
f 82/82/81 85/85/85 57/57/8
f 75/75/75 78/78/78 84/84/83
f 77/77/77 80/80/84 76/76/76
f 83/83/82 81/81/80 77/77/77
f 85/85/85 83/83/82 57/57/8
f 66/66/64 84/84/83 78/78/78
f 80/80/84 77/77/77 81/81/80
f 73/73/73 85/85/85 82/82/81
f 81/81/80 83/83/82 85/85/85
usemtl material_1_0
f 3//86 2//87 1//88
f 4//89 1//88 2//87
f 2//87 3//86 5//90
f 1//88 6//91 3//86
f 1//88 4//89 7//92
f 4//89 2//87 8//93
f 9//94 5//90 3//86
f 5//90 10//95 2//87
f 11//96 3//86 6//91
f 1//88 7//92 6//91
f 12//97 7//92 4//89
f 8//93 2//87 13//93
f 14//93 4//89 8//93
f 9//94 15//98 5//90
f 9//94 3//86 16//99
f 13//93 2//87 10//95
f 10//95 5//90 15//98
f 11//96 16//99 3//86
f 6//91 17//100 11//96
f 18//101 6//91 7//92
f 12//97 19//102 7//92
f 12//97 4//89 14//93
f 8//103 13//104 20//105
f 8//103 20//105 14//106
f 15//98 9//94 21//107
f 16//99 21//107 9//94
f 13//93 10//95 22//93
f 15//98 23//108 10//95
f 11//96 24//109 16//99
f 24//109 11//96 17//100
f 17//100 6//91 25//110
f 18//101 25//110 6//91
f 7//92 26//111 18//101
f 26//111 7//92 19//102
f 19//102 12//97 27//93
f 28//93 12//97 14//93
f 29//112 20//105 13//104
f 30//113 14//106 20//105
f 15//98 21//107 23//108
f 21//107 16//99 31//114
f 32//115 22//93 10//95
f 13//104 22//116 29//112
f 32//115 10//95 23//108
f 33//117 16//99 24//109
f 18//101 34//118 25//110
f 34//118 18//101 26//111
f 19//102 35//119 26//111
f 27//93 12//97 28//93
f 36//93 19//102 27//93
f 28//120 14//106 37//121
f 20//105 29//112 38//122
f 30//113 37//121 14//106
f 20//105 38//122 30//113
f 39//123 23//108 21//107
f 33//117 31//114 16//99
f 31//114 40//124 21//107
f 41//93 22//93 32//115
f 42//125 29//112 22//116
f 23//108 43//126 32//115
f 44//127 25//110 34//118
f 34//118 26//111 45//128
f 46//129 26//111 35//119
f 35//119 19//102 36//93
f 27//130 28//120 47//131
f 27//130 47//131 36//132
f 37//121 47//131 28//120
f 48//133 38//122 29//112
f 37//121 30//113 49//134
f 50//135 30//113 38//122
f 23//108 39//123 43//126
f 39//123 21//107 40//124
f 41//136 51//137 22//116
f 52//138 41//93 32//115
f 29//112 42//125 48//133
f 42//125 22//116 51//137
f 52//138 32//115 43//126
f 34//118 45//128 44//127
f 46//129 45//128 26//111
f 35//119 53//139 46//129
f 54//93 35//119 36//93
f 55//140 36//132 47//131
f 47//131 37//121 56//141
f 38//122 48//133 57//93
f 50//135 49//134 30//113
f 49//134 56//141 37//121
f 50//135 38//122 57//93
f 58//142 43//126 39//123
f 40//124 59//143 39//123
f 51//137 41//136 60//144
f 61//93 41//93 52//138
f 62//145 48//133 42//125
f 51//137 63//146 42//125
f 43//126 64//147 52//138
f 65//148 44//127 45//128
f 45//128 46//129 66//149
f 67//150 46//129 53//139
f 35//119 54//93 53//139
f 36//132 55//140 54//151
f 47//131 56//141 55//140
f 48//133 62//145 57//93
f 50//135 57//93 49//134
f 49//134 57//93 56//141
f 58//142 68//152 43//126
f 58//142 39//123 59//143
f 61//153 60//144 41//136
f 60//144 69//154 51//137
f 70//155 61//93 52//138
f 62//145 42//125 63//146
f 63//146 51//137 69//154
f 70//155 52//138 64//147
f 64//147 43//126 68//152
f 45//128 66//149 65//148
f 67//150 66//149 46//129
f 67//150 53//139 71//156
f 53//139 54//93 72//157
f 73//158 54//151 55//140
f 74//159 55//140 56//141
f 62//145 63//146 57//93
f 56//141 57//93 74//159
f 68//152 58//142 75//160
f 59//143 75//160 58//142
f 61//153 76//161 60//144
f 60//144 77//162 69//154
f 76//93 61//93 70//155
f 63//146 69//154 57//93
f 70//155 64//147 72//157
f 68//152 78//163 64//147
f 79//164 65//148 66//149
f 67//150 71//156 66//149
f 72//157 71//156 53//139
f 54//93 80//93 72//157
f 73//158 81//165 54//151
f 55//140 74//159 73//158
f 74//159 57//93 82//166
f 68//152 75//160 78//163
f 77//162 60//144 76//161
f 83//167 69//154 77//162
f 80//93 76//93 70//155
f 57//93 69//154 83//167
f 71//156 72//157 64//147
f 72//157 80//93 70//155
f 71//156 64//147 78//163
f 79//164 66//149 84//168
f 78//163 66//149 71//156
f 80//169 54//151 81//165
f 81//165 73//158 85//170
f 82//166 73//158 74//159
f 57//93 85//170 82//166
f 84//168 78//163 75//160
f 76//161 80//169 77//162
f 77//162 81//165 83//167
f 57//93 83//167 85//170
f 78//163 84//168 66//149
f 81//165 77//162 80//169
f 82//166 85//170 73//158
f 85//170 83//167 81//165
