# SSTK version 0.8.0
# 53
mtllib original-53.mtl
o mesh36/mesh36-geometry#mesh36-geometry
v 0.193261 0.498886 0.449041
v 0.192422 0.500339 0.449041
v 0.190131 0.498048 0.450271
v 0.195322 0.499439 0.445772
v 0.190970 0.501177 0.449041
v 0.193261 0.497209 0.449041
v 0.193931 0.501848 0.445772
v 0.189293 0.501177 0.449041
v 0.192422 0.495757 0.449041
v 0.195611 0.499516 0.441579
v 0.195322 0.496657 0.445772
v 0.191522 0.503239 0.445772
v 0.187840 0.500339 0.449041
v 0.190970 0.494918 0.449041
v 0.194143 0.502059 0.441579
v 0.188740 0.503239 0.445772
v 0.186331 0.501848 0.445772
v 0.187002 0.498886 0.449041
v 0.189293 0.494918 0.449041
v 0.191522 0.492857 0.445772
v 0.193931 0.494248 0.445772
v 0.195332 0.503248 0.441579
v 0.195611 0.496579 0.441579
v 0.191600 0.503528 0.441579
v 0.184941 0.499439 0.445772
v 0.187002 0.497209 0.449041
v 0.187840 0.495757 0.449041
v 0.188740 0.492857 0.445772
v 0.192035 0.505152 0.441579
v 0.197235 0.499951 0.441579
v 0.188663 0.503528 0.441579
v 0.186120 0.502059 0.441579
v 0.184651 0.499516 0.441579
v 0.191600 0.492568 0.441579
v 0.188663 0.492568 0.441579
v 0.194143 0.494036 0.441579
v 0.192257 0.505982 0.440749
v 0.195940 0.503856 0.440749
v 0.197235 0.496144 0.441579
v 0.184941 0.496657 0.445772
v 0.186331 0.494248 0.445772
v 0.195332 0.492847 0.441579
v 0.188228 0.505152 0.441579
v 0.198066 0.500174 0.440749
v 0.184931 0.503248 0.441579
v 0.184651 0.496579 0.441579
v 0.192035 0.490944 0.441579
v 0.186120 0.494036 0.441579
v 0.196133 0.504050 0.439906
v 0.188005 0.505982 0.440749
v 0.198330 0.500245 0.439906
v 0.195940 0.492239 0.440749
v 0.198066 0.495922 0.440749
v 0.183027 0.499951 0.441579
v 0.188228 0.490944 0.441579
v 0.192257 0.490114 0.440749
v 0.192328 0.506247 0.439906
v 0.184323 0.503856 0.440749
v 0.184931 0.492847 0.441579
v 0.192519 0.506959 0.439306
v 0.196655 0.504571 0.439306
v 0.187934 0.506247 0.439906
v 0.198330 0.495851 0.439906
v 0.192328 0.489849 0.439906
v 0.182197 0.500174 0.440749
v 0.183027 0.496144 0.441579
v 0.188005 0.490114 0.440749
v 0.199042 0.500435 0.439306
v 0.184129 0.504050 0.439906
v 0.199042 0.495660 0.439306
v 0.196133 0.492046 0.439906
v 0.187934 0.489849 0.439906
v 0.181932 0.500245 0.439906
v 0.182197 0.495922 0.440749
v 0.184323 0.492239 0.440749
v 0.187744 0.506959 0.439306
v 0.196655 0.491524 0.439306
v 0.192519 0.489137 0.439306
v 0.183608 0.504571 0.439306
v 0.187744 0.489137 0.439306
v 0.181932 0.495851 0.439906
v 0.184129 0.492046 0.439906
v 0.181220 0.500435 0.439306
v 0.181220 0.495660 0.439306
v 0.183608 0.491524 0.439306
vt 0.096584 0.520445
vt 0.091344 0.574872
vt 0.07689 0.489494
vt 0.109555 0.54083
vt 0.08223 0.606422
vt 0.096547 0.457725
vt 0.100863 0.631103
vt 0.071686 0.606641
vt 0.091243 0.403517
vt 0.111374 0.543689
vt 0.109494 0.436802
vt 0.085748 0.683431
vt 0.062536 0.57547
vt 0.082093 0.372347
vt 0.102198 0.638989
vt 0.068259 0.683794
vt 0.053083 0.632095
vt 0.057232 0.521262
vt 0.071549 0.372566
vt 0.08552 0.295193
vt 0.100696 0.346893
vt 0.109699 0.683294
vt 0.111309 0.433868
vt 0.086241 0.694231
vt 0.044286 0.542185
vt 0.057195 0.458542
vt 0.062436 0.404115
vt 0.068031 0.295556
vt 0.089013 0.754909
vt 0.121594 0.559751
vt 0.067779 0.694614
vt 0.051757 0.640036
vt 0.04247 0.54512
vt 0.086001 0.284373
vt 0.067538 0.284756
vt 0.102022 0.338951
vt 0.09043 0.785927
vt 0.113533 0.705943
vt 0.12151 0.417382
vt 0.044225 0.438157
vt 0.052916 0.347885
vt 0.109471 0.294335
vt 0.065078 0.755406
vt 0.126818 0.567961
vt 0.044309 0.684652
vt 0.042406 0.435298
vt 0.088701 0.223581
vt 0.051581 0.339999
vt 0.114756 0.713166
vt 0.063698 0.786482
vt 0.128484 0.57058
vt 0.113278 0.271528
vt 0.126725 0.408954
vt 0.032269 0.561605
vt 0.064766 0.224078
vt 0.090081 0.192505
vt 0.090881 0.795819
vt 0.040501 0.707459
vt 0.04408 0.295693
vt 0.092097 0.822425
vt 0.118045 0.732593
vt 0.063258 0.796393
vt 0.128388 0.406267
vt 0.090522 0.182594
vt 0.027054 0.570033
vt 0.032185 0.419236
vt 0.06335 0.19306
vt 0.132966 0.577623
vt 0.039287 0.714733
vt 0.132861 0.399038
vt 0.114493 0.264254
vt 0.062898 0.183168
vt 0.025391 0.57272
vt 0.026961 0.411026
vt 0.040246 0.273044
vt 0.062074 0.823048
vt 0.117759 0.244691
vt 0.091706 0.155939
vt 0.036021 0.734296
vt 0.061683 0.156562
vt 0.025295 0.408407
vt 0.039023 0.265821
vt 0.020919 0.579949
vt 0.020814 0.401365
vt 0.035734 0.246394
vn 0.6178487285322712 0.16555252181094252 0.7686711333028535
vn 0.4522971055796044 0.4522971055796044 0.7686707075000482
vn 0 0 1
vn 0.917820415405362 0.24592892726778873 0.31164827578224047
vn 0.16555252181094252 0.6178487285322712 0.7686711333028535
vn 0.6178487285322712 -0.16555252181094252 0.7686711333028535
vn 0.6718911550605533 0.6718911550605533 0.3116481212887236
vn -0.16555252181094252 0.6178487285322712 0.7686711333028535
vn 0.4522971055796044 -0.4522971055796044 0.7686707075000482
vn 0.9634744389921679 0.2581618819240803 0.07120005709368753
vn 0.917820415405362 -0.24592892726778873 0.31164827578224047
vn 0.24592892726778873 0.917820415405362 0.31164827578224047
vn -0.4522971055796044 0.4522971055796044 0.7686707075000482
vn 0.16555252181094252 -0.6178487285322712 0.7686711333028535
vn 0.7053121852113818 0.7053121852113818 0.07120001955540975
vn -0.24592892726778873 0.917820415405362 0.31164827578224047
vn -0.6718911550605533 0.6718911550605533 0.3116481212887236
vn -0.6178487285322712 0.16555252181094252 0.7686711333028535
vn -0.16555252181094252 -0.6178487285322712 0.7686711333028535
vn 0.24592892726778873 -0.917820415405362 0.31164827578224047
vn 0.6718911550605533 -0.6718911550605533 0.3116481212887236
vn 0.3585335044940177 0.3585335044940177 0.8619207923646327
vn 0.9634744389921679 -0.2581618819240803 0.07120005709368753
vn 0.2581618819240803 0.9634744389921679 0.07120005709368753
vn -0.917820415405362 0.24592892726778873 0.31164827578224047
vn -0.6178487285322712 -0.16555252181094252 0.7686711333028535
vn -0.4522971055796044 -0.4522971055796044 0.7686707075000482
vn -0.24592892726778873 -0.917820415405362 0.31164827578224047
vn 0.13123213635503728 0.48976569766780814 0.8619209289579052
vn 0.48976569766780814 0.13123213635503728 0.8619209289579052
vn -0.2581618819240803 0.9634744389921679 0.07120005709368753
vn -0.7053121852113818 0.7053121852113818 0.07120001955540975
vn -0.9634744389921679 0.2581618819240803 0.07120005709368753
vn 0.2581618819240803 -0.9634744389921679 0.07120005709368753
vn -0.2581618819240803 -0.9634744389921679 0.07120005709368753
vn 0.7053121852113818 -0.7053121852113818 0.07120001955540975
vn 0.22086632734633832 0.8242827240571983 0.5213214519520414
vn 0.6034167732718811 0.6034167732718811 0.5213217772818458
vn 0.48976569766780814 -0.13123213635503728 0.8619209289579052
vn -0.917820415405362 -0.24592892726778873 0.31164827578224047
vn -0.6718911550605533 -0.6718911550605533 0.3116481212887236
vn 0.3585335044940177 -0.3585335044940177 0.8619207923646327
vn -0.13123213635503728 0.48976569766780814 0.8619209289579052
vn 0.8242827240571983 0.22086632734633832 0.5213214519520414
vn -0.3585335044940177 0.3585335044940177 0.8619207923646327
vn -0.9634744389921679 -0.2581618819240803 0.07120005709368753
vn 0.13123213635503728 -0.48976569766780814 0.8619209289579052
vn -0.7053121852113818 -0.7053121852113818 0.07120001955540975
vn 0.5888861685775203 0.5888861685775203 0.5535577304276191
vn -0.22086632734633832 0.8242827240571983 0.5213214519520414
vn 0.8044333892631316 0.21554696317860877 0.5535579724862706
vn 0.6034167732718811 -0.6034167732718811 0.5213217772818458
vn 0.8242827240571983 -0.22086632734633832 0.5213214519520414
vn -0.48976569766780814 0.13123213635503728 0.8619209289579052
vn -0.13123213635503728 -0.48976569766780814 0.8619209289579052
vn 0.22086632734633832 -0.8242827240571983 0.5213214519520414
vn 0.21554696317860877 0.8044333892631316 0.5535579724862706
vn -0.6034167732718811 0.6034167732718811 0.5213217772818458
vn -0.3585335044940177 -0.3585335044940177 0.8619207923646327
vn 0.16344528698411828 0.6099854869566839 0.775373035296493
vn 0.4465402794013771 0.4465402794013771 0.7753731732167938
vn -0.21554696317860877 0.8044333892631316 0.5535579724862706
vn 0.8044333892631316 -0.21554696317860877 0.5535579724862706
vn 0.21554696317860877 -0.8044333892631316 0.5535579724862706
vn -0.8242827240571983 0.22086632734633832 0.5213214519520414
vn -0.48976569766780814 -0.13123213635503728 0.8619209289579052
vn -0.22086632734633832 -0.8242827240571983 0.5213214519520414
vn 0.6099854869566839 0.16344528698411828 0.775373035296493
vn -0.5888861685775203 0.5888861685775203 0.5535577304276191
vn 0.6099854869566839 -0.16344528698411828 0.775373035296493
vn 0.5888861685775203 -0.5888861685775203 0.5535577304276191
vn -0.21554696317860877 -0.8044333892631316 0.5535579724862706
vn -0.8044333892631316 0.21554696317860877 0.5535579724862706
vn -0.8242827240571983 -0.22086632734633832 0.5213214519520414
vn -0.6034167732718811 -0.6034167732718811 0.5213217772818458
vn -0.16344528698411828 0.6099854869566839 0.775373035296493
vn 0.4465402794013771 -0.4465402794013771 0.7753731732167938
vn 0.16344528698411828 -0.6099854869566839 0.775373035296493
vn -0.4465402794013771 0.4465402794013771 0.7753731732167938
vn -0.16344528698411828 -0.6099854869566839 0.775373035296493
vn -0.8044333892631316 -0.21554696317860877 0.5535579724862706
vn -0.5888861685775203 -0.5888861685775203 0.5535577304276191
vn -0.6099854869566839 0.16344528698411828 0.775373035296493
vn -0.6099854869566839 -0.16344528698411828 0.775373035296493
vn -0.4465402794013771 -0.4465402794013771 0.7753731732167938
vn 0 0 -1
vn -0.4522971055796044 -0.4522971055796044 -0.7686707075000482
vn -0.6178487285322712 -0.16555252181094252 -0.7686711333028535
vn -0.917820415405362 -0.24592892726778873 -0.31164827578224047
vn -0.16555252181094252 -0.6178487285322712 -0.7686711333028535
vn -0.6178487285322712 0.16555252181094252 -0.7686711333028535
vn -0.6718911550605533 -0.6718911550605533 -0.3116481212887236
vn 0.16555252181094252 -0.6178487285322712 -0.7686711333028535
vn -0.4522971055796044 0.4522971055796044 -0.7686707075000482
vn -0.9634744389921679 -0.2581618819240803 -0.07120005709368753
vn -0.917820415405362 0.24592892726778873 -0.31164827578224047
vn -0.24592892726778873 -0.917820415405362 -0.31164827578224047
vn 0.4522971055796044 -0.4522971055796044 -0.7686707075000482
vn -0.16555252181094252 0.6178487285322712 -0.7686711333028535
vn -0.7053121852113818 -0.7053121852113818 -0.07120001955540975
vn 0.24592892726778873 -0.917820415405362 -0.31164827578224047
vn 0.6718911550605533 -0.6718911550605533 -0.3116481212887236
vn 0.6178487285322712 -0.16555252181094252 -0.7686711333028535
vn 0.16555252181094252 0.6178487285322712 -0.7686711333028535
vn -0.24592892726778873 0.917820415405362 -0.31164827578224047
vn -0.6718911550605533 0.6718911550605533 -0.3116481212887236
vn -0.3585335044940177 -0.3585335044940177 -0.8619207923646327
vn -0.9634744389921679 0.2581618819240803 -0.07120005709368753
vn -0.2581618819240803 -0.9634744389921679 -0.07120005709368753
vn 0.917820415405362 -0.24592892726778873 -0.31164827578224047
vn 0.6178487285322712 0.16555252181094252 -0.7686711333028535
vn 0.4522971055796044 0.4522971055796044 -0.7686707075000482
vn 0.24592892726778873 0.917820415405362 -0.31164827578224047
vn -0.13123213635503728 -0.48976569766780814 -0.8619209289579052
vn -0.48976569766780814 -0.13123213635503728 -0.8619209289579052
vn 0.2581618819240803 -0.9634744389921679 -0.07120005709368753
vn 0.7053121852113818 -0.7053121852113818 -0.07120001955540975
vn 0.9634744389921679 -0.2581618819240803 -0.07120005709368753
vn -0.2581618819240803 0.9634744389921679 -0.07120005709368753
vn 0.2581618819240803 0.9634744389921679 -0.07120005709368753
vn -0.7053121852113818 0.7053121852113818 -0.07120001955540975
vn -0.22086632734633832 -0.8242827240571983 -0.5213214519520414
vn -0.6034167732718811 -0.6034167732718811 -0.5213217772818458
vn -0.48976569766780814 0.13123213635503728 -0.8619209289579052
vn 0.917820415405362 0.24592892726778873 -0.31164827578224047
vn 0.6718911550605533 0.6718911550605533 -0.3116481212887236
vn -0.3585335044940177 0.3585335044940177 -0.8619207923646327
vn 0.13123213635503728 -0.48976569766780814 -0.8619209289579052
vn -0.8242827240571983 -0.22086632734633832 -0.5213214519520414
vn 0.3585335044940177 -0.3585335044940177 -0.8619207923646327
vn 0.9634744389921679 0.2581618819240803 -0.07120005709368753
vn -0.13123213635503728 0.48976569766780814 -0.8619209289579052
vn 0.7053121852113818 0.7053121852113818 -0.07120001955540975
vn -0.5888861685775203 -0.5888861685775203 -0.5535577304276191
vn 0.22086632734633832 -0.8242827240571983 -0.5213214519520414
vn -0.8044333892631316 -0.21554696317860877 -0.5535579724862706
vn -0.6034167732718811 0.6034167732718811 -0.5213217772818458
vn -0.8242827240571983 0.22086632734633832 -0.5213214519520414
vn 0.48976569766780814 -0.13123213635503728 -0.8619209289579052
vn 0.13123213635503728 0.48976569766780814 -0.8619209289579052
vn -0.22086632734633832 0.8242827240571983 -0.5213214519520414
vn -0.21554696317860877 -0.8044333892631316 -0.5535579724862706
vn 0.6034167732718811 -0.6034167732718811 -0.5213217772818458
vn 0.3585335044940177 0.3585335044940177 -0.8619207923646327
vn -0.16344528698411828 -0.6099854869566839 -0.775373035296493
vn -0.4465402794013771 -0.4465402794013771 -0.7753731732167938
vn 0.21554696317860877 -0.8044333892631316 -0.5535579724862706
vn -0.8044333892631316 0.21554696317860877 -0.5535579724862706
vn -0.21554696317860877 0.8044333892631316 -0.5535579724862706
vn 0.8242827240571983 -0.22086632734633832 -0.5213214519520414
vn 0.48976569766780814 0.13123213635503728 -0.8619209289579052
vn 0.22086632734633832 0.8242827240571983 -0.5213214519520414
vn -0.6099854869566839 -0.16344528698411828 -0.775373035296493
vn 0.5888861685775203 -0.5888861685775203 -0.5535577304276191
vn -0.6099854869566839 0.16344528698411828 -0.775373035296493
vn -0.5888861685775203 0.5888861685775203 -0.5535577304276191
vn 0.21554696317860877 0.8044333892631316 -0.5535579724862706
vn 0.8044333892631316 -0.21554696317860877 -0.5535579724862706
vn 0.8242827240571983 0.22086632734633832 -0.5213214519520414
vn 0.6034167732718811 0.6034167732718811 -0.5213217772818458
vn 0.16344528698411828 -0.6099854869566839 -0.775373035296493
vn -0.4465402794013771 0.4465402794013771 -0.7753731732167938
vn -0.16344528698411828 0.6099854869566839 -0.775373035296493
vn 0.4465402794013771 -0.4465402794013771 -0.7753731732167938
vn 0.16344528698411828 0.6099854869566839 -0.775373035296493
vn 0.8044333892631316 0.21554696317860877 -0.5535579724862706
vn 0.5888861685775203 0.5888861685775203 -0.5535577304276191
vn 0.6099854869566839 -0.16344528698411828 -0.775373035296493
vn 0.6099854869566839 0.16344528698411828 -0.775373035296493
vn 0.4465402794013771 0.4465402794013771 -0.7753731732167938
usemtl material_0_0
f 1/1/1 2/2/2 3/3/3
f 4/4/4 2/2/2 1/1/1
f 2/2/2 5/5/5 3/3/3
f 1/1/1 3/3/3 6/6/6
f 2/2/2 4/4/4 7/7/7
f 6/6/6 4/4/4 1/1/1
f 7/7/7 5/5/5 2/2/2
f 5/5/5 8/8/8 3/3/3
f 6/6/6 3/3/3 9/9/9
f 10/10/10 7/7/7 4/4/4
f 4/4/4 6/6/6 11/11/11
f 5/5/5 7/7/7 12/12/12
f 12/12/12 8/8/8 5/5/5
f 3/3/3 8/8/8 13/13/13
f 9/9/9 3/3/3 14/14/14
f 9/9/9 11/11/11 6/6/6
f 7/7/7 10/10/10 15/15/15
f 11/11/11 10/10/10 4/4/4
f 15/15/15 12/12/12 7/7/7
f 8/8/8 12/12/12 16/16/16
f 8/8/8 17/17/17 13/13/13
f 3/3/3 13/13/13 18/18/18
f 14/14/14 3/3/3 19/19/19
f 20/20/20 9/9/9 14/14/14
f 11/11/11 9/9/9 21/21/21
f 22/22/22 15/15/3 10/10/3
f 10/10/10 11/11/11 23/23/23
f 12/12/12 15/15/15 24/24/24
f 24/24/24 16/16/16 12/12/12
f 17/17/17 8/8/8 16/16/16
f 25/25/25 13/13/13 17/17/17
f 13/13/13 25/25/25 18/18/18
f 3/3/3 18/18/18 26/26/26
f 3/3/3 27/27/27 19/19/19
f 28/28/28 14/14/14 19/19/19
f 9/9/9 20/20/20 21/21/21
f 14/14/14 28/28/28 20/20/20
f 21/21/21 23/23/23 11/11/11
f 29/29/29 15/15/3 22/22/22
f 22/22/22 10/10/3 30/30/30
f 30/30/30 10/10/3 23/23/3
f 29/29/29 24/24/3 15/15/3
f 16/16/16 24/24/24 31/31/31
f 16/16/16 32/32/32 17/17/17
f 17/17/17 33/33/33 25/25/25
f 25/25/25 26/26/26 18/18/18
f 3/3/3 26/26/26 27/27/27
f 27/27/27 28/28/28 19/19/19
f 34/34/34 21/21/21 20/20/20
f 35/35/35 20/20/20 28/28/28
f 23/23/23 21/21/21 36/36/36
f 22/22/22 37/37/37 29/29/29
f 30/30/30 38/38/38 22/22/22
f 23/23/3 39/39/39 30/30/30
f 29/29/29 31/31/3 24/24/3
f 32/32/32 16/16/16 31/31/31
f 33/33/33 17/17/17 32/32/32
f 33/33/33 40/40/40 25/25/25
f 26/26/26 25/25/25 40/40/40
f 40/40/40 27/27/27 26/26/26
f 28/28/28 27/27/27 41/41/41
f 21/21/21 34/34/34 36/36/36
f 20/20/20 35/35/35 34/34/34
f 41/41/41 35/35/35 28/28/28
f 36/36/3 42/42/42 23/23/3
f 37/37/37 22/22/22 38/38/38
f 37/37/37 43/43/43 29/29/29
f 38/38/38 30/30/30 44/44/44
f 23/23/3 42/42/42 39/39/39
f 39/39/39 44/44/44 30/30/30
f 43/43/43 31/31/3 29/29/29
f 43/43/43 32/32/3 31/31/3
f 45/45/45 33/33/3 32/32/3
f 40/40/40 33/33/33 46/46/46
f 27/27/27 40/40/40 41/41/41
f 34/34/3 47/47/47 36/36/3
f 35/35/3 47/47/47 34/34/3
f 35/35/35 41/41/41 48/48/48
f 36/36/3 47/47/47 42/42/42
f 49/49/49 37/37/37 38/38/38
f 43/43/43 37/37/37 50/50/50
f 51/51/51 38/38/38 44/44/44
f 52/52/52 39/39/39 42/42/42
f 44/44/44 39/39/39 53/53/53
f 45/45/45 32/32/3 43/43/43
f 33/33/3 45/45/45 54/54/54
f 54/54/54 46/46/3 33/33/3
f 46/46/46 41/41/41 40/40/40
f 35/35/3 55/55/55 47/47/47
f 41/41/41 46/46/46 48/48/48
f 48/48/3 55/55/55 35/35/3
f 56/56/56 42/42/42 47/47/47
f 37/37/37 49/49/49 57/57/57
f 38/38/38 51/51/51 49/49/49
f 57/57/57 50/50/50 37/37/37
f 50/50/50 45/45/45 43/43/43
f 53/53/53 51/51/51 44/44/44
f 39/39/39 52/52/52 53/53/53
f 42/42/42 56/56/56 52/52/52
f 58/58/58 54/54/54 45/45/45
f 54/54/54 59/59/59 46/46/3
f 55/55/55 56/56/56 47/47/47
f 46/46/3 59/59/59 48/48/3
f 48/48/3 59/59/59 55/55/55
f 49/49/49 60/60/60 57/57/57
f 51/51/51 61/61/61 49/49/49
f 50/50/50 57/57/57 62/62/62
f 45/45/45 50/50/50 58/58/58
f 51/51/51 53/53/53 63/63/63
f 52/52/52 63/63/63 53/53/53
f 64/64/64 52/52/52 56/56/56
f 54/54/54 58/58/58 65/65/65
f 59/59/59 54/54/54 66/66/66
f 56/56/56 55/55/55 67/67/67
f 59/59/59 67/67/67 55/55/55
f 60/60/60 49/49/49 61/61/61
f 60/60/60 62/62/62 57/57/57
f 61/61/61 51/51/51 68/68/68
f 69/69/69 50/50/50 62/62/62
f 50/50/50 69/69/69 58/58/58
f 70/70/70 51/51/51 63/63/63
f 63/63/63 52/52/52 71/71/71
f 52/52/52 64/64/64 71/71/71
f 56/56/56 72/72/72 64/64/64
f 58/58/58 73/73/73 65/65/65
f 74/74/74 54/54/54 65/65/65
f 54/54/54 74/74/74 66/66/66
f 66/66/66 75/75/75 59/59/59
f 72/72/72 56/56/56 67/67/67
f 67/67/67 59/59/59 75/75/75
f 62/62/62 60/60/60 76/76/76
f 51/51/51 70/70/70 68/68/68
f 76/76/76 69/69/69 62/62/62
f 73/73/73 58/58/58 69/69/69
f 63/63/63 77/77/77 70/70/70
f 77/77/77 63/63/63 71/71/71
f 78/78/78 71/71/71 64/64/64
f 72/72/72 78/78/78 64/64/64
f 73/73/73 74/74/74 65/65/65
f 75/75/75 66/66/66 74/74/74
f 75/75/75 72/72/72 67/67/67
f 69/69/69 76/76/76 79/79/79
f 79/79/79 73/73/73 69/69/69
f 71/71/71 78/78/78 77/77/77
f 78/78/78 72/72/72 80/80/80
f 74/74/74 73/73/73 81/81/81
f 81/81/81 75/75/75 74/74/74
f 72/72/72 75/75/75 82/82/82
f 73/73/73 79/79/79 83/83/83
f 82/82/82 80/80/80 72/72/72
f 73/73/73 84/84/84 81/81/81
f 75/75/75 81/81/81 82/82/82
f 84/84/84 73/73/73 83/83/83
f 80/80/80 82/82/82 85/85/85
f 85/85/85 81/81/81 84/84/84
f 81/81/81 85/85/85 82/82/82
usemtl material_1_0
f 3//86 2//87 1//88
f 1//88 2//87 4//89
f 3//86 5//90 2//87
f 6//91 3//86 1//88
f 7//92 4//89 2//87
f 1//88 4//89 6//91
f 2//87 5//90 7//92
f 3//86 8//93 5//90
f 9//94 3//86 6//91
f 4//89 7//92 10//95
f 11//96 6//91 4//89
f 12//97 7//92 5//90
f 5//90 8//93 12//97
f 13//98 8//93 3//86
f 14//99 3//86 9//94
f 6//91 11//96 9//94
f 15//100 10//95 7//92
f 4//89 10//95 11//96
f 7//92 12//97 15//100
f 16//101 12//97 8//93
f 13//98 17//102 8//93
f 18//103 13//98 3//86
f 19//104 3//86 14//99
f 14//99 9//94 20//105
f 21//106 9//94 11//96
f 10//86 15//86 22//107
f 23//108 11//96 10//95
f 24//109 15//100 12//97
f 12//97 16//101 24//109
f 16//101 8//93 17//102
f 17//102 13//98 25//110
f 18//103 25//110 13//98
f 26//111 18//103 3//86
f 19//104 27//112 3//86
f 19//104 14//99 28//113
f 21//106 20//105 9//94
f 20//105 28//113 14//99
f 11//96 23//108 21//106
f 22//107 15//86 29//114
f 30//115 10//86 22//107
f 23//86 10//86 30//115
f 15//86 24//86 29//114
f 31//116 24//109 16//101
f 17//102 32//117 16//101
f 25//110 33//118 17//102
f 18//103 26//111 25//110
f 27//112 26//111 3//86
f 19//104 28//113 27//112
f 20//105 21//106 34//119
f 28//113 20//105 35//120
f 36//121 21//106 23//108
f 29//114 37//122 22//107
f 22//107 38//123 30//115
f 30//115 39//124 23//86
f 24//86 31//86 29//114
f 31//116 16//101 32//117
f 32//117 17//102 33//118
f 25//110 40//125 33//118
f 40//125 25//110 26//111
f 26//111 27//112 40//125
f 41//126 27//112 28//113
f 36//121 34//119 21//106
f 34//119 35//120 20//105
f 28//113 35//120 41//126
f 23//86 42//127 36//86
f 38//123 22//107 37//122
f 29//114 43//128 37//122
f 44//129 30//115 38//123
f 39//124 42//127 23//86
f 30//115 44//129 39//124
f 29//114 31//86 43//128
f 31//86 32//86 43//128
f 32//86 33//86 45//130
f 46//131 33//118 40//125
f 41//126 40//125 27//112
f 36//86 47//132 34//86
f 34//86 47//132 35//86
f 48//133 41//126 35//120
f 42//127 47//132 36//86
f 38//123 37//122 49//134
f 50//135 37//122 43//128
f 44//129 38//123 51//136
f 42//127 39//124 52//137
f 53//138 39//124 44//129
f 43//128 32//86 45//130
f 54//139 45//130 33//86
f 33//86 46//86 54//139
f 40//125 41//126 46//131
f 47//132 55//140 35//86
f 48//133 46//131 41//126
f 35//86 55//140 48//86
f 47//132 42//127 56//141
f 57//142 49//134 37//122
f 49//134 51//136 38//123
f 37//122 50//135 57//142
f 43//128 45//130 50//135
f 44//129 51//136 53//138
f 53//138 52//137 39//124
f 52//137 56//141 42//127
f 45//130 54//139 58//143
f 46//86 59//144 54//139
f 47//132 56//141 55//140
f 48//86 59//144 46//86
f 55//140 59//144 48//86
f 57//142 60//145 49//134
f 49//134 61//146 51//136
f 62//147 57//142 50//135
f 58//143 50//135 45//130
f 63//148 53//138 51//136
f 53//138 63//148 52//137
f 56//141 52//137 64//149
f 65//150 58//143 54//139
f 66//151 54//139 59//144
f 67//152 55//140 56//141
f 55//140 67//152 59//144
f 61//146 49//134 60//145
f 57//142 62//147 60//145
f 68//153 51//136 61//146
f 62//147 50//135 69//154
f 58//143 69//154 50//135
f 63//148 51//136 70//155
f 71//156 52//137 63//148
f 71//156 64//149 52//137
f 64//149 72//157 56//141
f 65//150 73//158 58//143
f 65//150 54//139 74//159
f 66//151 74//159 54//139
f 59//144 75//160 66//151
f 67//152 56//141 72//157
f 75//160 59//144 67//152
f 76//161 60//145 62//147
f 68//153 70//155 51//136
f 62//147 69//154 76//161
f 69//154 58//143 73//158
f 70//155 77//162 63//148
f 71//156 63//148 77//162
f 64//149 71//156 78//163
f 64//149 78//163 72//157
f 65//150 74//159 73//158
f 74//159 66//151 75//160
f 67//152 72//157 75//160
f 79//164 76//161 69//154
f 69//154 73//158 79//164
f 77//162 78//163 71//156
f 80//165 72//157 78//163
f 81//166 73//158 74//159
f 74//159 75//160 81//166
f 82//167 75//160 72//157
f 83//168 79//164 73//158
f 72//157 80//165 82//167
f 81//166 84//169 73//158
f 82//167 81//166 75//160
f 83//168 73//158 84//169
f 85//170 82//167 80//165
f 84//169 81//166 85//170
f 82//167 85//170 81//166
