# SSTK version 0.8.0
# 18
mtllib original-18.mtl
o CS_3_1/CS_3/mesh13/mesh13-geometry#mesh13-geometry
v 0.038710 -0.459916 0.378414
v 0.038710 0.277165 0.405380
v 0.038710 -0.459916 0.405380
v 0.038710 0.277165 0.378414
v -0.069156 -0.459916 0.405380
v -0.069156 0.277165 0.378414
v -0.069156 0.277165 0.405380
v -0.069156 -0.459916 0.378414
vt 0.015625 0
vt 0 0.442708
vt 0 0
vt 0.015625 0.442708
vt 0.0625 0.442708
vt 0.0625 0
vt -0.015625 0.442708
vt -0.015625 0
vt -1.032422 0.024947
vt -0.969922 0.467655
vt -1.032422 0.467655
vt -0.969922 0.024947
vn 1 0 0
vn 0 0 1
vn -1 0 0
vn 0 0 -1
usemtl material_0_0
f 1/1/1 2/2/1 3/3/1
f 2/2/1 1/1/1 4/4/1
f 2/5/2 5/3/2 3/6/2
f 5/3/2 2/5/2 7/2/2
f 6/7/3 5/3/3 7/2/3
f 5/3/3 6/7/3 8/8/3
usemtl material_1_0
f 3//3 2//3 1//3
f 4//3 1//3 2//3
f 3//4 5//4 2//4
f 4//2 6//2 1//2
f 7//4 2//4 5//4
f 8//2 1//2 6//2
f 7//1 5//1 6//1
f 8//1 6//1 5//1
usemtl material_2_0
f 1/9/4 6/10/4 4/11/4
f 6/10/4 1/9/4 8/12/4
