# SSTK version 0.8.0
# 24
mtllib original-24.mtl
o CVS2_1/CVS2/mesh18/mesh18-geometry#mesh18-geometry
v 0.038710 0.510873 0.405380
v -0.069156 0.331097 0.405380
v 0.038710 0.331097 0.405380
v -0.069156 0.510873 0.405380
v 0.038710 0.331097 0.378414
v -0.069156 0.510873 0.378414
v 0.038710 0.510873 0.378414
v -0.069156 0.331097 0.378414
vt 0.0625 0.088542
vt 0 0
vt 0.0625 0
vt 0 0.088542
vt 0.015625 0
vt -0.015625 0.088542
vt 0.015625 0.088542
vt -0.015625 0
vt 1.923363 0.498905
vt 1.967344 0.587447
vt 1.923363 0.587447
vt 1.967344 0.498905
vn 0 0 1
vn 1 0 0
vn -1 0 0
vn 0 0 -1
usemtl material_0_0
f 1/1/1 2/2/1 3/3/1
f 2/2/1 1/1/1 4/4/1
f 5/5/2 1/4/2 3/2/2
f 6/6/3 2/2/3 4/4/3
f 1/4/2 5/5/2 7/7/2
f 2/2/3 6/6/3 8/8/3
usemtl material_1_0
f 3//4 2//4 1//4
f 4//4 1//4 2//4
f 3//3 1//3 5//3
f 4//2 2//2 6//2
f 7//3 5//3 1//3
f 8//2 6//2 2//2
f 7//1 6//1 5//1
f 8//1 5//1 6//1
usemtl material_2_0
f 5/9/4 6/10/4 7/11/4
f 6/10/4 5/9/4 8/12/4
