# SSTK version 0.8.0
# 2
mtllib original-2.mtl
o S1_4_1/S1_4/mesh1/mesh1-geometry#mesh1-geometry
v 0.658936 -0.077893 0.378414
v -0.689382 -0.077893 -0.417094
v -0.689382 -0.077893 0.378414
v 0.658936 -0.077893 -0.417094
v -0.689382 -0.104859 0.378414
v 0.658936 -0.104859 0.378414
v 0.658936 -0.104859 -0.417094
v -0.689382 -0.104859 -0.417094
vt -1.433555 -0.957049
vt -1.894492 -0.363299
vt -1.433555 -0.363299
vt -1.894492 -0.957049
vt -1.44918 -0.363299
vt -1.44918 -0.957049
vt -1.910117 -0.957049
vt -1.910117 -0.363299
vn 0 1 0
vn 0 0 1
vn 0 -1 0
vn 0 0 -1
usemtl material_0_0
f 1/1/1 2/2/1 3/3/1
f 2/2/1 1/1/1 4/4/1
f 5/5/2 1/1/2 3/3/2
f 1/1/2 5/5/2 6/6/2
f 5/5/3 7/7/3 6/6/3
f 7/7/3 5/5/3 8/8/3
usemtl material_1_0
f 3//3 2//3 1//3
f 4//3 1//3 2//3
f 3//4 1//4 5//4
f 6//4 5//4 1//4
f 6//1 7//1 5//1
f 8//1 5//1 7//1
