# SSTK version 0.8.0
# 40
mtllib original-40.mtl
o DF_11_BL1/DF_11_BL/mesh27/mesh27-geometry#mesh27-geometry
v 0.128776 0.406401 0.431055
v 0.128776 0.400558 0.428229
v 0.128776 0.400558 0.431055
v 0.128776 0.406401 0.428229
v 0.137586 0.400558 0.428229
v 0.129100 0.406401 0.431458
v 0.128128 0.399913 0.426856
v 0.137586 0.400558 0.431055
v 0.137586 0.399913 0.426856
v 0.129100 0.400881 0.431458
v 0.128128 0.406401 0.426856
v 0.129748 0.401527 0.432023
v 0.127156 0.398944 0.425564
v 0.137586 0.398944 0.425564
v 0.137586 0.400881 0.431458
v 0.129748 0.406401 0.432023
v 0.137586 0.401527 0.432023
v 0.127156 0.406401 0.425564
v 0.130963 0.402738 0.432346
v 0.137586 0.402738 0.432346
v 0.125780 0.406401 0.424757
v 0.125780 0.397571 0.424757
v 0.130963 0.406401 0.432346
v 0.137586 0.397571 0.424757
v 0.137586 0.406401 0.432346
v 0.118652 0.406401 0.424111
v 0.118652 0.390466 0.424111
v 0.137586 0.390466 0.424111
v 0.103912 0.406401 0.418782
v 0.137586 0.375772 0.418782
v 0.103912 0.375772 0.418782
v 0.099538 0.406401 0.418479
v 0.137586 0.371412 0.418479
v 0.099538 0.371412 0.418479
v 0.099457 0.406401 0.423062
v 0.137586 0.371331 0.423062
v 0.099457 0.371331 0.423062
v 0.098485 0.406401 0.425887
v 0.137586 0.370363 0.425887
v 0.098485 0.370363 0.425887
v 0.096703 0.406401 0.428148
v 0.137586 0.368586 0.428148
v 0.096703 0.368586 0.428148
v 0.095488 0.406401 0.429036
v 0.137586 0.367375 0.429036
v 0.095488 0.367375 0.429036
v 0.092816 0.406401 0.430086
v 0.137586 0.364711 0.430086
v 0.092816 0.364711 0.430086
v 0.092816 0.406401 0.432346
v 0.137586 0.364711 0.432346
v 0.092816 0.364711 0.432346
v 0.030775 0.406401 0.432346
v 0.137586 0.323131 0.432346
v 0.030775 0.323131 0.432346
v 0.092816 0.323131 0.432346
v 0.030370 0.406401 0.432266
v 0.137586 0.322727 0.432266
v 0.030370 0.322727 0.432266
v 0.093221 0.322727 0.432266
v 0.030208 0.406401 0.432185
v 0.137586 0.322566 0.432185
v 0.030208 0.322566 0.432185
v 0.093383 0.322566 0.432185
v 0.029803 0.406401 0.431781
v 0.093787 0.322162 0.431781
v 0.029803 0.322162 0.431781
v 0.137586 0.322162 0.431781
v 0.029722 0.322081 0.431539
v 0.093868 0.322081 0.431539
v 0.029722 0.406401 0.431539
v 0.137586 0.322081 0.431539
v 0.029641 0.322001 0.431135
v 0.093949 0.322001 0.431135
v 0.029641 0.406401 0.431135
v 0.137586 0.322001 0.431135
v 0.029641 0.322001 0.428955
v 0.093949 0.322001 0.428955
v 0.137586 0.322001 0.428955
v 0.029641 0.406401 0.428955
v 0.027860 0.406401 0.428552
v 0.027860 0.320225 0.428552
v 0.137586 0.320225 0.428552
v 0.095731 0.320225 0.428552
v 0.024539 0.406401 0.426856
v 0.024539 0.316914 0.426856
v 0.137586 0.316914 0.426856
v 0.099052 0.316914 0.426856
v 0.022109 0.314492 0.424111
v 0.101482 0.314492 0.424111
v 0.022109 0.406401 0.424111
v 0.137586 0.314492 0.424111
v 0.021299 0.313685 0.422496
v 0.102292 0.313685 0.422496
v 0.021299 0.406401 0.422496
v 0.137586 0.313685 0.422496
v 0.020732 0.313120 0.420639
v 0.102859 0.313120 0.420639
v 0.020732 0.406401 0.420639
v 0.137586 0.313120 0.420639
v 0.020732 0.313120 0.408044
v 0.102859 0.313120 0.408044
v 0.137586 0.313120 0.408044
v 0.020732 0.406401 0.408044
v 0.021218 0.313604 0.406833
v 0.137586 0.313604 0.406833
v 0.021218 0.406401 0.406833
v 0.102373 0.313604 0.406833
v 0.021623 0.314008 0.406349
v 0.137586 0.314008 0.406349
v 0.021623 0.406401 0.406349
v 0.101968 0.314008 0.406349
v 0.022109 0.314492 0.405945
v 0.101482 0.314492 0.405945
v 0.022109 0.406401 0.405945
v 0.137586 0.314492 0.405945
v 0.023405 0.315784 0.405380
v 0.137586 0.315784 0.405380
v 0.023405 0.406401 0.405380
v 0.100186 0.315784 0.405380
v 0.100186 0.406401 0.405380
v 0.137586 0.406401 0.405380
vt 1.251559 -0.210853
vt 1.254944 -0.210853
vt 1.254944 -0.205749
vt 1.251559 -0.210666
vt 1.255319 -0.211229
vt 1.255319 -0.205749
vt 1.254757 -0.210666
vt 1.251559 -0.211229
vt 1.254383 -0.21029
vt 1.25588 -0.211792
vt 1.25588 -0.205749
vt 1.254757 -0.205749
vt 1.251559 -0.21029
vt 1.254383 -0.205749
vt 1.251559 -0.211792
vt 1.253681 -0.209586
vt 1.253681 -0.205749
vt 1.251559 -0.21259
vt 1.256675 -0.21259
vt 1.251559 -0.209586
vt 1.256675 -0.205749
vt 1.251559 -0.205749
vt 1.251559 -0.21672
vt 1.260792 -0.21672
vt 1.260792 -0.205749
vt 1.251559 -0.225261
vt 1.269306 -0.205749
vt 1.269306 -0.225261
vt 1.251559 -0.227795
vt 1.271833 -0.205749
vt 1.271833 -0.227795
vt 1.619191 0.054049
vt 1.619238 0.033776
vt 1.619238 0.054049
vt 1.271879 -0.205749
vt 1.619191 0.033729
vt 1.271879 -0.227842
vt 1.618628 0.054049
vt 1.272441 -0.205749
vt 1.618628 0.033168
vt 1.272441 -0.228405
vt 1.617596 0.054049
vt 1.27347 -0.205749
vt 1.617596 0.032138
vt 1.27347 -0.229437
vt 1.616892 0.054049
vt 1.274172 -0.205749
vt 1.616892 0.031437
vt 1.274172 -0.230141
vt 1.615343 0.054049
vt 1.275715 -0.205749
vt 1.615343 0.029893
vt 1.275715 -0.23169
vt 1.579395 0.054049
vt 1.299808 -0.205749
vt 1.579395 0.005801
vt 1.299808 -0.23169
vt 1.615343 0.005801
vt 1.579161 0.054049
vt 1.300042 -0.205749
vt 1.579161 0.005567
vt 1.300042 -0.231455
vt 1.615578 0.005567
vt 1.579067 0.054049
vt 1.300135 -0.205749
vt 1.579067 0.005473
vt 1.300135 -0.231361
vt 1.615671 0.005473
vt 1.578832 0.054049
vt 1.300369 -0.231127
vt 1.615906 0.005239
vt 1.578832 0.005239
vt 1.300369 -0.205749
vt 1.578785 0.005192
vt 1.300416 -0.23108
vt 1.615953 0.005192
vt 1.578785 0.054049
vt 1.300416 -0.205749
vt 1.578738 0.005146
vt 1.616 0.005146
vt 1.300463 -0.231033
vt 1.578738 0.054049
vt 1.300463 -0.205749
vt 1.577706 0.054049
vt 1.577706 0.004116
vt 1.301492 -0.205749
vt 1.617032 0.004116
vt 1.301492 -0.23
vt 1.575782 0.054049
vt 1.575782 0.002198
vt 1.30341 -0.205749
vt 1.618956 0.002198
vt 1.30341 -0.228076
vt 1.574374 0.000795
vt 1.620364 0.000795
vt 1.304813 -0.226669
vt 1.574374 0.054049
vt 1.304813 -0.205749
vt 1.573905 0.000327
vt 1.620834 0.000327
vt 1.305281 -0.226199
vt 1.573905 0.054049
vt 1.305281 -0.205749
vt 1.573576 0
vt 1.621162 0
vt 1.305609 -0.225871
vt 1.573576 0.054049
vt 1.305609 -0.205749
vt 1.573858 0.00028
vt 1.305328 -0.205749
vt 1.573858 0.054049
vt 1.620881 0.00028
vt 1.305328 -0.226152
vt 1.574092 0.000514
vt 1.305094 -0.205749
vt 1.574092 0.054049
vt 1.620646 0.000514
vt 1.305094 -0.226387
vt 1.575125 0.001543
vt 1.304065 -0.205749
vt 1.575125 0.054049
vt 1.619614 0.001543
vt 1.304065 -0.227419
vt 1.251559 -0.227419
vt 1.619614 0.054049
vn -0.9433732828148622 0 0.3317330994506125
vn -0.9757818419038387 0 0.21874596455878165
vn 0 -0.9759146005416452 0.21815291070632314
vn 0 -0.943628265898913 0.3310070932723502
vn -0.7214492865272482 0 0.6924672750168952
vn -0.8561436963344461 0 0.5167378167182962
vn 0 -0.8568480476129053 0.5155690286488827
vn 0 -0.7225219647452642 0.691347966266368
vn -0.4693402210853445 0 0.8830174159503084
vn -0.665425911906931 0 0.7464639011786365
vn 0 -0.6665042256060535 0.7455012523458798
vn 0 -0.47037526299135185 0.8824664933955377
vn -0.25690491599287696 0 0.9664366839781554
vn 0 -0.2576629617635925 0.9662348566136565
vn -0.30540305586769156 0 0.9522231741911535
vn 0 -0.306194039407635 0.9519691225198619
vn 0 0 1
vn -0.21689001057165314 0 0.9761960475817488
vn 0 -0.21752092380493543 0.9760556580989874
vn -0.20661103385838592 0 0.9784231603391085
vn 0 -0.2072110557255877 0.9782962630947167
vn -0.06928399836957433 0 0.9975969765240493
vn 0 -0.06950198697783115 0.9975818130890988
vn 0.9848188941388683 0 0.17358498134083059
vn 0.9998438734017765 0 0.01766999776266037
vn 0 0.999844843899236 0.01761499724985899
vn 0 0.9849077760004802 0.1730799606360831
vn 0.877878145578545 0 0.4788840794133534
vn 0 0.8784757804052404 0.4777868805664342
vn 0.6941731003798672 0 0.7198081040867788
vn 0 0.6952647452755543 0.7187537366698825
vn 0.4818122586320718 0 0.8762744703754993
vn 0 0.4829409551130548 0.8756529186124434
vn 0.3655251777867379 0 0.9308014527298363
vn 0 0.366525069256934 0.9304081758057586
vn 1 0 0
vn 0 1 0
vn -0.09823601432944286 0 0.9951631451619706
vn 0 -0.09853802832313467 0.9951332860346846
vn -0.06573998127538241 -0.06593898121870179 0.9956557164089161
vn -0.32365415497519434 0 0.9461754530568276
vn 0 -0.32453610589209214 0.9458733086266875
vn -0.5835593526505672 0 0.8120704907420605
vn 0 -0.5847101851590344 0.8112422568945036
vn -0.8499868493037199 0 0.5268039066016267
vn 0 -0.8506509114634073 0.5257309452814002
vn -0.9662998881213223 0 0.25741897019590465
vn 0 -0.966499655817936 0.2566679085974938
vn -0.9951033352458921 0 0.09884003329876805
vn 0 -0.9951332860346846 0.09853802832313423
vn -1 0 0
vn 0 -1 0
vn -0.3404891599235399 0 0.9402484416230438
vn -0.2209580698390015 0 0.9752833082612573
vn 0 -0.341409830093173 0.9399145322399005
vn 0 -0.22162097392296987 0.9751328852609958
vn -0.6124569538008426 0 0.7905039403703138
vn 0 -0.6135802724836967 0.789632350666329
vn -0.8283019491720808 0 0.5602819656188585
vn 0 -0.8290928702594126 0.5591109125075356
vn -0.9284364785269614 0 0.3714911914708816
vn 0 -0.9288337090126993 0.37049688392982794
vn -0.9890442951817976 0 0.1476190440571317
vn 0 -0.9891091267360441 0.14718401885891008
vn -0.9818532936856189 0 -0.1896420567245078
vn 0 -0.9819562839817984 -0.18910805469005754
vn -0.8582522250818252 0 -0.5132281345971754
vn 0 -0.8589288642609054 -0.5120949190721102
vn -0.7060099319039332 0 -0.7082019316925104
vn 0 -0.7071067811865476 -0.7071067811865478
vn -0.5245800711537835 0 -0.8513611154782039
vn 0 -0.5257309452814002 -0.8506509114634073
vn -0.13838304493920922 -0.13875004505839048 -0.9806113184486742
vn 0 -0.20474698584850284 -0.9788149323472506
vn -0.20418103070372476 0 -0.978933147207083
vn 0 0 -1
vn 0.9433732828148622 0 -0.3317330994506125
vn 0.9757818419038387 0 -0.21874596455878165
vn 0 0.9759146005416452 -0.21815291070632314
vn 0 0.943628265898913 -0.3310070932723502
vn 0.7214492865272482 0 -0.6924672750168952
vn 0.8561436963344461 0 -0.5167378167182962
vn 0 0.8568480476129053 -0.5155690286488827
vn 0 0.7225219647452642 -0.691347966266368
vn 0.4693402210853445 0 -0.8830174159503084
vn 0.665425911906931 0 -0.7464639011786365
vn 0 0.6665042256060535 -0.7455012523458798
vn 0 0.47037526299135185 -0.8824664933955377
vn 0.25690491599287696 0 -0.9664366839781554
vn 0 0.2576629617635925 -0.9662348566136565
vn 0.30540305586769156 0 -0.9522231741911535
vn 0 0.306194039407635 -0.9519691225198619
vn 0.21689001057165314 0 -0.9761960475817488
vn 0 0.21752092380493543 -0.9760556580989874
vn 0.20661103385838592 0 -0.9784231603391085
vn 0 0.2072110557255877 -0.9782962630947167
vn 0.06928399836957433 0 -0.9975969765240493
vn 0 0.06950198697783115 -0.9975818130890988
vn -0.9998438734017765 0 -0.01766999776266037
vn -0.9848188941388683 0 -0.17358498134083059
vn 0 -0.999844843899236 -0.01761499724985899
vn 0 -0.9849077760004802 -0.1730799606360831
vn -0.877878145578545 0 -0.4788840794133534
vn 0 -0.8784757804052404 -0.4777868805664342
vn -0.6941731003798672 0 -0.7198081040867788
vn 0 -0.6952647452755543 -0.7187537366698825
vn -0.4818122586320718 0 -0.8762744703754993
vn 0 -0.4829409551130548 -0.8756529186124434
vn -0.3655251777867379 0 -0.9308014527298363
vn 0 -0.366525069256934 -0.9304081758057586
vn 0.09823601432944286 0 -0.9951631451619706
vn 0 0.09853802832313467 -0.9951332860346846
vn 0.06573998127538241 0.06593898121870179 -0.9956557164089161
vn 0.32365415497519434 0 -0.9461754530568276
vn 0 0.32453610589209214 -0.9458733086266875
vn 0.5835593526505672 0 -0.8120704907420605
vn 0 0.5847101851590344 -0.8112422568945036
vn 0.8499868493037199 0 -0.5268039066016267
vn 0 0.8506509114634073 -0.5257309452814002
vn 0.9662998881213223 0 -0.25741897019590465
vn 0 0.966499655817936 -0.2566679085974938
vn 0.9951033352458921 0 -0.09884003329876805
vn 0 0.9951332860346846 -0.09853802832313423
vn 0.2209580698390015 0 -0.9752833082612573
vn 0.3404891599235399 0 -0.9402484416230438
vn 0 0.22162097392296987 -0.9751328852609958
vn 0 0.341409830093173 -0.9399145322399005
vn 0.6124569538008426 0 -0.7905039403703138
vn 0 0.6135802724836967 -0.789632350666329
vn 0.8283019491720808 0 -0.5602819656188585
vn 0 0.8290928702594126 -0.5591109125075356
vn 0.9284364785269614 0 -0.3714911914708816
vn 0 0.9288337090126993 -0.37049688392982794
vn 0.9890442951817976 0 -0.1476190440571317
vn 0 0.9891091267360441 -0.14718401885891008
vn 0.9818532936856189 0 0.1896420567245078
vn 0 0.9819562839817984 0.18910805469005754
vn 0.8582522250818252 0 0.5132281345971754
vn 0 0.8589288642609054 0.5120949190721102
vn 0.7060099319039332 0 0.7082019316925104
vn 0 0.7071067811865476 0.7071067811865478
vn 0.5245800711537835 0 0.8513611154782039
vn 0 0.5257309452814002 0.8506509114634073
vn 0.13838304493920922 0.13875004505839048 0.9806113184486742
vn 0 0.20474698584850284 0.9788149323472506
vn 0.20418103070372476 0 0.978933147207083
usemtl material_0_0
f 1/1/1 2/2/2 3/2/1
f 2/2/2 1/1/1 4/1/2
f 5/3/3 3/2/4 2/2/3
f 3/2/1 6/4/5 1/1/1
f 4/1/2 7/5/6 2/2/2
f 3/2/4 5/3/3 8/3/4
f 2/2/3 9/6/7 5/3/3
f 6/4/5 3/2/1 10/7/5
f 7/5/6 4/1/2 11/8/6
f 9/6/7 2/2/3 7/5/7
f 8/3/4 10/7/8 3/2/4
f 12/9/9 6/4/5 10/7/5
f 11/8/6 13/10/10 7/5/6
f 7/5/7 14/11/11 9/6/7
f 10/7/8 8/3/4 15/12/8
f 6/4/5 12/9/9 16/13/9
f 10/7/8 17/14/12 12/9/12
f 13/10/10 11/8/6 18/15/10
f 14/11/11 7/5/7 13/10/11
f 17/14/12 10/7/8 15/12/8
f 19/16/13 16/13/9 12/9/9
f 20/17/14 12/9/12 17/14/12
f 21/18/15 13/10/10 18/15/10
f 22/19/16 14/11/11 13/10/11
f 16/13/9 19/16/13 23/20/13
f 12/9/12 20/17/14 19/16/14
f 13/10/10 21/18/15 22/19/15
f 14/11/11 22/19/16 24/21/16
f 19/16/17 25/22/17 23/20/17
f 25/22/17 19/16/17 20/17/17
f 26/23/18 22/19/15 21/18/15
f 27/24/19 24/21/16 22/19/16
f 22/19/15 26/23/18 27/24/18
f 24/21/16 27/24/19 28/25/19
f 29/26/20 27/24/18 26/23/18
f 27/24/19 30/27/21 28/25/19
f 27/24/18 29/26/20 31/28/20
f 30/27/21 27/24/19 31/28/21
f 32/29/22 31/28/20 29/26/20
f 31/28/21 33/30/23 30/27/21
f 31/28/20 32/29/22 34/31/22
f 33/30/23 31/28/21 34/31/23
f 35/32/24 34/33/25 32/34/25
f 34/31/26 36/35/27 33/30/26
f 34/33/25 35/32/24 37/36/24
f 36/35/27 34/31/26 37/37/27
f 38/38/28 37/36/24 35/32/24
f 37/37/27 39/39/29 36/35/27
f 37/36/24 38/38/28 40/40/28
f 39/39/29 37/37/27 40/41/29
f 41/42/30 40/40/28 38/38/28
f 40/41/29 42/43/31 39/39/29
f 40/40/28 41/42/30 43/44/30
f 42/43/31 40/41/29 43/45/31
f 44/46/32 43/44/30 41/42/30
f 43/45/31 45/47/33 42/43/31
f 43/44/30 44/46/32 46/48/32
f 45/47/33 43/45/31 46/49/33
f 47/50/34 46/48/32 44/46/32
f 46/49/33 48/51/35 45/47/33
f 46/48/32 47/50/34 49/52/34
f 48/51/35 46/49/33 49/53/35
f 50/50/36 49/52/36 47/50/36
f 49/53/37 51/51/37 48/51/37
f 49/52/36 50/50/36 52/52/36
f 51/51/37 49/53/37 52/53/37
f 53/54/38 52/52/17 50/50/17
f 52/53/17 54/55/39 51/51/17
f 55/56/40 52/52/17 53/54/38
f 54/55/39 52/53/17 56/57/39
f 52/52/17 55/56/40 56/58/39
f 57/59/41 55/56/40 53/54/38
f 56/57/39 58/60/42 54/55/39
f 59/61/42 56/58/39 55/56/40
f 55/56/40 57/59/41 59/61/41
f 58/60/42 56/57/39 60/62/42
f 56/58/39 59/61/42 60/63/42
f 61/64/43 59/61/41 57/59/41
f 60/62/42 62/65/44 58/60/42
f 63/66/44 60/63/42 59/61/42
f 59/61/41 61/64/43 63/66/43
f 62/65/44 60/62/42 64/67/44
f 60/63/42 63/66/44 64/68/44
f 65/69/45 63/66/43 61/64/43
f 66/70/46 62/65/44 64/67/44
f 63/66/44 66/71/46 64/68/44
f 63/66/43 65/69/45 67/72/45
f 62/65/44 66/70/46 68/73/46
f 66/71/46 63/66/44 67/72/46
f 65/69/45 69/74/47 67/72/45
f 70/75/48 68/73/46 66/70/46
f 67/72/46 70/76/48 66/71/46
f 69/74/47 65/69/45 71/77/47
f 70/76/48 67/72/46 69/74/48
f 68/73/46 70/75/48 72/78/48
f 71/77/47 73/79/49 69/74/47
f 69/74/48 74/80/50 70/76/48
f 74/81/50 72/78/48 70/75/48
f 73/79/49 71/77/47 75/82/49
f 74/80/50 69/74/48 73/79/50
f 72/78/48 74/81/50 76/83/50
f 75/82/49 77/79/51 73/79/49
f 73/79/50 78/80/52 74/80/50
f 74/81/50 79/83/52 76/83/50
f 77/79/51 75/82/49 80/82/51
f 78/80/52 73/79/50 77/79/52
f 79/83/52 74/81/50 78/81/52
f 81/84/53 77/79/54 80/82/54
f 82/85/55 78/80/56 77/79/56
f 78/81/56 83/86/55 79/83/56
f 77/79/54 81/84/53 82/85/53
f 78/80/56 82/85/55 84/87/55
f 83/86/55 78/81/56 84/88/55
f 85/89/57 82/85/53 81/84/53
f 86/90/58 84/87/55 82/85/55
f 84/88/55 87/91/58 83/86/55
f 82/85/53 85/89/57 86/90/57
f 84/87/55 86/90/58 88/92/58
f 87/91/58 84/88/55 88/93/58
f 85/89/57 89/94/59 86/90/57
f 86/90/58 90/95/60 88/92/58
f 90/96/60 87/91/58 88/93/58
f 89/94/59 85/89/57 91/97/59
f 90/95/60 86/90/58 89/94/60
f 87/91/58 90/96/60 92/98/60
f 91/97/59 93/99/61 89/94/59
f 89/94/60 94/100/62 90/95/60
f 94/101/62 92/98/60 90/96/60
f 93/99/61 91/97/59 95/102/61
f 94/100/62 89/94/60 93/99/62
f 92/98/60 94/101/62 96/103/62
f 95/102/61 97/104/63 93/99/61
f 93/99/62 98/105/64 94/100/62
f 98/106/64 96/103/62 94/101/62
f 97/104/63 95/102/61 99/107/63
f 98/105/64 93/99/62 97/104/64
f 96/103/62 98/106/64 100/108/64
f 99/107/63 101/104/65 97/104/63
f 97/104/64 102/105/66 98/105/64
f 98/106/64 103/108/66 100/108/64
f 101/104/65 99/107/63 104/107/65
f 102/105/66 97/104/64 101/104/66
f 103/108/66 98/106/64 102/106/66
f 104/107/65 105/109/67 101/104/65
f 105/109/68 102/105/66 101/104/66
f 102/106/66 106/110/68 103/108/66
f 105/109/67 104/107/65 107/111/67
f 102/105/66 105/109/68 108/112/68
f 106/110/68 102/106/66 108/113/68
f 107/111/67 109/114/69 105/109/67
f 109/114/70 108/112/68 105/109/68
f 108/113/68 110/115/70 106/110/68
f 109/114/69 107/111/67 111/116/69
f 108/112/68 109/114/70 112/117/70
f 110/115/70 108/113/68 112/118/70
f 111/116/69 113/94/71 109/114/69
f 109/114/70 114/95/72 112/117/70
f 114/96/72 110/115/70 112/118/70
f 113/94/71 111/116/69 115/97/71
f 114/95/72 109/114/70 113/94/72
f 110/115/70 114/96/72 116/98/72
f 115/97/71 117/119/73 113/94/71
f 117/119/73 114/95/72 113/94/72
f 114/96/72 118/120/74 116/98/72
f 117/119/73 115/97/71 119/121/75
f 114/95/72 117/119/73 120/122/74
f 118/120/74 114/96/72 120/123/74
f 119/121/75 120/122/74 117/119/73
f 121/124/76 118/120/74 120/123/74
f 120/122/74 119/121/75 121/125/76
f 118/120/74 121/124/76 122/22/76
usemtl material_1_0
f 3//77 2//78 1//77
f 4//78 1//77 2//78
f 2//79 3//80 5//79
f 1//77 6//81 3//77
f 2//78 7//82 4//78
f 8//80 5//79 3//80
f 5//79 9//83 2//79
f 10//81 3//77 6//81
f 11//82 4//78 7//82
f 7//83 2//79 9//83
f 3//80 10//84 8//80
f 10//81 6//81 12//85
f 7//82 13//86 11//82
f 9//83 14//87 7//83
f 15//84 8//80 10//84
f 16//85 12//85 6//81
f 12//88 17//88 10//84
f 18//86 11//82 13//86
f 13//87 7//83 14//87
f 15//84 10//84 17//88
f 12//85 16//85 19//89
f 17//88 12//88 20//90
f 18//86 13//86 21//91
f 13//87 14//87 22//92
f 23//89 19//89 16//85
f 19//90 20//90 12//88
f 22//91 21//91 13//86
f 24//92 22//92 14//87
f 23//76 25//76 19//76
f 20//76 19//76 25//76
f 21//91 22//91 26//93
f 22//92 24//92 27//94
f 27//93 26//93 22//91
f 28//94 27//94 24//92
f 26//93 27//93 29//95
f 28//94 30//96 27//94
f 31//95 29//95 27//93
f 31//96 27//94 30//96
f 29//95 31//95 32//97
f 30//96 33//98 31//96
f 34//97 32//97 31//95
f 34//98 31//96 33//98
f 32//99 34//99 35//100
f 33//101 36//102 34//101
f 37//100 35//100 34//99
f 37//102 34//101 36//102
f 35//100 37//100 38//103
f 36//102 39//104 37//102
f 40//103 38//103 37//100
f 40//104 37//102 39//104
f 38//103 40//103 41//105
f 39//104 42//106 40//104
f 43//105 41//105 40//103
f 43//106 40//104 42//106
f 41//105 43//105 44//107
f 42//106 45//108 43//106
f 46//107 44//107 43//105
f 46//108 43//106 45//108
f 44//107 46//107 47//109
f 45//108 48//110 46//108
f 49//109 47//109 46//107
f 49//110 46//108 48//110
f 47//51 49//51 50//51
f 48//52 51//52 49//52
f 52//51 50//51 49//51
f 52//52 49//52 51//52
f 50//76 52//76 53//111
f 51//76 54//112 52//76
f 53//111 52//76 55//113
f 56//112 52//76 54//112
f 56//112 55//113 52//76
f 53//111 55//113 57//114
f 54//112 58//115 56//112
f 55//113 56//112 59//115
f 59//114 57//114 55//113
f 60//115 56//112 58//115
f 60//115 59//115 56//112
f 57//114 59//114 61//116
f 58//115 62//117 60//115
f 59//115 60//115 63//117
f 63//116 61//116 59//114
f 64//117 60//115 62//117
f 64//117 63//117 60//115
f 61//116 63//116 65//118
f 64//117 62//117 66//119
f 64//117 66//119 63//117
f 67//118 65//118 63//116
f 68//119 66//119 62//117
f 67//119 63//117 66//119
f 67//118 69//120 65//118
f 66//119 68//119 70//121
f 66//119 70//121 67//119
f 71//120 65//118 69//120
f 69//121 67//119 70//121
f 72//121 70//121 68//119
f 69//120 73//122 71//120
f 70//121 74//123 69//121
f 70//121 72//121 74//123
f 75//122 71//120 73//122
f 73//123 69//121 74//123
f 76//123 74//123 72//121
f 73//122 77//36 75//122
f 74//123 78//37 73//123
f 76//123 79//37 74//123
f 80//36 75//122 77//36
f 77//37 73//123 78//37
f 78//37 74//123 79//37
f 80//124 77//124 81//125
f 77//126 78//126 82//127
f 79//126 83//127 78//126
f 82//125 81//125 77//124
f 84//127 82//127 78//126
f 84//127 78//126 83//127
f 81//125 82//125 85//128
f 82//127 84//127 86//129
f 83//127 87//129 84//127
f 86//128 85//128 82//125
f 88//129 86//129 84//127
f 88//129 84//127 87//129
f 86//128 89//130 85//128
f 88//129 90//131 86//129
f 88//129 87//129 90//131
f 91//130 85//128 89//130
f 89//131 86//129 90//131
f 92//131 90//131 87//129
f 89//130 93//132 91//130
f 90//131 94//133 89//131
f 90//131 92//131 94//133
f 95//132 91//130 93//132
f 93//133 89//131 94//133
f 96//133 94//133 92//131
f 93//132 97//134 95//132
f 94//133 98//135 93//133
f 94//133 96//133 98//135
f 99//134 95//132 97//134
f 97//135 93//133 98//135
f 100//135 98//135 96//133
f 97//134 101//136 99//134
f 98//135 102//137 97//135
f 100//135 103//137 98//135
f 104//136 99//134 101//136
f 101//137 97//135 102//137
f 102//137 98//135 103//137
f 101//136 105//138 104//136
f 101//137 102//137 105//139
f 103//137 106//139 102//137
f 107//138 104//136 105//138
f 108//139 105//139 102//137
f 108//139 102//137 106//139
f 105//138 109//140 107//138
f 105//139 108//139 109//141
f 106//139 110//141 108//139
f 111//140 107//138 109//140
f 112//141 109//141 108//139
f 112//141 108//139 110//141
f 109//140 113//142 111//140
f 112//141 114//143 109//141
f 112//141 110//141 114//143
f 115//142 111//140 113//142
f 113//143 109//141 114//143
f 116//143 114//143 110//141
f 113//142 117//144 115//142
f 113//143 114//143 117//144
f 116//143 118//145 114//143
f 119//146 115//142 117//144
f 120//145 117//144 114//143
f 120//145 114//143 118//145
f 117//144 120//145 119//146
f 120//145 118//145 121//17
f 121//17 119//146 120//145
f 122//17 121//17 118//145
