# SSTK version 0.8.0
# 92
mtllib original-92.mtl
o LT_11_BC1/LT_11_BC/mesh44/mesh44-geometry#mesh44-geometry
v -0.181515 -0.404196 0.429656
v -0.550056 -0.405735 0.430080
v -0.181515 -0.405735 0.430080
v -0.550056 -0.404196 0.429656
v -0.181515 -0.405737 0.432319
v -0.181515 -0.402762 0.428914
v -0.550056 -0.405737 0.432319
v -0.550056 -0.402762 0.428914
v -0.550056 -0.467818 0.432319
v -0.181515 -0.400479 0.426687
v -0.181515 -0.467818 0.432319
v -0.550056 -0.400479 0.426687
v -0.181515 -0.468243 0.432266
v -0.550056 -0.399478 0.425308
v -0.550056 -0.468243 0.432266
v -0.181515 -0.399478 0.425308
v -0.550056 -0.468455 0.432159
v -0.550056 -0.398734 0.423822
v -0.181515 -0.468455 0.432159
v -0.181515 -0.398734 0.423822
v -0.181515 -0.468720 0.431894
v -0.550056 -0.398730 0.418045
v -0.550056 -0.468720 0.431894
v -0.181515 -0.398730 0.418045
v -0.181515 -0.468826 0.431734
v -0.181515 -0.379551 0.418581
v -0.550056 -0.468826 0.431734
v -0.550056 -0.379551 0.418581
v -0.181515 -0.468985 0.431363
v -0.181515 -0.370107 0.422515
v -0.550056 -0.468985 0.431363
v -0.550056 -0.370107 0.422515
v -0.181515 -0.468983 0.428921
v -0.181515 -0.357364 0.424541
v -0.550056 -0.468983 0.428921
v -0.550056 -0.357364 0.424541
v -0.550056 -0.470841 0.428549
v -0.181515 -0.355879 0.425073
v -0.181515 -0.470841 0.428549
v -0.550056 -0.355879 0.425073
v -0.550056 -0.472538 0.427858
v -0.181515 -0.355242 0.425498
v -0.181515 -0.472538 0.427858
v -0.550056 -0.355242 0.425498
v -0.181515 -0.474077 0.426848
v -0.550056 -0.354712 0.426029
v -0.550056 -0.474077 0.426848
v -0.181515 -0.354712 0.426029
v -0.181515 -0.476516 0.424087
v -0.550056 -0.354235 0.426719
v -0.550056 -0.476516 0.424087
v -0.181515 -0.354235 0.426719
v -0.181515 -0.477894 0.420583
v -0.550056 -0.353599 0.428152
v -0.550056 -0.477894 0.420583
v -0.181515 -0.353599 0.428152
v -0.181515 -0.477885 0.408004
v -0.550056 -0.353600 0.430541
v -0.550056 -0.477885 0.408004
v -0.181515 -0.353600 0.430541
v -0.181515 -0.477725 0.407368
v -0.550056 -0.353017 0.431709
v -0.550056 -0.477725 0.407368
v -0.181515 -0.353017 0.431709
v -0.181515 -0.477459 0.406784
v -0.181515 -0.352646 0.431974
v -0.550056 -0.477459 0.406784
v -0.550056 -0.352646 0.431974
v -0.550056 -0.476504 0.405882
v -0.181515 -0.351850 0.432346
v -0.181515 -0.476504 0.405882
v -0.550056 -0.351850 0.432346
v -0.550056 -0.475920 0.405564
v -0.181515 -0.347556 0.432346
v -0.181515 -0.475920 0.405564
v -0.550056 -0.347556 0.432346
v -0.181515 -0.475229 0.405353
v -0.550056 -0.475229 0.405353
v -0.181515 -0.398721 0.405353
v -0.550056 -0.398721 0.405353
v -0.181515 -0.398724 0.409758
v -0.550056 -0.398724 0.409758
v -0.550056 -0.347556 0.409758
v -0.181515 -0.347556 0.409758
vt 1.262907 -0.82424
vt 1.263799 -1.013049
vt 1.263799 -0.82424
vt 1.262907 -1.013049
vt 1.2638 -0.82424
vt 1.262077 -0.82424
vt 1.2638 -1.013049
vt 1.262077 -1.013049
vt 1.299773 -1.013049
vt 1.260753 -0.82424
vt 1.299773 -0.82424
vt 1.260753 -1.013049
vt 1.300019 -0.82424
vt 1.260174 -1.013049
vt 1.300019 -1.013049
vt 1.260174 -0.82424
vt 1.300142 -1.013049
vt 1.259743 -1.013049
vt 1.300142 -0.82424
vt 1.259743 -0.82424
vt 1.300296 -0.82424
vt 1.25974 -1.013049
vt 1.300296 -1.013049
vt 1.25974 -0.82424
vt 1.300357 -0.82424
vt 0.264332 0.056984
vt 0.075523 0.045871
vt 0.264332 0.045871
vt 1.300357 -1.013049
vt 0.075523 0.056984
vt 1.300449 -0.82424
vt 0.264332 0.062457
vt 1.300449 -1.013049
vt 0.075523 0.062457
vt 1.300448 -0.82424
vt 0.264332 0.06984
vt 1.300448 -1.013049
vt 0.075523 0.06984
vt 1.301524 -1.013049
vt 0.264332 0.070701
vt 1.301524 -0.82424
vt 0.075523 0.070701
vt 1.302508 -1.013049
vt 0.264332 0.07107
vt 1.302508 -0.82424
vt 0.075523 0.07107
vt 1.3034 -0.82424
vt 0.075523 0.071377
vt 1.3034 -1.013049
vt 0.264332 0.071377
vt 1.304813 -0.82424
vt 0.075523 0.071654
vt 1.304813 -1.013049
vt 0.264332 0.071654
vt 1.305611 -0.82424
vt 0.075523 0.072022
vt 1.305611 -1.013049
vt 0.264332 0.072022
vt 1.305606 -0.82424
vt 0.075523 0.072021
vt 1.305606 -1.013049
vt 0.264332 0.072021
vt 1.305514 -0.82424
vt 0.075523 0.072359
vt 1.305514 -1.013049
vt 0.264332 0.072359
vt 1.30536 -0.82424
vt 0.264332 0.072574
vt 1.30536 -1.013049
vt 0.075523 0.072574
vt 1.304806 -1.013049
vt 0.264332 0.073035
vt 1.304806 -0.82424
vt 0.075523 0.073035
vt 1.304467 -1.013049
vt 0.264332 0.075523
vt 1.304467 -0.82424
vt 0.075523 0.075523
vt 1.304068 -0.82424
vt 1.304068 -1.013049
vt 1.259735 -0.82424
vt 1.259735 -1.013049
vt 1.259735 -0.994933
vt 1.259737 -0.807206
vt 1.259735 -0.807206
vt 1.259737 -0.994933
vt 0.264332 0.045874
vt 0.075523 0.045874
vn 0 0.3644837313462239 0.9312097559540137
vn 0 0.2652683639547578 0.9641746185648977
vn 0 0.9999997500925883 0.0007069757853216893
vn 0 0.5853530547901952 0.8107785155316998
vn 0 -0.062486114096973175 0.9980458333889581
vn 0 0 1
vn 0 0.7566179495830188 0.6538572308759675
vn 0 -0.2904569804736315 0.9568880511816107
vn 0 0.8546520281313879 0.5192012238149148
vn 0 -0.585286228424857 0.8108267575852476
vn 0 0.9730911142538625 0.23042066608743283
vn 0 -0.7737925489867887 0.6334390982032355
vn 0 0.9999997591984623 0.0006939762368896369
vn 0 -0.8796172201569933 0.47568219012622653
vn 0 -0.2097437844706329 0.9777563831936547
vn 0 -0.02792195231500579 0.9996101062809032
vn 0 -0.9797183624844547 0.20037946554170344
vn 0 -0.27267570486085424 0.962106002464716
vn 0 -0.9999997591984623 -0.0006939762368896369
vn 0 -0.2480699533929534 0.9687421216317673
vn 0 -0.2881960262905521 0.9575714335914243
vn 0 -0.19680252042412902 0.9804431487621862
vn 0 -0.44951312627895534 0.893273725855026
vn 0 -0.46501423924472507 0.8853032007734126
vn 0 -0.6345380537719681 0.7728916213255792
vn 0 -0.6548508523716571 0.7557581366734428
vn 0 -0.7682065745906622 0.6402020452604641
vn 0 -0.8530200324305032 0.5218781699518227
vn 0 -0.8721698383155783 0.4892032022918269
vn 0 -0.9825783298556123 0.18584893246439496
vn 0 -0.9783607555641897 0.20690633622938662
vn 0 -0.9924230433199998 -0.12286782771527177
vn 0 -0.9734098026636547 0.2290706355653315
vn 0 -0.9439207555054011 -0.3301720874424618
vn 0 -0.7607121187939595 0.6490894178154539
vn 0 -0.8133133538738643 -0.5818259090230055
vn 0 -0.5047970884246096 0.8632380317838395
vn 0 -0.5870530469295818 -0.8095484667953452
vn 0 -0.4235256475496697 0.9058841128243904
vn 0 -0.3877982069272289 -0.921744297896128
vn 0 -0.1483580022158627 -0.9889337203162394
vn 0 0 -1
vn 0 -0.2652683639547578 -0.9641746185648977
vn 0 -0.3644837313462239 -0.9312097559540137
vn 0 -0.9999997500925883 -0.0007069757853216893
vn 0 -0.5853530547901952 -0.8107785155316998
vn 0 0.062486114096973175 -0.9980458333889581
vn 0 -0.7566179495830188 -0.6538572308759675
vn 0 0.2904569804736315 -0.9568880511816107
vn 0 -0.8546520281313879 -0.5192012238149148
vn 0 0.585286228424857 -0.8108267575852476
vn 0 -0.9730911142538625 -0.23042066608743283
vn 0 0.7737925489867887 -0.6334390982032355
vn 0 0.8796172201569933 -0.47568219012622653
vn 0 0.02792195231500579 -0.9996101062809032
vn 0 0.2097437844706329 -0.9777563831936547
vn 0 0.9797183624844547 -0.20037946554170344
vn 0 0.27267570486085424 -0.962106002464716
vn 0 0.2480699533929534 -0.9687421216317673
vn 0 0.19680252042412902 -0.9804431487621862
vn 0 0.2881960262905521 -0.9575714335914243
vn 0 0.44951312627895534 -0.893273725855026
vn 0 0.46501423924472507 -0.8853032007734126
vn 0 0.6345380537719681 -0.7728916213255792
vn 0 0.6548508523716571 -0.7557581366734428
vn 0 0.7682065745906622 -0.6402020452604641
vn 0 0.8530200324305032 -0.5218781699518227
vn 0 0.8721698383155783 -0.4892032022918269
vn 0 0.9825783298556123 -0.18584893246439496
vn 0 0.9783607555641897 -0.20690633622938662
vn 0 0.9924230433199998 0.12286782771527177
vn 0 0.9734098026636547 -0.2290706355653315
vn 0 0.9439207555054011 0.3301720874424618
vn 0 0.7607121187939595 -0.6490894178154539
vn 0 0.8133133538738643 0.5818259090230055
vn 0 0.5047970884246096 -0.8632380317838395
vn 0 0.5870530469295818 0.8095484667953452
vn 0 0.4235256475496697 -0.9058841128243904
vn 0 0.3877982069272289 0.921744297896128
vn 0 0.1483580022158627 0.9889337203162394
usemtl material_0_0
f 1/1/1 2/2/2 3/3/2
f 2/2/2 1/1/1 4/4/1
f 2/2/3 5/5/3 3/3/3
f 6/6/4 4/4/1 1/1/1
f 5/5/3 2/2/3 7/7/3
f 4/4/1 6/6/4 8/8/4
f 9/9/5 5/5/6 7/7/6
f 10/10/7 8/8/4 6/6/4
f 5/5/6 9/9/5 11/11/5
f 8/8/4 10/10/7 12/12/7
f 9/9/5 13/13/8 11/11/5
f 10/10/7 14/14/9 12/12/7
f 13/13/8 9/9/5 15/15/8
f 14/14/9 10/10/7 16/16/9
f 17/17/10 13/13/8 15/15/8
f 16/16/9 18/18/11 14/14/9
f 13/13/8 17/17/10 19/19/10
f 18/18/11 16/16/9 20/20/11
f 17/17/10 21/21/12 19/19/10
f 20/20/11 22/22/13 18/18/11
f 21/21/12 17/17/10 23/23/12
f 22/22/13 20/20/11 24/24/13
f 23/23/12 25/25/14 21/21/12
f 26/26/15 22/27/16 24/28/16
f 25/25/14 23/23/12 27/29/14
f 22/27/16 26/26/15 28/30/15
f 27/29/14 29/31/17 25/25/14
f 30/32/18 28/30/15 26/26/15
f 29/31/17 27/29/14 31/33/17
f 28/30/15 30/32/18 32/34/18
f 31/33/17 33/35/19 29/31/17
f 34/36/20 32/34/18 30/32/18
f 33/35/19 31/33/17 35/37/19
f 32/34/18 34/36/20 36/38/20
f 37/39/21 33/35/22 35/37/22
f 38/40/23 36/38/20 34/36/20
f 33/35/22 37/39/21 39/41/21
f 36/38/20 38/40/23 40/42/23
f 41/43/24 39/41/21 37/39/21
f 42/44/25 40/42/23 38/40/23
f 39/41/21 41/43/24 43/45/24
f 40/42/23 42/44/25 44/46/25
f 41/43/24 45/47/26 43/45/24
f 42/44/25 46/48/27 44/46/25
f 45/47/26 41/43/24 47/49/26
f 46/48/27 42/44/25 48/50/27
f 47/49/26 49/51/28 45/47/26
f 48/50/27 50/52/29 46/48/27
f 49/51/28 47/49/26 51/53/28
f 50/52/29 48/50/27 52/54/29
f 51/53/28 53/55/30 49/51/28
f 52/54/29 54/56/31 50/52/29
f 53/55/30 51/53/28 55/57/30
f 54/56/31 52/54/29 56/58/31
f 55/57/30 57/59/32 53/55/30
f 56/58/31 58/60/33 54/56/31
f 57/59/32 55/57/30 59/61/32
f 58/60/33 56/58/31 60/62/33
f 59/61/32 61/63/34 57/59/32
f 60/62/33 62/64/35 58/60/33
f 61/63/34 59/61/32 63/65/34
f 62/64/35 60/62/33 64/66/35
f 63/65/34 65/67/36 61/63/34
f 66/68/37 62/64/35 64/66/35
f 65/67/36 63/65/34 67/69/36
f 62/64/35 66/68/37 68/70/37
f 69/71/38 65/67/36 67/69/36
f 70/72/39 68/70/37 66/68/37
f 65/67/36 69/71/38 71/73/38
f 68/70/37 70/72/39 72/74/39
f 73/75/40 71/73/38 69/71/38
f 74/76/6 72/74/6 70/72/6
f 71/73/38 73/75/40 75/77/40
f 72/74/6 74/76/6 76/78/6
f 73/75/40 77/79/41 75/77/40
f 77/79/41 73/75/40 78/80/41
f 78/80/41 79/81/42 77/79/41
f 79/81/42 78/80/41 80/82/42
f 80/83/13 81/84/13 79/85/13
f 81/84/13 80/83/13 82/86/13
f 83/78/42 81/87/42 82/88/42
f 81/87/42 83/78/42 84/76/42
usemtl material_1_0
f 3//43 2//43 1//44
f 4//44 1//44 2//43
f 3//45 5//45 2//45
f 1//44 4//44 6//46
f 7//45 2//45 5//45
f 8//46 6//46 4//44
f 7//42 5//42 9//47
f 6//46 8//46 10//48
f 11//47 9//47 5//42
f 12//48 10//48 8//46
f 11//47 13//49 9//47
f 12//48 14//50 10//48
f 15//49 9//47 13//49
f 16//50 10//48 14//50
f 15//49 13//49 17//51
f 14//50 18//52 16//50
f 19//51 17//51 13//49
f 20//52 16//50 18//52
f 19//51 21//53 17//51
f 18//52 22//19 20//52
f 23//53 17//51 21//53
f 24//19 20//52 22//19
f 21//53 25//54 23//53
f 24//55 22//55 26//56
f 27//54 23//53 25//54
f 28//56 26//56 22//55
f 25//54 29//57 27//54
f 26//56 28//56 30//58
f 31//57 27//54 29//57
f 32//58 30//58 28//56
f 29//57 33//13 31//57
f 30//58 32//58 34//59
f 35//13 31//57 33//13
f 36//59 34//59 32//58
f 35//60 33//60 37//61
f 34//59 36//59 38//62
f 39//61 37//61 33//60
f 40//62 38//62 36//59
f 37//61 39//61 41//63
f 38//62 40//62 42//64
f 43//63 41//63 39//61
f 44//64 42//64 40//62
f 43//63 45//65 41//63
f 44//64 46//66 42//64
f 47//65 41//63 45//65
f 48//66 42//64 46//66
f 45//65 49//67 47//65
f 46//66 50//68 48//66
f 51//67 47//65 49//67
f 52//68 48//66 50//68
f 49//67 53//69 51//67
f 50//68 54//70 52//68
f 55//69 51//67 53//69
f 56//70 52//68 54//70
f 53//69 57//71 55//69
f 54//70 58//72 56//70
f 59//71 55//69 57//71
f 60//72 56//70 58//72
f 57//71 61//73 59//71
f 58//72 62//74 60//72
f 63//73 59//71 61//73
f 64//74 60//72 62//74
f 61//73 65//75 63//73
f 64//74 62//74 66//76
f 67//75 63//73 65//75
f 68//76 66//76 62//74
f 67//75 65//75 69//77
f 66//76 68//76 70//78
f 71//77 69//77 65//75
f 72//78 70//78 68//76
f 69//77 71//77 73//79
f 70//42 72//42 74//42
f 75//79 73//79 71//77
f 76//42 74//42 72//42
f 75//79 77//80 73//79
f 78//80 73//79 77//80
f 77//80 79//6 78//80
f 80//6 78//80 79//6
f 79//19 81//19 80//19
f 82//19 80//19 81//19
f 82//6 81//6 83//6
f 84//6 83//6 81//6
