# SSTK version 0.8.0
# 68
mtllib original-68.mtl
o DF_11_TR2/DF_11_TR/mesh25/mesh25-geometry#mesh25-geometry
v -0.129498 0.525056 0.426856
v -0.052555 0.527478 0.424111
v -0.131928 0.527478 0.424111
v -0.054985 0.525056 0.426856
v -0.051745 0.528285 0.422496
v -0.168032 0.527478 0.424111
v -0.126177 0.521746 0.428552
v -0.052555 0.435570 0.424111
v -0.132738 0.528285 0.422496
v -0.051745 0.435570 0.422496
v -0.168032 0.525056 0.426856
v -0.168032 0.528285 0.422496
v -0.058305 0.521746 0.428552
v -0.168032 0.521746 0.428552
v -0.054985 0.435570 0.426856
v -0.051178 0.528850 0.420639
v -0.051178 0.435570 0.420639
v -0.124395 0.519969 0.428955
v -0.058305 0.435570 0.428552
v -0.168032 0.519969 0.428955
v -0.133304 0.528850 0.420639
v -0.168032 0.528851 0.420639
v -0.060087 0.519969 0.428955
v -0.060087 0.435570 0.428955
v -0.133304 0.528850 0.408044
v -0.051178 0.435570 0.408044
v -0.060087 0.519969 0.431135
v -0.124395 0.519969 0.431135
v -0.051178 0.528850 0.408044
v -0.168032 0.528851 0.408044
v -0.168032 0.519969 0.431135
v -0.132818 0.528366 0.406833
v -0.168032 0.528366 0.406833
v -0.051664 0.435570 0.406833
v -0.124314 0.519889 0.431539
v -0.060087 0.435570 0.431135
v -0.051664 0.528366 0.406833
v -0.060168 0.519889 0.431539
v -0.168032 0.519889 0.431539
v -0.132414 0.527962 0.406349
v -0.168032 0.527962 0.406349
v -0.052069 0.435570 0.406349
v -0.124233 0.519808 0.431781
v -0.060168 0.435570 0.431539
v -0.052069 0.527962 0.406349
v -0.060249 0.519808 0.431781
v -0.168032 0.519808 0.431781
v -0.052555 0.527478 0.405945
v -0.168032 0.527478 0.405945
v -0.123828 0.519404 0.432185
v -0.060249 0.435570 0.431781
v -0.131928 0.527478 0.405945
v -0.052555 0.435570 0.405945
v -0.060654 0.519404 0.432185
v -0.060654 0.435570 0.432185
v -0.168032 0.519404 0.432185
v -0.053851 0.526186 0.405380
v -0.168032 0.526186 0.405380
v -0.123666 0.519243 0.432266
v -0.168032 0.519243 0.432266
v -0.130632 0.526186 0.405380
v -0.053851 0.435570 0.405380
v -0.060816 0.519243 0.432266
v -0.060816 0.435570 0.432266
v -0.168032 0.435570 0.405380
v -0.123261 0.518839 0.432346
v -0.168032 0.518839 0.432346
v -0.130632 0.435570 0.405380
v -0.061221 0.518839 0.432346
v -0.061221 0.435570 0.432346
v -0.123261 0.477259 0.432346
v -0.168032 0.477259 0.432346
v -0.123261 0.435570 0.432346
v -0.123261 0.435570 0.430086
v -0.123261 0.477259 0.430086
v -0.168032 0.477259 0.430086
v -0.125934 0.435570 0.429036
v -0.168032 0.474595 0.429036
v -0.125934 0.474595 0.429036
v -0.127149 0.435570 0.428148
v -0.168032 0.473384 0.428148
v -0.127149 0.473384 0.428148
v -0.128931 0.435570 0.425887
v -0.128931 0.471608 0.425887
v -0.168032 0.471608 0.425887
v -0.129903 0.435570 0.423062
v -0.129903 0.470639 0.423062
v -0.168032 0.470639 0.423062
v -0.129984 0.435570 0.418479
v -0.129984 0.470558 0.418479
v -0.168032 0.470558 0.418479
v -0.134357 0.435570 0.418782
v -0.168032 0.466198 0.418782
v -0.134357 0.466198 0.418782
v -0.149098 0.435570 0.424111
v -0.168032 0.451504 0.424111
v -0.149098 0.451504 0.424111
v -0.156225 0.435570 0.424757
v -0.168032 0.444399 0.424757
v -0.156225 0.444399 0.424757
v -0.157602 0.435570 0.425564
v -0.168032 0.443026 0.425564
v -0.157602 0.443026 0.425564
v -0.158574 0.442058 0.426856
v -0.158574 0.435570 0.426856
v -0.168032 0.442058 0.426856
v -0.159222 0.441412 0.428229
v -0.159222 0.435570 0.428229
v -0.168032 0.441412 0.428229
v -0.159222 0.441412 0.431055
v -0.159222 0.435570 0.431055
v -0.168032 0.441412 0.431055
v -0.159546 0.441089 0.431458
v -0.159546 0.435570 0.431458
v -0.168032 0.441089 0.431458
v -0.160194 0.435570 0.432023
v -0.168032 0.440443 0.432023
v -0.160194 0.440443 0.432023
v -0.161409 0.435570 0.432346
v -0.168032 0.439232 0.432346
v -0.161409 0.439232 0.432346
v -0.168032 0.435570 0.432346
vt 1.926633 0.125405
vt 1.971216 0.126809
vt 1.925225 0.126809
vt 1.969808 0.125405
vt 1.971685 0.127276
vt 1.1788 0.057272
vt 1.180203 0.0796
vt 1.1788 0.078192
vt 1.928557 0.123487
vt 1.971216 0.073554
vt 1.924756 0.127276
vt 1.971685 0.073554
vt 1.180203 0.057272
vt 1.178332 0.057272
vt 1.967884 0.123487
vt 1.182121 0.057272
vt 1.182121 0.081524
vt 1.969808 0.073554
vt 1.972014 0.127604
vt 1.178332 0.077723
vt 1.972014 0.073554
vt 1.92959 0.122458
vt 1.967884 0.073554
vt 1.183151 0.057272
vt 1.924427 0.127604
vt 1.178005 0.057272
vt 1.966851 0.122458
vt 1.183151 0.082557
vt 1.966851 0.073554
vt 1.178005 0.077394
vt 1.924709 0.127323
vt 1.178285 0.057272
vt 1.971732 0.073554
vt 1.929637 0.122411
vt 1.183197 0.082604
vt 1.971732 0.127323
vt 1.178285 0.077676
vt 1.966804 0.122411
vt 1.183197 0.057272
vt 1.924944 0.127089
vt 1.178519 0.057272
vt 1.971497 0.073554
vt 1.929683 0.122364
vt 1.966804 0.073554
vt 1.183244 0.082651
vt 1.971497 0.127089
vt 1.178519 0.077911
vt 1.966757 0.122364
vt 1.183244 0.057272
vt 1.929918 0.12213
vt 1.966757 0.073554
vt 1.183478 0.082885
vt 1.966523 0.12213
vt 1.966523 0.073554
vt 1.183478 0.057272
vt 1.970465 0.12606
vt 1.179548 0.057272
vt 1.930012 0.122037
vt 1.183572 0.057272
vt 1.925976 0.12606
vt 1.179548 0.078943
vt 1.970465 0.073554
vt 1.966429 0.122037
vt 1.183572 0.082979
vt 1.966429 0.073554
vt 1.232054 0.057272
vt 1.930247 0.121803
vt 1.183805 0.057272
vt 1.925976 0.073554
vt 1.232054 0.078943
vt 1.966194 0.121803
vt 1.183805 0.083214
vt 1.966194 0.073554
vt 1.930247 0.09771
vt 1.207898 0.057272
vt 1.930247 0.073554
vt 1.207898 0.083214
vt 1.232054 0.081665
vt 1.232054 0.083214
vt 1.209442 0.057272
vt 1.209442 0.081665
vt 1.232054 0.080961
vt 1.210143 0.057272
vt 1.210143 0.080961
vt 1.232054 0.079929
vt 1.211173 0.079929
vt 1.211173 0.057272
vt 1.232054 0.079366
vt 1.211734 0.079366
vt 1.211734 0.057272
vt 1.232054 0.079319
vt 1.211781 0.079319
vt 1.211781 0.057272
vt 1.232054 0.076784
vt 1.214307 0.057272
vt 1.214307 0.076784
vt 1.232054 0.068243
vt 1.222821 0.057272
vt 1.222821 0.068243
vt 1.232054 0.064114
vt 1.226938 0.057272
vt 1.226938 0.064114
vt 1.232054 0.063316
vt 1.227733 0.057272
vt 1.227733 0.063316
vt 1.228295 0.062753
vt 1.232054 0.062753
vt 1.228295 0.057272
vt 1.228669 0.062377
vt 1.232054 0.062377
vt 1.228669 0.057272
vt 1.228856 0.062189
vt 1.232054 0.062189
vt 1.228856 0.057272
vt 1.232054 0.061814
vt 1.22923 0.057272
vt 1.22923 0.061814
vt 1.232054 0.06111
vt 1.229932 0.057272
vt 1.229932 0.06111
vn 0 0.6135802724836964 0.7896323506663294
vn 0 0.8290928702594121 0.559110912507536
vn 0 0.9288337090126991 0.3704968839298284
vn 0 0.3414098300931725 0.9399145322399005
vn 0.6124569538008426 0 0.7905039403703138
vn 0.8283019491720808 0 0.5602819656188585
vn 0.9284364785269614 0 0.3714911914708816
vn 0 0.9891091267360441 0.14718401885891053
vn 0.9890442951817976 0 0.1476190440571317
vn 0 0.22162097392296942 0.9751328852609958
vn 0.3404891599235399 0 0.9402484416230438
vn 0.2209580698390015 0 0.9752833082612573
vn 0 0.9819562839817984 -0.1891080546900571
vn 0.9818532936856189 0 -0.1896420567245078
vn 0 1 0
vn 0 0.9951332860346846 0.09853802832313467
vn 0 0.9819564696772565 -0.18910709045136107
vn 0.9951033352458921 0 0.09884003329876805
vn 1 0 0
vn 0 0.8589288642609056 -0.5120949190721098
vn 0.8582522250818252 0 -0.5132281345971754
vn 0 0.9664996558179357 0.2566679085974942
vn 0.9662998881213223 0 0.25741897019590465
vn 0 0.7071067811865478 -0.7071067811865476
vn 0.7060099319039332 0 -0.7082019316925104
vn 0 0.850650911463407 0.5257309452814004
vn 0.8499868493037199 0 0.5268039066016267
vn 0 0.5257309452814004 -0.850650911463407
vn 0.5245800711537835 0 -0.8513611154782039
vn 0 0.5847101851590341 0.8112422568945039
vn 0.5835593526505672 0 0.8120704907420605
vn 0.13838304493920922 0.13875004505839092 -0.9806113184486742
vn 0 0.2047469858485033 -0.9788149323472506
vn 0 0.32453610589209164 0.9458733086266875
vn 0.20418103070372476 0 -0.978933147207083
vn 0.32365415497519434 0 0.9461754530568276
vn 0 0 -1
vn 0 0.09853802832313423 0.9951332860346846
vn 0.06573998127538241 0.06593898121870134 0.9956557164089161
vn 0.09823601432944286 0 0.9951631451619706
vn 0 0 1
vn -1 0 0
vn 0 -1 0
vn -0.3655251777867379 0 0.9308014527298363
vn -0.4818122586320718 0 0.8762744703754993
vn 0 -0.48294095511305524 0.8756529186124432
vn 0 -0.36652420359692145 0.9304085168234665
vn -0.6941731003798672 0 0.7198081040867788
vn 0 -0.6952647452755545 0.7187537366698823
vn -0.877878145578545 0 0.4788840794133534
vn 0 -0.8784757804052407 0.47778688056643376
vn -0.9848188941388683 0 0.17358498134083059
vn 0 -0.9849077760004802 0.17307996063608266
vn -0.9998438734017765 0 0.01766999776266037
vn 0 -0.999844843899236 0.017614997249858547
vn 0.06928399836957433 0 0.9975969765240493
vn 0.20661103385838592 0 0.9784231603391085
vn 0 0.20721105572558732 0.978296263094717
vn 0 0.06950198697783071 0.9975818130890988
vn 0.21689001057165314 0 0.9761960475817488
vn 0 0.21752092380493498 0.9760556580989874
vn 0.30540305586769156 0 0.9522231741911535
vn 0 0.3061931331618914 0.9519694140068284
vn 0.665425911906931 0 0.7464639011786365
vn 0.0000010000003384911719 0.66650422560572 0.7455012523455072
vn 0.8561436963344461 0 0.5167378167182962
vn 0.0000010000000555670045 0.8568480476124767 0.5155690286486252
vn 0.9757818419038387 0 0.21874596455878165
vn 9.999995906827513e-7 0.9759146005411573 0.21815291070621448
vn 0.9433732828148622 0 0.3317330994506125
vn 0.0000010000002817831193 0.9436282658984412 0.3310070932721852
vn 0.7214492865272482 0 0.6924672750168952
vn 9.999999823785004e-7 0.7225209872680964 0.6913489878173941
vn 0.4693402210853445 0 0.8830174159503084
vn 0.0000010000005591094688 0.4703752629911162 0.8824664933950968
vn 0.25690491599287696 0 0.9664366839781554
vn 0 0.25766202815357164 0.9662351055761679
vn 0 -0.8290928702594121 -0.559110912507536
vn 0 -0.6135802724836964 -0.7896323506663294
vn 0 -0.9288337090126991 -0.3704968839298284
vn 0 -0.3414098300931725 -0.9399145322399005
vn -0.8283019491720808 0 -0.5602819656188585
vn -0.6124569538008426 0 -0.7905039403703138
vn -0.9284364785269614 0 -0.3714911914708816
vn 0 -0.9891091267360441 -0.14718401885891053
vn -0.9890442951817976 0 -0.1476190440571317
vn 0 -0.22162097392296942 -0.9751328852609958
vn -0.3404891599235399 0 -0.9402484416230438
vn -0.2209580698390015 0 -0.9752833082612573
vn 0 -0.9819562839817984 0.1891080546900571
vn -0.9818532936856189 0 0.1896420567245078
vn 0 -0.9951332860346846 -0.09853802832313467
vn 0 -0.9819564696772565 0.18910709045136107
vn -0.9951033352458921 0 -0.09884003329876805
vn 0 -0.8589288642609056 0.5120949190721098
vn -0.8582522250818252 0 0.5132281345971754
vn 0 -0.9664996558179357 -0.2566679085974942
vn -0.9662998881213223 0 -0.25741897019590465
vn 0 -0.7071067811865478 0.7071067811865476
vn -0.7060099319039332 0 0.7082019316925104
vn 0 -0.850650911463407 -0.5257309452814004
vn -0.8499868493037199 0 -0.5268039066016267
vn 0 -0.5257309452814004 0.850650911463407
vn -0.5245800711537835 0 0.8513611154782039
vn 0 -0.5847101851590341 -0.8112422568945039
vn -0.5835593526505672 0 -0.8120704907420605
vn -0.13838304493920922 -0.13875004505839092 0.9806113184486742
vn 0 -0.2047469858485033 0.9788149323472506
vn 0 -0.32453610589209164 -0.9458733086266875
vn -0.20418103070372476 0 0.978933147207083
vn -0.32365415497519434 0 -0.9461754530568276
vn 0 -0.09853802832313423 -0.9951332860346846
vn -0.06573998127538241 -0.06593898121870134 -0.9956557164089161
vn -0.09823601432944286 0 -0.9951631451619706
vn 0.3655251777867379 0 -0.9308014527298363
vn 0.4818122586320718 0 -0.8762744703754993
vn 0 0.36652420359692145 -0.9304085168234665
vn 0 0.48294095511305524 -0.8756529186124432
vn 0.6941731003798672 0 -0.7198081040867788
vn 0 0.6952647452755545 -0.7187537366698823
vn 0.877878145578545 0 -0.4788840794133534
vn 0 0.8784757804052407 -0.47778688056643376
vn 0.9848188941388683 0 -0.17358498134083059
vn 0 0.9849077760004802 -0.17307996063608266
vn 0.9998438734017765 0 -0.01766999776266037
vn 0 0.999844843899236 -0.017614997249858547
vn -0.06928399836957433 0 -0.9975969765240493
vn -0.20661103385838592 0 -0.9784231603391085
vn 0 -0.06950198697783071 -0.9975818130890988
vn 0 -0.20721105572558732 -0.978296263094717
vn -0.21689001057165314 0 -0.9761960475817488
vn 0 -0.21752092380493498 -0.9760556580989874
vn -0.30540305586769156 0 -0.9522231741911535
vn 0 -0.3061931331618914 -0.9519694140068284
vn -0.665425911906931 0 -0.7464639011786365
vn -0.0000010000003384911719 -0.66650422560572 -0.7455012523455072
vn -0.8561436963344461 0 -0.5167378167182962
vn -0.0000010000000555670045 -0.8568480476124767 -0.5155690286486252
vn -0.9757818419038387 0 -0.21874596455878165
vn -9.999995906827513e-7 -0.9759146005411573 -0.21815291070621448
vn -0.9433732828148622 0 -0.3317330994506125
vn -0.0000010000002817831193 -0.9436282658984412 -0.3310070932721852
vn -0.7214492865272482 0 -0.6924672750168952
vn -9.999999823785004e-7 -0.7225209872680964 -0.6913489878173941
vn -0.4693402210853445 0 -0.8830174159503084
vn -0.0000010000005591094688 -0.4703752629911162 -0.8824664933950968
vn -0.25690491599287696 0 -0.9664366839781554
vn 0 -0.25766202815357164 -0.9662351055761679
usemtl material_0_0
f 1/1/1 2/2/2 3/3/2
f 2/2/2 1/1/1 4/4/1
f 5/5/3 3/3/2 2/2/2
f 6/6/2 1/7/1 3/8/2
f 7/9/4 4/4/1 1/1/1
f 4/4/5 8/10/6 2/2/6
f 3/3/2 5/5/3 9/11/3
f 2/2/6 10/12/7 5/5/7
f 1/7/1 6/6/2 11/13/1
f 3/8/2 12/14/3 6/6/2
f 4/4/1 7/9/4 13/15/4
f 1/7/1 14/16/4 7/17/4
f 8/10/6 4/4/5 15/18/5
f 10/12/7 2/2/6 8/10/6
f 16/19/8 9/11/3 5/5/3
f 12/14/3 3/8/2 9/20/3
f 17/21/9 5/5/7 10/12/7
f 14/16/4 1/7/1 11/13/1
f 18/22/10 13/15/4 7/9/4
f 19/23/11 4/4/5 13/15/11
f 20/24/10 7/17/4 14/16/4
f 4/4/5 19/23/11 15/18/5
f 9/11/3 16/19/8 21/25/8
f 5/5/7 17/21/9 16/19/9
f 9/20/3 22/26/8 12/14/3
f 13/15/4 18/22/10 23/27/10
f 7/17/4 20/24/10 18/28/10
f 13/15/11 24/29/12 19/23/11
f 16/19/8 25/25/13 21/25/8
f 22/26/8 9/20/3 21/30/8
f 26/21/14 16/19/9 17/21/9
f 18/22/15 27/27/16 23/27/15
f 24/29/12 13/15/11 23/27/12
f 20/24/15 28/28/16 18/28/15
f 25/25/13 16/19/8 29/19/13
f 30/26/17 21/30/8 25/30/17
f 21/30/8 30/26/17 22/26/8
f 16/19/9 26/21/14 29/19/14
f 27/27/16 18/22/15 28/22/16
f 27/27/18 24/29/19 23/27/19
f 28/28/16 20/24/15 31/24/16
f 29/19/13 32/31/20 25/25/13
f 25/30/17 33/32/20 30/26/17
f 34/33/21 29/19/14 26/21/14
f 35/34/22 27/27/16 28/22/16
f 24/29/19 27/27/18 36/29/18
f 31/24/16 35/35/22 28/28/16
f 32/31/20 29/19/13 37/36/20
f 33/32/20 25/30/17 32/37/20
f 29/19/14 34/33/21 37/36/21
f 27/27/16 35/34/22 38/38/22
f 38/38/23 36/29/18 27/27/18
f 35/35/22 31/24/16 39/39/22
f 37/36/20 40/40/24 32/31/20
f 32/37/20 41/41/24 33/32/20
f 42/42/25 37/36/21 34/33/21
f 43/43/26 38/38/22 35/34/22
f 36/29/18 38/38/23 44/44/23
f 39/39/22 43/45/26 35/35/22
f 40/40/24 37/36/20 45/46/24
f 41/41/24 32/37/20 40/47/24
f 37/36/21 42/42/25 45/46/25
f 38/38/22 43/43/26 46/48/26
f 46/48/27 44/44/23 38/38/23
f 43/45/26 39/39/22 47/49/26
f 48/2/28 40/40/24 45/46/24
f 40/47/24 49/6/28 41/41/24
f 42/42/25 48/2/29 45/46/25
f 50/50/30 46/48/26 43/43/26
f 44/44/23 46/48/27 51/51/27
f 47/49/26 50/52/30 43/45/26
f 40/40/24 48/2/28 52/3/28
f 49/6/28 40/47/24 52/8/28
f 48/2/29 42/42/25 53/10/29
f 46/48/26 50/50/30 54/53/30
f 46/48/27 55/54/31 51/51/27
f 50/52/30 47/49/26 56/55/30
f 57/56/32 52/3/28 48/2/28
f 52/8/28 58/57/33 49/6/28
f 53/10/29 57/56/32 48/2/29
f 59/58/34 54/53/30 50/50/30
f 55/54/31 46/48/27 54/53/31
f 60/59/34 50/52/30 56/55/30
f 52/3/28 57/56/32 61/60/33
f 58/57/33 52/8/28 61/61/33
f 57/56/32 53/10/29 62/62/35
f 54/53/30 59/58/34 63/63/34
f 50/52/30 60/59/34 59/64/34
f 54/53/31 64/65/36 55/54/31
f 62/62/35 61/60/33 57/56/32
f 61/61/33 65/66/37 58/57/33
f 66/67/38 63/63/34 59/58/34
f 64/65/36 54/53/31 63/63/36
f 67/68/38 59/64/34 60/59/34
f 61/60/33 62/62/35 68/69/37
f 65/66/37 61/61/33 68/70/37
f 63/63/34 66/67/38 69/71/39
f 59/64/34 67/68/38 66/72/38
f 63/63/36 70/73/40 64/65/36
f 71/74/41 69/71/39 66/67/38
f 70/73/40 63/63/36 69/71/39
f 72/75/41 66/72/38 67/68/38
f 73/76/41 69/71/39 71/74/41
f 66/72/38 72/75/41 71/77/41
f 69/71/39 73/76/41 70/73/40
f 71/74/42 74/76/42 73/76/42
f 72/75/43 75/77/43 71/77/43
f 74/76/42 71/74/42 75/74/42
f 75/77/43 72/75/43 76/75/43
f 75/77/44 77/78/45 74/79/44
f 78/80/46 75/77/47 76/75/47
f 77/78/45 75/77/44 79/81/45
f 75/77/47 78/80/46 79/81/46
f 79/81/45 80/82/48 77/78/45
f 81/83/49 79/81/46 78/80/46
f 80/82/48 79/81/45 82/84/48
f 79/81/46 81/83/49 82/84/49
f 82/84/48 83/85/50 80/82/48
f 81/83/49 84/86/51 82/84/49
f 83/85/50 82/84/48 84/86/50
f 84/86/51 81/83/49 85/87/51
f 84/86/50 86/88/52 83/85/50
f 85/87/51 87/89/53 84/86/51
f 86/88/52 84/86/50 87/89/52
f 87/89/53 85/87/51 88/90/53
f 87/89/52 89/91/54 86/88/52
f 88/90/53 90/92/55 87/89/53
f 89/91/54 87/89/52 90/92/54
f 90/92/55 88/90/53 91/93/55
f 90/92/56 92/94/57 89/91/56
f 93/95/58 90/92/59 91/93/59
f 92/94/57 90/92/56 94/96/57
f 90/92/59 93/95/58 94/96/58
f 94/96/57 95/97/60 92/94/57
f 96/98/61 94/96/58 93/95/58
f 95/97/60 94/96/57 97/99/60
f 94/96/58 96/98/61 97/99/61
f 97/99/60 98/100/62 95/97/60
f 99/101/63 97/99/61 96/98/61
f 98/100/62 97/99/60 100/102/62
f 97/99/61 99/101/63 100/102/63
f 100/102/62 101/103/64 98/100/62
f 102/104/65 100/102/63 99/101/63
f 101/103/64 100/102/62 103/105/64
f 100/102/63 102/104/65 103/105/65
f 104/106/66 101/103/64 103/105/64
f 102/104/65 104/106/67 103/105/65
f 101/103/64 104/106/66 105/107/66
f 104/106/67 102/104/65 106/108/67
f 107/109/68 105/107/66 104/106/66
f 106/108/67 107/109/69 104/106/67
f 105/107/66 107/109/68 108/110/68
f 107/109/69 106/108/67 109/111/69
f 110/109/70 108/110/68 107/109/68
f 109/111/69 110/109/71 107/109/69
f 108/110/68 110/109/70 111/110/70
f 110/109/71 109/111/69 112/111/71
f 113/112/72 111/110/70 110/109/70
f 112/111/71 113/112/73 110/109/71
f 111/110/70 113/112/72 114/113/72
f 113/112/73 112/111/71 115/114/73
f 113/112/72 116/115/74 114/113/72
f 117/116/75 113/112/73 115/114/73
f 116/115/74 113/112/72 118/117/74
f 113/112/73 117/116/75 118/117/75
f 118/117/74 119/118/76 116/115/74
f 120/119/77 118/117/75 117/116/75
f 119/118/76 118/117/74 121/120/76
f 118/117/75 120/119/77 121/120/77
f 121/120/41 122/66/41 119/118/41
f 122/66/41 121/120/41 120/119/41
usemtl material_1_0
f 3//78 2//78 1//79
f 4//79 1//79 2//78
f 2//78 3//78 5//80
f 3//78 1//79 6//78
f 1//79 4//79 7//81
f 2//82 8//82 4//83
f 9//80 5//80 3//78
f 5//84 10//84 2//82
f 11//79 6//78 1//79
f 6//78 12//80 3//78
f 13//81 7//81 4//79
f 7//81 14//81 1//79
f 15//83 4//83 8//82
f 8//82 2//82 10//84
f 5//80 9//80 16//85
f 9//80 3//78 12//80
f 10//84 5//84 17//86
f 11//79 1//79 14//81
f 7//81 13//81 18//87
f 13//88 4//83 19//88
f 14//81 7//81 20//87
f 15//83 19//88 4//83
f 21//85 16//85 9//80
f 16//86 17//86 5//84
f 12//80 22//85 9//80
f 23//87 18//87 13//81
f 18//87 20//87 7//81
f 19//88 24//89 13//88
f 21//85 25//90 16//85
f 21//85 9//80 22//85
f 17//86 16//86 26//91
f 23//43 27//92 18//43
f 23//89 13//88 24//89
f 18//43 28//92 20//43
f 29//90 16//85 25//90
f 25//93 21//85 30//93
f 22//85 30//93 21//85
f 29//91 26//91 16//86
f 28//92 18//43 27//92
f 23//42 24//42 27//94
f 31//92 20//43 28//92
f 25//90 32//95 29//90
f 30//93 33//95 25//93
f 26//91 29//91 34//96
f 28//92 27//92 35//97
f 36//94 27//94 24//42
f 28//92 35//97 31//92
f 37//95 29//90 32//95
f 32//95 25//93 33//95
f 37//96 34//96 29//91
f 38//97 35//97 27//92
f 27//94 36//94 38//98
f 39//97 31//92 35//97
f 32//95 40//99 37//95
f 33//95 41//99 32//95
f 34//96 37//96 42//100
f 35//97 38//97 43//101
f 44//98 38//98 36//94
f 35//97 43//101 39//97
f 45//99 37//95 40//99
f 40//99 32//95 41//99
f 45//100 42//100 37//96
f 46//101 43//101 38//97
f 38//98 44//98 46//102
f 47//101 39//97 43//101
f 45//99 40//99 48//103
f 41//99 49//103 40//99
f 45//100 48//104 42//100
f 43//101 46//101 50//105
f 51//102 46//102 44//98
f 43//101 50//105 47//101
f 52//103 48//103 40//99
f 52//103 40//99 49//103
f 53//104 42//100 48//104
f 54//105 50//105 46//101
f 51//102 55//106 46//102
f 56//105 47//101 50//105
f 48//103 52//103 57//107
f 49//103 58//108 52//103
f 48//104 57//107 53//104
f 50//105 54//105 59//109
f 54//106 46//102 55//106
f 56//105 50//105 60//109
f 61//108 57//107 52//103
f 61//108 52//103 58//108
f 62//110 53//104 57//107
f 63//109 59//109 54//105
f 59//109 60//109 50//105
f 55//106 64//111 54//106
f 57//107 61//108 62//110
f 58//108 65//41 61//108
f 59//109 63//109 66//112
f 63//111 54//106 64//111
f 60//109 59//109 67//112
f 68//41 62//110 61//108
f 68//41 61//108 65//41
f 69//113 66//112 63//109
f 66//112 67//112 59//109
f 64//111 70//114 63//111
f 66//112 69//113 71//37
f 69//113 63//111 70//114
f 67//112 66//112 72//37
f 71//37 69//113 73//37
f 71//37 72//37 66//112
f 70//114 73//37 69//113
f 73//19 74//19 71//19
f 71//15 75//15 72//15
f 75//19 71//19 74//19
f 76//15 72//15 75//15
f 74//115 77//116 75//115
f 76//117 75//117 78//118
f 79//116 75//115 77//116
f 79//118 78//118 75//117
f 77//116 80//119 79//116
f 78//118 79//118 81//120
f 82//119 79//116 80//119
f 82//120 81//120 79//118
f 80//119 83//121 82//119
f 82//120 84//122 81//120
f 84//121 82//119 83//121
f 85//122 81//120 84//122
f 83//121 86//123 84//121
f 84//122 87//124 85//122
f 87//123 84//121 86//123
f 88//124 85//122 87//124
f 86//123 89//125 87//123
f 87//124 90//126 88//124
f 90//125 87//123 89//125
f 91//126 88//124 90//126
f 89//127 92//128 90//127
f 91//129 90//129 93//130
f 94//128 90//127 92//128
f 94//130 93//130 90//129
f 92//128 95//131 94//128
f 93//130 94//130 96//132
f 97//131 94//128 95//131
f 97//132 96//132 94//130
f 95//131 98//133 97//131
f 96//132 97//132 99//134
f 100//133 97//131 98//133
f 100//134 99//134 97//132
f 98//133 101//135 100//133
f 99//134 100//134 102//136
f 103//135 100//133 101//135
f 103//136 102//136 100//134
f 103//135 101//135 104//137
f 103//136 104//138 102//136
f 105//137 104//137 101//135
f 106//138 102//136 104//138
f 104//137 105//137 107//139
f 104//138 107//140 106//138
f 108//139 107//139 105//137
f 109//140 106//138 107//140
f 107//139 108//139 110//141
f 107//140 110//142 109//140
f 111//141 110//141 108//139
f 112//142 109//140 110//142
f 110//141 111//141 113//143
f 110//142 113//144 112//142
f 114//143 113//143 111//141
f 115//144 112//142 113//144
f 114//143 116//145 113//143
f 115//144 113//144 117//146
f 118//145 113//143 116//145
f 118//146 117//146 113//144
f 116//145 119//147 118//145
f 117//146 118//146 120//148
f 121//147 118//145 119//147
f 121//148 120//148 118//146
f 119//37 122//37 121//37
f 120//37 121//37 122//37
