# SSTK version 0.8.0
# 42
mtllib original-42.mtl
o bpe12r1/bpe12r/mesh23/mesh23-geometry#mesh23-geometry
v -0.042460 0.229304 0.268328
v -0.040600 0.229304 0.262605
v -0.037591 0.229304 0.271865
v -0.041851 0.247116 0.266455
v -0.040565 0.228024 0.267713
v -0.034582 0.229304 0.262605
v -0.042460 0.268976 0.268328
v -0.040600 0.246207 0.262605
v -0.039429 0.228024 0.264216
v -0.032723 0.229304 0.268328
v -0.037591 0.268976 0.271865
v -0.037591 0.228024 0.269873
v -0.040600 0.250966 0.262605
v -0.041851 0.247116 0.242431
v -0.034617 0.228024 0.267713
v -0.034582 0.246207 0.262605
v -0.037591 0.244021 0.262605
v -0.035753 0.228024 0.264216
v -0.040600 0.268976 0.262605
v -0.037591 0.244021 0.242431
v -0.032723 0.268976 0.268328
v -0.033331 0.247116 0.266455
v -0.040224 0.252124 0.262605
v -0.033331 0.247116 0.242431
v -0.034959 0.252124 0.262605
v -0.040224 0.252124 0.242431
v -0.034582 0.268976 0.262605
v -0.034959 0.252124 0.242431
v -0.037591 0.252124 0.242431
v -0.034582 0.250966 0.262605
vn -0.6799798771871456 -0.6991518737244434 0.2209389600956658
vn -0.42025102043890905 -0.69915203400326 -0.5784250281317018
vn 0 -0.6991520315202213 0.7149730322334876
vn -0.9510565608316645 0 -0.3090168573056278
vn -0.34718506290247486 -0.930987168674874 0.11280702043820882
vn 0.4202510204389087 -0.6991520340032602 -0.5784250281317018
vn -0.9510565608316645 0 0.3090168573056278
vn -0.5877850844899974 0 -0.8090171162905557
vn -0.21457205168590765 -0.9309872242552986 -0.29533307113954316
vn 0.6799798771871454 -0.6991518737244437 0.2209389600956658
vn 0 0 1
vn 0 -0.9309871131740587 0.3650520443770071
vn -0.9510565608316646 -0.30901685730562756 0
vn -0.5877850844899977 -0.8090171162905556 0
vn 0.3471850629024744 -0.9309871686748742 0.11280702043820882
vn 0.5877850844899974 0 -0.8090171162905557
vn 0 0 -1
vn 0.2145720516859073 -0.9309872242552988 -0.2953330711395432
vn -0.9510565608316643 0.309016857305628 0
vn 0 -1 0
vn 0.9510565608316645 0 0.3090168573056278
vn 0.9510565608316645 0 -0.3090168573056278
vn -0.5877850844899972 0.8090171162905558 0
vn 0.5877850844899972 -0.8090171162905558 0
vn 0.9510565608316643 -0.309016857305628 0
vn 0.5877850844899977 0.8090171162905556 0
vn 0 1 0
vn 0.9510565608316646 0.30901685730562756 0
vn 0 0.6991520315202213 -0.7149730322334876
vn 0.42025102043890905 0.69915203400326 0.5784250281317018
vn 0.6799798771871456 0.6991518737244434 -0.2209389600956658
vn 0.34718506290247486 0.930987168674874 -0.11280702043820882
vn -0.4202510204389087 0.6991520340032602 0.5784250281317018
vn 0.5877850844899974 0 0.8090171162905557
vn 0.21457205168590765 0.9309872242552986 0.29533307113954316
vn -0.6799798771871454 0.6991518737244437 -0.2209389600956658
vn 0 0.9309871131740587 -0.3650520443770071
vn -0.3471850629024744 0.9309871686748742 -0.11280702043820882
vn -0.5877850844899974 0 0.8090171162905557
vn -0.2145720516859073 0.9309872242552988 0.2953330711395432
usemtl material_0_0
f 1//1 2//2 3//3
f 1//1 4//4 2//2
f 1//1 2//2 5//5
f 6//6 3//3 2//2
f 1//1 3//3 7//7
f 1//1 5//5 3//3
f 7//7 4//4 1//1
f 8//8 2//2 4//4
f 9//9 5//5 2//2
f 10//10 3//3 6//6
f 2//2 8//8 6//6
f 2//2 6//6 9//9
f 11//11 7//7 3//3
f 12//12 3//3 5//5
f 4//4 7//7 13//8
f 4//13 14//13 8//14
f 5//5 9//9 12//12
f 3//3 10//10 11//11
f 3//3 12//12 10//10
f 10//10 15//15 6//6
f 6//6 16//16 10//10
f 17//17 6//6 8//8
f 18//18 9//9 6//6
f 19//8 13//8 7//7
f 4//13 13//19 14//13
f 20//20 8//14 14//13
f 18//18 12//12 9//9
f 21//21 11//11 10//10
f 15//15 10//10 12//12
f 18//18 6//6 15//15
f 6//6 17//17 16//16
f 22//22 10//10 16//16
f 17//20 8//14 20//20
f 13//8 19//8 23//17
f 13//19 23//23 14//13
f 15//15 12//12 18//18
f 10//10 22//22 21//21
f 17//20 20//20 16//24
f 22//25 16//24 24//25
f 25//17 23//17 19//8
f 26//23 14//13 23//23
f 21//21 22//22 27//16
f 24//25 16//24 20//20
f 24//25 28//26 22//25
f 25//26 29//27 23//23
f 27//16 25//17 19//8
f 26//23 23//23 29//27
f 30//16 27//16 22//22
f 30//28 22//25 28//26
f 28//26 29//27 25//26
f 30//16 25//17 27//16
f 30//28 28//26 25//26
usemtl material_1_0
f 3//29 2//30 1//31
f 2//30 4//21 1//31
f 5//32 2//30 1//31
f 2//30 3//29 6//33
f 7//22 3//29 1//31
f 3//29 5//32 1//31
f 1//31 4//21 7//22
f 4//21 2//30 8//34
f 2//30 5//32 9//35
f 6//33 3//29 10//36
f 6//33 8//34 2//30
f 9//35 6//33 2//30
f 3//29 7//22 11//17
f 5//32 3//29 12//37
f 13//34 7//22 4//21
f 8//26 14//28 4//28
f 12//37 9//35 5//32
f 11//17 10//36 3//29
f 10//36 12//37 3//29
f 6//33 15//38 10//36
f 10//36 16//39 6//33
f 8//34 6//33 17//11
f 6//33 9//35 18//40
f 7//22 13//34 19//34
f 14//28 13//25 4//28
f 14//28 8//26 20//27
f 9//35 12//37 18//40
f 10//36 11//17 21//4
f 12//37 10//36 15//38
f 15//38 6//33 18//40
f 16//39 17//11 6//33
f 16//39 10//36 22//7
f 20//27 8//26 17//27
f 23//11 19//34 13//34
f 14//28 23//24 13//25
f 18//40 12//37 15//38
f 21//4 22//7 10//36
f 16//23 20//27 17//27
f 24//19 16//23 22//19
f 19//34 23//11 25//11
f 23//24 14//28 26//24
f 27//39 22//7 21//4
f 20//27 16//23 24//19
f 22//19 28//14 24//19
f 23//24 29//20 25//14
f 19//34 25//11 27//39
f 29//20 23//24 26//24
f 22//7 27//39 30//39
f 28//14 22//19 30//13
f 25//14 29//20 28//14
f 27//39 25//11 30//39
f 25//14 28//14 30//13
