# SSTK version 0.8.0
# 45
mtllib original-45.mtl
o dp5r_1_1/dp5r_1/mesh25/mesh25-geometry#mesh25-geometry
v -0.485505 0.204988 0.242431
v -0.485505 -0.875910 0.242431
v 0.003361 0.204988 0.242431
v -0.485505 0.204988 0.227074
v 0.003361 -0.875910 0.242431
v -0.485505 -0.875910 0.227074
v 0.003361 -0.875910 0.227074
v 0.003361 0.204988 0.227074
vt 0 0
vt 0 1.466344
vt 0.662847 0
vt 0.020833 0
vt 0.020833 1.466344
vt 0.662847 1.466344
vt -0.020833 0
vt -0.020833 0.662847
vt -0.020833 1.466344
vt 0.020833 0.662847
vt 0 0.662847
vt -0.662847 1.466344
vt -0.662847 0
vn 0 0 1
vn 0 0 -1
vn -1 0 0
vn 1 0 0
vn 0 1 0
vn 0 -1 0
usemtl material_0_0
f 1/1/1 2/2/1 3/3/1
f 3/3/2 2/2/2 1/1/2
f 1/4/3 4/1/3 2/5/3
f 2/5/4 4/1/4 1/4/4
f 5/6/1 3/3/1 2/2/1
f 2/2/2 3/3/2 5/6/2
f 1/7/5 3/8/5 4/1/5
f 4/1/6 3/8/6 1/7/6
f 6/2/3 2/5/3 4/1/3
f 4/1/4 2/5/4 6/2/4
f 5/9/4 7/2/4 3/7/4
f 3/7/3 7/2/3 5/9/3
f 5/10/6 2/4/6 7/11/6
f 7/11/5 2/4/5 5/10/5
f 8/11/5 4/1/5 3/8/5
f 3/8/6 4/1/6 8/11/6
f 6/1/6 7/11/6 2/4/6
f 2/4/5 7/11/5 6/1/5
f 7/12/1 4/1/1 6/2/1
f 8/1/4 3/7/4 7/2/4
f 7/2/3 3/7/3 8/1/3
f 4/1/1 7/12/1 8/13/1
usemtl material_1_0
f 6//2 4//2 7//2
f 8//2 7//2 4//2
