# SSTK version 0.8.0
# 4
mtllib original-4.mtl
o mesh2/mesh2-geometry#mesh2-geometry
v 0.480709 0.824107 -0.245155
v 0.496066 0.824107 0.225794
v 0.496066 0.824107 -0.245155
v 0.480709 0.824107 0.225794
v 0.496066 -0.878469 -0.245155
v 0.480709 -0.878469 0.225794
v 0.496066 -0.878469 0.225794
v 0.480709 -0.878469 -0.245155
vt 0 0
vt -0.555556 3.079623
vt -0.555556 0
vt 0 3.079623
vn 0 1 0
vn 0 -1 0
vn -1 0 0
vn 0 0 -1
vn 0 0 1
vn 1 0 0
usemtl material_0_0
f 1//1 2//1 3//1
f 2//1 1//1 4//1
f 3//2 2//2 1//2
f 4//2 1//2 2//2
f 3//3 5//3 2//3
f 5//4 1//4 3//4
f 3//5 1//5 5//5
f 1//3 6//3 4//3
f 4//6 6//6 1//6
f 7//3 2//3 5//3
f 1//4 5//4 8//4
f 8//5 5//5 1//5
f 6//3 1//3 8//3
f 8//6 1//6 6//6
f 6//2 5//2 7//2
f 7//1 5//1 6//1
f 5//2 6//2 8//2
f 8//1 6//1 5//1
usemtl material_1_0
f 2/1/6 5/2/6 3/3/6
f 5/2/6 2/1/6 7/4/6
