# SSTK version 0.8.0
# 47
mtllib original-47.mtl
o BP5br1/BP5br/mesh26/mesh26-geometry#mesh26-geometry
v -0.037591 -0.195619 0.271865
v -0.032723 -0.195619 0.268328
v -0.037591 0.021464 0.271865
v -0.032723 0.021464 0.268328
v -0.042460 0.021464 0.268328
v -0.034582 0.021464 0.262605
v -0.042460 -0.195619 0.268328
v -0.034582 -0.195619 0.262605
v -0.040600 -0.195619 0.262605
v -0.040600 0.021464 0.262605
vn 0 0 1
vn 0.9510565608316643 0 0.3090168573056277
vn -0.9510565608316643 0 0.3090168573056277
vn 0.5877850844899974 0 -0.8090171162905556
vn -0.5877850844899974 0 -0.8090171162905556
vn 0 0 -1
vn -0.9510565608316643 0 -0.3090168573056277
vn 0.9510565608316643 0 -0.3090168573056277
vn -0.5877850844899974 0 0.8090171162905556
vn 0.5877850844899974 0 0.8090171162905556
usemtl material_0_0
f 1//1 2//2 3//1
f 4//2 3//1 2//2
f 3//1 5//3 1//1
f 4//2 2//2 6//4
f 7//3 1//1 5//3
f 8//4 6//4 2//2
f 7//3 5//3 9//5
f 6//4 8//4 10//5
f 10//5 9//5 5//3
f 9//5 10//5 8//4
usemtl material_1_0
f 3//6 2//7 1//6
f 2//7 3//6 4//7
f 1//6 5//8 3//6
f 6//9 2//7 4//7
f 5//8 1//6 7//8
f 2//7 6//9 8//9
f 9//10 5//8 7//8
f 10//10 8//9 6//9
f 5//8 9//10 10//10
f 8//9 10//10 9//10
