# SSTK version 0.8.0
# 24
mtllib original-24.mtl
o bpe12_1/bpe12/mesh12/mesh12-geometry#mesh12-geometry
v 0.046872 0.229304 0.271865
v 0.049881 0.229304 0.262605
v 0.051741 0.229304 0.268328
v 0.043864 0.229304 0.262605
v 0.051132 0.247116 0.266455
v 0.049846 0.228024 0.267713
v 0.051741 0.268976 0.268328
v 0.042004 0.229304 0.268328
v 0.049881 0.246207 0.262605
v 0.048710 0.228024 0.264216
v 0.046872 0.268976 0.271865
v 0.046872 0.228024 0.269873
v 0.043898 0.228024 0.267713
v 0.043864 0.246207 0.262605
v 0.046872 0.244021 0.262605
v 0.045034 0.228024 0.264216
v 0.051132 0.247116 0.242431
v 0.049881 0.250966 0.262605
v 0.042004 0.268976 0.268328
v 0.042613 0.247116 0.266455
v 0.046872 0.244021 0.242431
v 0.049881 0.268976 0.262605
v 0.042613 0.247116 0.242431
v 0.049505 0.252124 0.262605
v 0.043864 0.268976 0.262605
v 0.044240 0.252124 0.242431
v 0.049505 0.252124 0.242431
v 0.044240 0.252124 0.262605
v 0.043864 0.250966 0.262605
v 0.046872 0.252124 0.242431
vn 0 -0.6991520315202214 0.7149730322334875
vn 0.42025102043890905 -0.6991520340032599 -0.5784250281317019
vn 0.6799798771871457 -0.6991518737244435 0.2209389600956657
vn -0.4202510204389087 -0.6991520340032601 -0.5784250281317019
vn 0.9510565608316645 0 -0.3090168573056278
vn 0.34718506290247486 -0.930987168674874 0.11280702043820862
vn 0.9510565608316645 0 0.3090168573056278
vn -0.6799798771871455 -0.6991518737244438 0.2209389600956657
vn 0.5877850844899974 0 -0.8090171162905557
vn 0.21457205168590765 -0.9309872242552985 -0.2953330711395434
vn 0 0 1
vn 0 -0.9309871131740588 0.3650520443770069
vn -0.3471850629024744 -0.9309871686748742 0.11280702043820862
vn -0.5877850844899974 0 -0.8090171162905557
vn 0 0 -1
vn -0.2145720516859073 -0.9309872242552987 -0.29533307113954343
vn 0.5877850844899977 -0.8090171162905556 0
vn 0.9510565608316646 -0.30901685730562756 0
vn -0.9510565608316645 0 0.3090168573056278
vn -0.9510565608316645 0 -0.3090168573056278
vn 0 -1 0
vn 0.9510565608316643 0.309016857305628 0
vn -0.9510565608316643 -0.309016857305628 0
vn -0.5877850844899972 -0.8090171162905558 0
vn 0.5877850844899972 0.8090171162905558 0
vn -0.5877850844899977 0.8090171162905556 0
vn -0.9510565608316646 0.30901685730562756 0
vn 0 1 0
vn -0.6799798771871457 0.6991518737244435 -0.2209389600956657
vn -0.42025102043890905 0.6991520340032599 0.5784250281317019
vn 0 0.6991520315202214 -0.7149730322334875
vn 0.4202510204389087 0.6991520340032601 0.5784250281317019
vn -0.34718506290247486 0.930987168674874 -0.11280702043820862
vn 0.6799798771871455 0.6991518737244438 -0.2209389600956657
vn -0.5877850844899974 0 0.8090171162905557
vn -0.21457205168590765 0.9309872242552985 0.2953330711395434
vn 0 0.9309871131740588 -0.3650520443770069
vn 0.3471850629024744 0.9309871686748742 -0.11280702043820862
vn 0.5877850844899974 0 0.8090171162905557
vn 0.2145720516859073 0.9309872242552987 0.29533307113954343
usemtl material_0_0
f 1//1 2//2 3//3
f 2//2 1//1 4//4
f 2//2 5//5 3//3
f 6//6 2//2 3//3
f 7//7 1//1 3//3
f 1//1 6//6 3//3
f 4//4 1//1 8//8
f 4//4 9//9 2//2
f 10//10 4//4 2//2
f 5//5 2//2 9//9
f 3//3 5//5 7//7
f 2//2 6//6 10//10
f 1//1 7//7 11//11
f 6//6 1//1 12//12
f 11//11 8//8 1//1
f 8//8 12//12 1//1
f 4//4 13//13 8//8
f 8//8 14//14 4//4
f 9//9 4//4 15//15
f 4//4 10//10 16//16
f 9//17 17//18 5//18
f 18//9 7//7 5//5
f 12//12 10//10 6//6
f 8//8 11//11 19//19
f 12//12 8//8 13//13
f 13//13 4//4 16//16
f 14//14 8//8 20//20
f 14//14 15//15 4//4
f 21//21 9//17 15//21
f 10//10 12//12 16//16
f 17//18 9//17 21//21
f 17//18 18//22 5//18
f 7//7 18//9 22//9
f 19//19 20//20 8//8
f 16//16 12//12 13//13
f 23//23 14//24 20//23
f 14//24 21//21 15//21
f 17//18 24//25 18//22
f 24//15 22//9 18//9
f 25//14 20//20 19//19
f 21//21 14//24 23//23
f 20//23 26//26 23//23
f 24//25 17//18 27//25
f 22//9 24//15 28//15
f 20//20 25//14 29//14
f 26//26 20//23 29//27
f 30//28 24//25 27//25
f 24//25 30//28 28//26
f 22//9 28//15 25//14
f 25//14 28//15 29//14
f 28//26 26//26 29//27
f 28//26 30//28 26//26
usemtl material_1_0
f 3//29 2//30 1//31
f 4//32 1//31 2//30
f 3//29 5//19 2//30
f 3//29 2//30 6//33
f 3//29 1//31 7//20
f 3//29 6//33 1//31
f 8//34 1//31 4//32
f 2//30 9//35 4//32
f 2//30 4//32 10//36
f 9//35 2//30 5//19
f 7//20 5//19 3//29
f 10//36 6//33 2//30
f 11//15 7//20 1//31
f 12//37 1//31 6//33
f 1//31 8//34 11//15
f 1//31 12//37 8//34
f 8//34 13//38 4//32
f 4//32 14//39 8//34
f 15//11 4//32 9//35
f 16//40 10//36 4//32
f 5//27 17//27 9//26
f 5//19 7//20 18//35
f 6//33 10//36 12//37
f 19//5 11//15 8//34
f 13//38 8//34 12//37
f 16//40 4//32 13//38
f 20//7 8//34 14//39
f 4//32 15//11 14//39
f 15//28 9//26 21//28
f 16//40 12//37 10//36
f 21//28 9//26 17//27
f 5//27 18//23 17//27
f 22//35 18//35 7//20
f 8//34 20//7 19//5
f 13//38 12//37 16//40
f 20//22 14//25 23//22
f 15//28 21//28 14//25
f 18//23 24//24 17//27
f 18//35 22//35 24//11
f 19//5 20//7 25//39
f 23//22 14//25 21//28
f 23//22 26//17 20//22
f 27//24 17//27 24//24
f 28//11 24//11 22//35
f 29//39 25//39 20//7
f 29//18 20//22 26//17
f 27//24 24//24 30//21
f 28//17 30//21 24//24
f 25//39 28//11 22//35
f 29//39 28//11 25//39
f 29//18 26//17 28//17
f 26//17 30//21 28//17
