# SSTK version 0.8.0
# 7
mtllib original-7.mtl
o mesh4/mesh4-geometry#mesh4-geometry
v -0.486785 0.824107 -0.245155
v -0.486785 -0.878469 0.225794
v -0.486785 0.824107 0.225794
v -0.486785 -0.878469 -0.245155
v -0.471428 0.824107 0.225794
v -0.471428 -0.878469 -0.245155
v -0.471428 0.824107 -0.245155
v -0.471428 -0.878469 0.225794
vt 0.555556 0
vt 0 3.079623
vt 0 0
vt 0.555556 3.079623
vn -1 0 0
vn 1 0 0
vn 0 1 0
vn 0 -1 0
vn 0 0 -1
vn 0 0 1
usemtl material_0_0
f 1/1/1 2/2/1 3/3/1
f 2/2/1 1/1/1 4/4/1
usemtl material_1_0
f 3//2 2//2 1//2
f 4//2 1//2 2//2
f 5//3 1//3 3//3
f 3//4 1//4 5//4
f 1//5 6//5 4//5
f 4//6 6//6 1//6
f 6//4 2//4 4//4
f 4//3 2//3 6//3
f 1//3 5//3 7//3
f 7//4 5//4 1//4
f 6//5 1//5 7//5
f 7//6 1//6 6//6
f 2//4 6//4 8//4
f 8//3 6//3 2//3
f 5//2 6//2 7//2
f 7//1 6//1 5//1
f 6//2 5//2 8//2
f 8//1 5//1 6//1
