# SSTK version 0.8.0
# 36
mtllib original-36.mtl
o mesh20/mesh20-geometry#mesh20-geometry
v -0.471428 0.193470 0.225794
v 0.480709 0.193470 -0.222120
v 0.480709 0.193470 0.225794
v -0.471428 0.193470 -0.222120
v 0.480709 0.213946 0.225794
v -0.471428 0.213946 -0.222120
v 0.480709 0.213946 -0.222120
v -0.471428 0.213946 0.225794
vn 0 -1 0
vn 0 1 0
vn 1 0 0
vn -1 0 0
vn 0 0 -1
vn 0 0 1
usemtl material_0_0
f 1//1 2//1 3//1
f 2//1 1//1 4//1
f 3//2 2//2 1//2
f 4//2 1//2 2//2
f 2//3 5//3 3//3
f 3//4 5//4 2//4
f 1//4 6//4 4//4
f 4//3 6//3 1//3
f 6//5 2//5 4//5
f 4//6 2//6 6//6
f 5//3 2//3 7//3
f 7//4 2//4 5//4
f 6//4 1//4 8//4
f 8//3 1//3 6//3
f 2//5 6//5 7//5
f 7//6 6//6 2//6
f 6//2 5//2 7//2
f 7//1 5//1 6//1
f 5//2 6//2 8//2
f 8//1 6//1 5//1
