# SSTK version 0.8.0
# 15
mtllib original-15.mtl
o E3_2_1/E3_2/mesh10/mesh10-geometry#mesh10-geometry
v -0.675606 -0.371523 -0.414754
v -0.663143 -0.521070 -0.414754
v -0.675606 -0.521070 -0.414754
v -0.663143 -0.371523 -0.414754
v -0.675606 -0.521070 0.278981
v -0.663143 -0.371523 0.278981
v -0.663143 -0.521070 0.278981
v -0.675606 -0.371523 0.278981
vt 0.423307 -0.006303
vt 0.41289 -0.100053
vt 0.423307 -0.100053
vt 0.41289 -0.006303
vt -0.022006 -0.107866
vt 0.41289 -0.107866
vt -0.022006 -0.006303
vt -0.022006 -0.100053
vt 0 0
vt -0.434896 0.09375
vt -0.434896 0
vt 0 0.434896
vt 0.010417 0
vt 0.010417 0.434896
vt 0 0.09375
vt 0.010417 0.09375
vn 0 0 -1
vn 0 -1 0
vn 1 0 0
vn 0 0 1
vn 0 1 0
vn -1 0 0
usemtl material_0_0
f 1/1/1 2/2/1 3/3/1
f 2/2/1 1/1/1 4/4/1
f 2/2/2 5/5/2 3/6/2
f 6/7/3 2/2/3 4/4/3
f 5/5/2 2/2/2 7/8/2
f 2/2/3 6/7/3 7/8/3
usemtl material_1_0
f 3//4 2//4 1//4
f 4//4 1//4 2//4
f 3//5 5//5 2//5
f 3//3 1//3 5//3
f 4//2 6//2 1//2
f 4//6 2//6 6//6
f 7//5 2//5 5//5
f 8//3 5//3 1//3
f 8//2 1//2 6//2
f 7//6 6//6 2//6
f 7//1 5//1 6//1
f 8//1 6//1 5//1
usemtl material_2_0
f 5/9/6 1/10/6 3/11/6
f 1/12/5 6/13/5 4/14/5
f 1/10/6 5/9/6 8/15/6
f 6/13/5 1/12/5 8/9/5
f 6/16/4 5/9/4 7/13/4
f 5/9/4 6/16/4 8/15/4
