# SSTK version 0.8.0
# 19
mtllib original-19.mtl
o E1_1_2/E1_1_1_2/mesh13/mesh13-geometry#mesh13-geometry
v 0.703557 -0.371523 -0.414754
v 0.691095 -0.371523 -0.414754
v 0.703557 0.625463 -0.414754
v 0.691095 0.625463 -0.414754
v 0.703557 -0.371523 0.278981
v 0.691095 0.625463 0.278981
v 0.703557 0.625463 0.278981
v 0.691095 -0.371523 0.278981
vt 0.423307 -0.006303
vt 0.41289 -0.006303
vt 0.423307 0.618697
vt 0.41289 0.618697
vt 0.425911 0.618697
vt -0.008985 0.618697
vt 0.425911 0.629113
vt 0.425911 -0.006303
vt -0.008985 0.629113
vt -0.008985 -0.006303
vt -0.434896 0
vt -0.434896 0.625
vt 0 0
vt 0 0.625
vn 0 0 -1
vn 0 1 0
vn -1 0 0
vn 0 0 1
vn 0 -1 0
vn 1 0 0
usemtl material_0_0
f 1/1/1 2/2/1 3/3/1
f 4/4/1 3/3/1 2/2/1
f 4/5/2 6/6/2 3/7/2
f 4/5/3 2/8/3 6/6/3
f 7/9/2 3/7/2 6/6/2
f 8/10/3 6/6/3 2/8/3
usemtl material_1_0
f 3//4 2//4 1//4
f 2//4 3//4 4//4
f 5//3 3//3 1//3
f 3//5 6//5 4//5
f 6//6 2//6 4//6
f 3//3 5//3 7//3
f 6//5 3//5 7//5
f 2//6 6//6 8//6
usemtl material_2_0
f 1/11/6 3/12/6 5/13/6
f 7/14/6 5/13/6 3/12/6
