# SSTK version 0.8.0
# 24
mtllib original-24.mtl
o T_1_1/T_1/mesh18/mesh18-geometry#mesh18-geometry
v 0.691096 -0.346598 0.278981
v -0.663143 -0.521070 0.278981
v 0.691096 -0.521070 0.278981
v -0.663143 -0.346598 0.278981
v 0.691096 -0.521070 0.266519
v -0.663143 -0.346598 0.266519
v -0.663143 -0.521070 0.266519
v 0.691096 -0.346598 0.266519
vt 0.59375 0.109375
vt 0 0
vt 0.59375 0
vt 0 0.109375
vt -0.022006 -0.506303
vt -0.014193 -0.100053
vt -0.022006 -0.100053
vt -0.022006 0.009322
vt -0.014193 0.415572
vt -0.022006 0.415572
vt 0.392057 0.009322
vt 0.399869 -0.100053
vt 0.399869 0.009322
vt -0.014193 -0.506303
vt -0.014193 0.009322
vt 0.392057 -0.100053
vn 0 0 1
vn 0 0 -1
vn 0 1 0
vn -1 0 0
vn 0 -1 0
vn 1 0 0
usemtl material_0_0
f 1/1/1 2/2/1 3/3/1
f 2/2/1 1/1/1 4/4/1
usemtl material_1_0
f 3//2 2//2 1//2
f 4//2 1//2 2//2
f 3//3 5//3 2//3
f 3//4 1//4 5//4
f 4//5 6//5 1//5
f 4//6 2//6 6//6
f 7//3 2//3 5//3
f 8//4 5//4 1//4
f 8//5 1//5 6//5
f 7//6 6//6 2//6
f 7//1 5//1 6//1
f 8//1 6//1 5//1
usemtl material_2_0
f 2/5/5 5/6/5 3/7/5
f 5/6/6 1/8/6 3/7/6
f 1/8/3 6/9/3 4/10/3
f 6/11/4 2/12/4 4/13/4
f 5/6/5 2/5/5 7/14/5
f 1/8/6 5/6/6 8/15/6
f 6/9/3 1/8/3 8/15/3
f 2/12/4 6/11/4 7/16/4
f 6/11/2 5/6/2 7/16/2
f 5/6/2 6/11/2 8/15/2
