# SSTK version 0.8.0
# 32
mtllib original-32.mtl
o mesh23/mesh23-geometry#mesh23-geometry
v -0.356424 0.327135 0.441636
v -0.377595 0.326177 0.437190
v -0.377279 0.327135 0.436282
v -0.356585 0.326177 0.442584
v -0.397412 0.326177 0.428368
v -0.377163 0.328444 0.435950
v -0.334969 0.327135 0.443438
v -0.378027 0.325827 0.438430
v -0.396949 0.327135 0.427525
v -0.398045 0.325827 0.429519
v -0.356366 0.328444 0.441289
v -0.396779 0.328444 0.427217
v -0.334969 0.326177 0.444399
v -0.356804 0.325827 0.443879
v -0.403928 0.326177 0.424039
v -0.404652 0.325827 0.425129
v -0.356424 0.329753 0.441636
v -0.377279 0.329753 0.436282
v -0.313353 0.326177 0.442584
v -0.334969 0.328444 0.443086
v -0.378459 0.326177 0.439671
v -0.398677 0.326177 0.430670
v -0.404637 0.326177 0.423568
v -0.405556 0.325827 0.424528
v -0.403204 0.328444 0.422949
v -0.406476 0.326177 0.425489
v -0.334969 0.329753 0.443438
v -0.396949 0.329753 0.427525
v -0.313513 0.327135 0.441636
v -0.313134 0.325827 0.443879
v -0.334969 0.325827 0.445713
v -0.313572 0.328444 0.441289
v -0.357023 0.326177 0.445174
v -0.405376 0.326177 0.426219
v -0.403398 0.327135 0.423241
v -0.377595 0.330711 0.437190
v -0.356585 0.330711 0.442584
v -0.397412 0.330711 0.428368
v -0.292343 0.326177 0.437190
v -0.291911 0.325827 0.438430
v -0.313513 0.329753 0.441636
v -0.378775 0.327135 0.440579
v -0.399141 0.327135 0.431512
v -0.405907 0.327135 0.427017
v -0.403964 0.327135 0.422865
v -0.403718 0.328444 0.422607
v -0.403398 0.329753 0.423241
v -0.407149 0.327135 0.426192
v -0.334969 0.330711 0.444399
v -0.403928 0.330711 0.424039
v -0.292774 0.328444 0.435950
v -0.292659 0.327135 0.436282
v -0.312915 0.326177 0.445174
v -0.291479 0.326177 0.439671
v -0.334969 0.326177 0.447026
v -0.313353 0.330711 0.442584
v -0.357183 0.327135 0.446122
v -0.404637 0.330711 0.423568
v -0.378027 0.331062 0.438430
v -0.398045 0.331062 0.429519
v -0.356804 0.331062 0.443879
v -0.405556 0.331062 0.424528
v -0.272526 0.326177 0.428368
v -0.271893 0.325827 0.429519
v -0.271260 0.326177 0.430670
v -0.292343 0.330711 0.437190
v -0.292659 0.329753 0.436282
v -0.357242 0.328444 0.446469
v -0.378891 0.328444 0.440911
v -0.399310 0.328444 0.431821
v -0.406101 0.328444 0.427309
v -0.403964 0.329753 0.422865
v -0.404652 0.331062 0.425129
v -0.334969 0.331062 0.445713
v -0.313134 0.331062 0.443879
v -0.273158 0.328444 0.427217
v -0.272989 0.327135 0.427525
v -0.312755 0.327135 0.446122
v -0.291163 0.327135 0.440579
v -0.270797 0.327135 0.431512
v -0.334969 0.327135 0.447987
v -0.291911 0.331062 0.438430
v -0.334969 0.328444 0.448339
v -0.407395 0.328444 0.426450
v -0.378459 0.330711 0.439671
v -0.398677 0.330711 0.430670
v -0.406476 0.330711 0.425489
v -0.357023 0.330711 0.445174
v -0.265300 0.326177 0.423568
v -0.264381 0.325827 0.424528
v -0.263462 0.326177 0.425489
v -0.262789 0.327135 0.426192
v -0.272526 0.330711 0.428368
v -0.271893 0.331062 0.429519
v -0.272989 0.329753 0.427525
v -0.378775 0.329753 0.440579
v -0.357183 0.329753 0.446122
v -0.399141 0.329753 0.431512
v -0.405907 0.329753 0.427017
v -0.407149 0.329753 0.426192
v -0.405376 0.330711 0.426219
v -0.334969 0.330711 0.447026
v -0.312915 0.330711 0.445174
v -0.291479 0.330711 0.439671
v -0.266220 0.328444 0.422607
v -0.265973 0.327135 0.422865
v -0.312696 0.328444 0.446469
v -0.291047 0.328444 0.440911
v -0.270628 0.328444 0.431821
v -0.271260 0.330711 0.430670
v -0.334969 0.329753 0.447987
v -0.262543 0.328444 0.426450
v -0.265300 0.330711 0.423568
v -0.264381 0.331062 0.424528
v -0.263462 0.330711 0.425489
v -0.265973 0.329753 0.422865
v -0.312755 0.329753 0.446122
v -0.291163 0.329753 0.440579
v -0.270797 0.329753 0.431512
v -0.262789 0.329753 0.426192
vt 0.399632 0.454865
vt 0.303546 0.421701
vt 0.305003 0.459139
vt 0.398882 0.417395
vt 0.213627 0.425763
vt 0.305559 0.510346
vt 0.496987 0.450467
vt 0.301578 0.408062
vt 0.215751 0.463171
vt 0.210748 0.412165
vt 0.399929 0.506083
vt 0.216551 0.514367
vt 0.496964 0.412964
vt 0.397879 0.403712
vt 0.18406 0.427098
vt 0.180766 0.413519
vt 0.399694 0.557326
vt 0.305065 0.5616
vt 0.595046 0.408534
vt 0.497018 0.501698
vt 0.299626 0.421878
vt 0.207885 0.426022
vt 0.180842 0.427243
vt 0.176663 0.413705
vt 0.1874 0.515683
vt 0.1725 0.42762
vt 0.497049 0.552928
vt 0.215813 0.565632
vt 0.594341 0.44607
vt 0.596031 0.394762
vt 0.496955 0.399237
vt 0.594106 0.497312
vt 0.396894 0.417484
vt 0.177488 0.427395
vt 0.186488 0.464493
vt 0.303654 0.599168
vt 0.398989 0.594862
vt 0.213734 0.60323
vt 0.690382 0.404227
vt 0.692333 0.390412
vt 0.594403 0.548531
vt 0.298215 0.459446
vt 0.205806 0.46362
vt 0.175105 0.465007
vt 0.183918 0.464609
vt 0.185066 0.515789
vt 0.186551 0.566954
vt 0.16947 0.465262
vt 0.497071 0.590432
vt 0.184168 0.604566
vt 0.688476 0.49305
vt 0.68897 0.441796
vt 0.597034 0.408444
vt 0.694301 0.40405
vt 0.595154 0.586001
vt 0.396189 0.455021
vt 0.18095 0.604711
vt 0.301702 0.612984
vt 0.210872 0.617087
vt 0.398004 0.608634
vt 0.176787 0.618627
vt 0.780301 0.400166
vt 0.783163 0.386309
vt 0.786042 0.399906
vt 0.690489 0.581695
vt 0.689032 0.544256
vt 0.395954 0.506263
vt 0.297721 0.5107
vt 0.205068 0.514885
vt 0.174256 0.516277
vt 0.18398 0.56707
vt 0.18089 0.618441
vt 0.49708 0.604159
vt 0.596156 0.599684
vt 0.777484 0.489029
vt 0.778222 0.437764
vt 0.597784 0.445914
vt 0.695758 0.441489
vt 0.788167 0.437315
vt 0.692457 0.595334
vt 0.168383 0.516542
vt 0.299734 0.599346
vt 0.207993 0.60349
vt 0.172608 0.605088
vt 0.397002 0.594952
vt 0.813086 0.398685
vt 0.817248 0.384769
vt 0.821427 0.398308
vt 0.824503 0.435673
vt 0.780409 0.577633
vt 0.783288 0.591231
vt 0.778284 0.540225
vt 0.298277 0.561907
vt 0.396251 0.557481
vt 0.205869 0.566081
vt 0.175167 0.567468
vt 0.169532 0.567722
vt 0.177596 0.604863
vt 0.597141 0.585912
vt 0.694409 0.581518
vt 0.808969 0.487607
vt 0.810055 0.436326
vt 0.598081 0.497133
vt 0.696315 0.492696
vt 0.788967 0.48851
vt 0.78615 0.577374
vt 0.825652 0.486853
vt 0.813193 0.576152
vt 0.817373 0.589691
vt 0.821535 0.575776
vt 0.810117 0.538787
vt 0.597846 0.548375
vt 0.695821 0.54395
vt 0.788229 0.539776
vt 0.824565 0.538134
vn 0.1442879802345681 -0.5013179313264666 -0.8531478831306921
vn 0.16398803875029613 -0.8667842048206983 -0.4709491112850526
vn 0.2845348646307209 -0.5013177614948733 -0.8171416112396597
vn 0.08315801542494011 -0.8667841607793754 -0.49170109120539796
vn 0.24022601203376204 -0.8667840434202476 -0.43700902189131197
vn 0.3288419853354564 0 -0.9443849578856258
vn 0 -0.5013180510610008 -0.8652630881300785
vn 0 -1 0
vn 0.41681405351392614 -0.5013180643632278 -0.7582520973504765
vn 0.1667560317220029 0 -0.985998187566453
vn 0.48172008092295887 0 -0.8763251472116831
vn 0 -0.8667843306154434 -0.49868319021151886
vn 0.2766771075329305 -0.8660253365881737 -0.4164731618658658
vn 0.1442879802345681 0.5013179313264666 -0.8531478831306921
vn 0.2845348646307209 0.5013177614948733 -0.8171416112396597
vn -0.08315801542494011 -0.8667841607793754 -0.49170109120539796
vn 0 0 -1
vn -0.16398803875029613 -0.8667842048206983 0.4709491112850526
vn -0.24022601203376204 -0.8667840434202476 0.43700902189131197
vn 0.553354086259055 0 -0.8329461298429846
vn -0.2766771075329305 -0.8660253365881737 0.4164731618658658
vn 0 0.5013180510610008 -0.8652630881300785
vn 0.41681405351392614 0.5013180643632278 -0.7582520973504765
vn -0.1442879802345681 -0.5013179313264666 -0.8531478831306921
vn -0.1667560317220029 0 -0.985998187566453
vn -0.08315801542494011 -0.8667841607793754 0.49170109120539796
vn 0.4792179899045543 -0.4999999894667503 -0.7213529848036174
vn 0.16398803875029613 0.8667842048206983 -0.4709491112850526
vn 0.08315801542494011 0.8667841607793754 -0.49170109120539796
vn 0.24022601203376204 0.8667840434202476 -0.43700902189131197
vn -0.16398803875029613 -0.8667842048206983 -0.4709491112850526
vn -0.1442879802345681 0.5013179313264666 -0.8531478831306921
vn -0.2845348646307209 -0.5013177614948733 0.8171416112396597
vn -0.41681405351392614 -0.5013180643632278 0.7582520973504765
vn -0.4792179899045543 -0.4999999894667503 0.7213529848036174
vn 0.4792179899045543 0.4999999894667503 -0.7213529848036174
vn 0 0.8667843306154434 -0.49868319021151886
vn 0.2766771075329305 0.8660253365881737 -0.4164731618658658
vn -0.3288419853354564 0 -0.9443849578856258
vn -0.2845348646307209 -0.5013177614948733 -0.8171416112396597
vn 0.08315801542494011 -0.8667841607793754 0.49170109120539796
vn 0.16398803875029613 -0.8667842048206983 0.4709491112850526
vn 0 -0.8667843306154434 0.49868319021151886
vn -0.08315801542494011 0.8667841607793754 -0.49170109120539796
vn -0.1442879802345681 -0.5013179313264666 0.8531478831306921
vn 0 1 0
vn -0.24022601203376204 -0.8667840434202476 -0.43700902189131197
vn 0.24022601203376204 -0.8667840434202476 0.43700902189131197
vn -0.16398803875029613 0.8667842048206983 -0.4709491112850526
vn -0.2845348646307209 0.5013177614948733 -0.8171416112396597
vn -0.1667560317220029 0 0.985998187566453
vn -0.3288419853354564 0 0.9443849578856258
vn -0.48172008092295887 0 0.8763251472116831
vn -0.553354086259055 0 0.8329461298429846
vn -0.48172008092295887 0 -0.8763251472116831
vn -0.41681405351392614 -0.5013180643632278 -0.7582520973504765
vn 0.1442879802345681 -0.5013179313264666 0.8531478831306921
vn 0.2845348646307209 -0.5013177614948733 0.8171416112396597
vn 0.41681405351392614 -0.5013180643632278 0.7582520973504765
vn 0 -0.5013180510610008 0.8652630881300785
vn 0 0 1
vn -0.16398803875029613 0.8667842048206983 0.4709491112850526
vn -0.24022601203376204 0.8667840434202476 0.43700902189131197
vn -0.2766771075329305 0.8660253365881737 0.4164731618658658
vn -0.08315801542494011 0.8667841607793754 0.49170109120539796
vn -0.2766771075329305 -0.8660253365881737 -0.4164731618658658
vn 0.2766771075329305 -0.8660253365881737 0.4164731618658658
vn 0.4792179899045543 -0.4999999894667503 0.7213529848036174
vn -0.24022601203376204 0.8667840434202476 -0.43700902189131197
vn -0.41681405351392614 0.5013180643632278 -0.7582520973504765
vn -0.2845348646307209 0.5013177614948733 0.8171416112396597
vn -0.1442879802345681 0.5013179313264666 0.8531478831306921
vn -0.41681405351392614 0.5013180643632278 0.7582520973504765
vn -0.4792179899045543 0.4999999894667503 0.7213529848036174
vn 0 0.8667843306154434 0.49868319021151886
vn 0.08315801542494011 0.8667841607793754 0.49170109120539796
vn 0.16398803875029613 0.8667842048206983 0.4709491112850526
vn -0.553354086259055 0 -0.8329461298429846
vn -0.4792179899045543 -0.4999999894667503 -0.7213529848036174
vn 0.1667560317220029 0 0.985998187566453
vn 0.3288419853354564 0 0.9443849578856258
vn 0.48172008092295887 0 0.8763251472116831
vn 0.24022601203376204 0.8667840434202476 0.43700902189131197
vn 0 0.5013180510610008 0.8652630881300785
vn 0.553354086259055 0 0.8329461298429846
vn -0.2766771075329305 0.8660253365881737 -0.4164731618658658
vn 0.2766771075329305 0.8660253365881737 0.4164731618658658
vn -0.4792179899045543 0.4999999894667503 -0.7213529848036174
vn 0.1442879802345681 0.5013179313264666 0.8531478831306921
vn 0.2845348646307209 0.5013177614948733 0.8171416112396597
vn 0.41681405351392614 0.5013180643632278 0.7582520973504765
vn 0.4792179899045543 0.4999999894667503 0.7213529848036174
usemtl material_0_0
f 1/1/1 2/2/2 3/3/3
f 2/2/2 1/1/1 4/4/4
f 5/5/5 3/3/3 2/2/2
f 6/6/6 1/1/1 3/3/3
f 7/7/7 4/4/4 1/1/1
f 4/4/4 8/8/8 2/2/2
f 3/3/3 5/5/5 9/9/9
f 2/2/2 10/10/8 5/5/5
f 1/1/1 6/6/6 11/11/10
f 3/3/3 12/12/11 6/6/6
f 4/4/4 7/7/7 13/13/12
f 11/11/10 7/7/7 1/1/1
f 8/8/8 4/4/4 14/14/8
f 10/10/8 2/2/2 8/8/8
f 15/15/13 9/9/9 5/5/5
f 12/12/11 3/3/3 9/9/9
f 16/16/8 5/5/5 10/10/8
f 6/6/6 17/17/14 11/11/10
f 12/12/11 18/18/15 6/6/6
f 7/7/7 19/19/16 13/13/12
f 13/13/12 14/14/8 4/4/4
f 7/7/7 11/11/10 20/20/17
f 14/14/8 21/21/18 8/8/8
f 8/8/8 22/22/19 10/10/8
f 23/23/13 9/9/9 15/15/13
f 24/24/8 15/15/13 5/5/5
f 9/9/9 25/25/20 12/12/11
f 24/24/8 5/5/5 16/16/8
f 26/26/21 16/16/8 10/10/8
f 17/17/14 6/6/6 18/18/15
f 27/27/22 11/11/10 17/17/14
f 18/18/15 12/12/11 28/28/23
f 19/19/16 7/7/7 29/29/24
f 30/30/8 13/13/12 19/19/16
f 14/14/8 13/13/12 31/31/8
f 11/11/10 27/27/22 20/20/17
f 32/32/25 7/7/7 20/20/17
f 21/21/18 14/14/8 33/33/26
f 22/22/19 8/8/8 21/21/18
f 34/34/21 10/10/8 22/22/19
f 23/23/13 35/35/27 9/9/9
f 15/15/13 24/24/8 23/23/13
f 35/35/27 25/25/20 9/9/9
f 25/25/20 28/28/23 12/12/11
f 16/16/8 26/26/21 24/24/8
f 26/26/21 10/10/8 34/34/21
f 36/36/28 17/17/14 18/18/15
f 37/37/29 27/27/22 17/17/14
f 38/38/30 18/18/15 28/28/23
f 7/7/7 32/32/25 29/29/24
f 29/29/24 39/39/31 19/19/16
f 13/13/12 30/30/8 31/31/8
f 19/19/16 40/40/8 30/30/8
f 31/31/8 33/33/26 14/14/8
f 41/41/32 20/20/17 27/27/22
f 20/20/17 41/41/32 32/32/25
f 33/33/26 42/42/33 21/21/18
f 21/21/18 43/43/34 22/22/19
f 44/44/35 34/34/21 22/22/19
f 35/35/27 23/23/13 45/45/27
f 35/35/27 46/46/20 25/25/20
f 25/25/20 47/47/36 28/28/23
f 34/34/21 48/48/35 26/26/21
f 17/17/14 36/36/28 37/37/29
f 18/18/15 38/38/30 36/36/28
f 27/27/22 37/37/29 49/49/37
f 28/28/23 50/50/38 38/38/30
f 51/51/39 29/29/24 32/32/25
f 39/39/31 29/29/24 52/52/40
f 40/40/8 19/19/16 39/39/31
f 53/53/41 31/31/8 30/30/8
f 54/54/42 30/30/8 40/40/8
f 33/33/26 31/31/8 55/13/43
f 27/27/22 56/55/44 41/41/32
f 41/41/32 51/51/39 32/32/25
f 42/42/33 33/33/26 57/56/45
f 43/43/34 21/21/18 42/42/33
f 44/44/35 22/22/19 43/43/34
f 48/48/35 34/34/21 44/44/35
f 46/46/20 35/35/27 45/45/27
f 46/46/20 47/47/36 25/25/20
f 47/47/36 58/57/38 28/28/23
f 59/58/46 37/37/29 36/36/28
f 60/59/46 36/36/28 38/38/30
f 61/60/46 49/49/37 37/37/29
f 56/55/44 27/27/22 49/49/37
f 28/28/23 58/57/38 50/50/38
f 50/50/38 62/61/46 38/38/30
f 29/29/24 51/51/39 52/52/40
f 52/52/40 63/62/47 39/39/31
f 39/39/31 64/63/8 40/40/8
f 31/31/8 53/53/41 55/13/43
f 30/30/8 54/54/42 53/53/41
f 40/40/8 65/64/48 54/54/42
f 55/13/43 57/56/45 33/33/26
f 66/65/49 41/41/32 56/55/44
f 51/51/39 41/41/32 67/66/50
f 68/67/51 42/42/33 57/56/45
f 69/68/52 43/43/34 42/42/33
f 70/69/53 44/44/35 43/43/34
f 71/70/54 48/48/35 44/44/35
f 47/47/36 46/46/20 72/71/36
f 58/57/38 47/47/36 72/71/36
f 37/37/29 59/58/46 61/60/46
f 36/36/28 60/59/46 59/58/46
f 38/38/30 73/72/46 60/59/46
f 49/49/37 61/60/46 74/73/46
f 49/49/37 75/74/46 56/55/44
f 62/61/46 50/50/38 58/57/38
f 38/38/30 62/61/46 73/72/46
f 76/75/55 52/52/40 51/51/39
f 63/62/47 52/52/40 77/76/56
f 64/63/8 39/39/31 63/62/47
f 65/64/48 40/40/8 64/63/8
f 78/77/57 55/13/43 53/53/41
f 79/78/58 53/53/41 54/54/42
f 80/79/59 54/54/42 65/64/48
f 57/56/45 55/13/43 81/7/60
f 41/41/32 66/65/49 67/66/50
f 56/55/44 82/80/46 66/65/49
f 67/66/50 76/75/55 51/51/39
f 42/42/33 68/67/51 69/68/52
f 57/56/45 83/20/61 68/67/51
f 43/43/34 69/68/52 70/69/53
f 71/70/54 44/44/35 70/69/53
f 48/48/35 71/70/54 84/81/54
f 85/82/62 61/60/46 59/58/46
f 86/83/63 59/58/46 60/59/46
f 73/72/46 87/84/64 60/59/46
f 88/85/65 74/73/46 61/60/46
f 75/74/46 49/49/37 74/73/46
f 82/80/46 56/55/44 75/74/46
f 87/84/64 73/72/46 62/61/46
f 52/52/40 76/75/55 77/76/56
f 77/76/56 89/86/66 63/62/47
f 63/62/47 90/87/8 64/63/8
f 64/63/8 91/88/67 65/64/48
f 55/13/43 78/77/57 81/7/60
f 53/53/41 79/78/58 78/77/57
f 54/54/42 80/79/59 79/78/58
f 65/64/48 92/89/68 80/79/59
f 83/20/61 57/56/45 81/7/60
f 93/90/69 67/66/50 66/65/49
f 94/91/46 66/65/49 82/80/46
f 76/75/55 67/66/50 95/92/70
f 68/67/51 96/93/71 69/68/52
f 83/20/61 97/94/72 68/67/51
f 69/68/52 98/95/73 70/69/53
f 99/96/74 71/70/54 70/69/53
f 71/70/54 100/97/74 84/81/54
f 61/60/46 85/82/62 88/85/65
f 59/58/46 86/83/63 85/82/62
f 60/59/46 101/98/64 86/83/63
f 60/59/46 87/84/64 101/98/64
f 74/73/46 88/85/65 102/49/75
f 74/73/46 103/99/76 75/74/46
f 75/74/46 104/100/77 82/80/46
f 105/101/78 77/76/56 76/75/55
f 89/86/66 77/76/56 106/102/79
f 90/87/8 63/62/47 89/86/66
f 91/88/67 64/63/8 90/87/8
f 92/89/68 65/64/48 91/88/67
f 78/77/57 83/20/61 81/7/60
f 79/78/58 107/103/80 78/77/57
f 80/79/59 108/104/81 79/78/58
f 92/89/68 109/105/82 80/79/59
f 67/66/50 93/90/69 95/92/70
f 66/65/49 94/91/46 93/90/69
f 82/80/46 110/106/83 94/91/46
f 95/92/70 105/101/78 76/75/55
f 96/93/71 68/67/51 97/94/72
f 98/95/73 69/68/52 96/93/71
f 97/94/72 83/20/61 111/27/84
f 99/96/74 70/69/53 98/95/73
f 100/97/74 71/70/54 99/96/74
f 96/93/71 88/85/65 85/82/62
f 98/95/73 85/82/62 86/83/63
f 101/98/64 99/96/74 86/83/63
f 100/97/74 101/98/64 87/84/64
f 97/94/72 102/49/75 88/85/65
f 103/99/76 74/73/46 102/49/75
f 104/100/77 75/74/46 103/99/76
f 110/106/83 82/80/46 104/100/77
f 77/76/56 105/101/78 106/102/79
f 83/20/61 78/77/57 107/103/80
f 107/103/80 79/78/58 108/104/81
f 108/104/81 80/79/59 109/105/82
f 109/105/82 92/89/68 112/107/85
f 113/108/86 95/92/70 93/90/69
f 114/109/46 93/90/69 94/91/46
f 115/110/87 94/91/46 110/106/83
f 105/101/78 95/92/70 116/111/88
f 88/85/65 96/93/71 97/94/72
f 85/82/62 98/95/73 96/93/71
f 107/103/80 111/27/84 83/20/61
f 102/49/75 97/94/72 111/27/84
f 86/83/63 99/96/74 98/95/73
f 101/98/64 100/97/74 99/96/74
f 102/49/75 117/112/89 103/99/76
f 103/99/76 118/113/90 104/100/77
f 104/100/77 119/114/91 110/106/83
f 118/113/90 107/103/80 108/104/81
f 119/114/91 108/104/81 109/105/82
f 120/115/92 109/105/82 112/107/85
f 95/92/70 113/108/86 116/111/88
f 93/90/69 114/109/46 113/108/86
f 94/91/46 115/110/87 114/109/46
f 110/106/83 120/115/92 115/110/87
f 111/27/84 107/103/80 117/112/89
f 117/112/89 102/49/75 111/27/84
f 118/113/90 103/99/76 117/112/89
f 119/114/91 104/100/77 118/113/90
f 120/115/92 110/106/83 119/114/91
f 107/103/80 118/113/90 117/112/89
f 108/104/81 119/114/91 118/113/90
f 109/105/82 120/115/92 119/114/91
usemtl material_1_0
f 3//71 2//62 1//72
f 4//65 1//72 2//62
f 2//62 3//71 5//63
f 3//71 1//72 6//52
f 1//72 4//65 7//84
f 2//62 8//46 4//65
f 9//73 5//63 3//71
f 5//63 10//46 2//62
f 11//51 6//52 1//72
f 6//52 12//53 3//71
f 13//75 7//84 4//65
f 1//72 7//84 11//51
f 14//46 4//65 8//46
f 8//46 2//62 10//46
f 5//63 9//73 15//64
f 9//73 3//71 12//53
f 10//46 5//63 16//46
f 11//51 17//45 6//52
f 6//52 18//33 12//53
f 13//75 19//76 7//84
f 4//65 14//46 13//75
f 20//61 11//51 7//84
f 8//46 21//28 14//46
f 10//46 22//30 8//46
f 15//64 9//73 23//64
f 5//63 15//64 24//46
f 12//53 25//54 9//73
f 16//46 5//63 24//46
f 10//46 16//46 26//38
f 18//33 6//52 17//45
f 17//45 11//51 27//60
f 28//34 12//53 18//33
f 29//89 7//84 19//76
f 19//76 13//75 30//46
f 31//46 13//75 14//46
f 20//61 27//60 11//51
f 20//61 7//84 32//80
f 33//29 14//46 21//28
f 21//28 8//46 22//30
f 22//30 10//46 34//38
f 9//73 35//74 23//64
f 23//64 24//46 15//64
f 9//73 25//54 35//74
f 12//53 28//34 25//54
f 24//46 26//38 16//46
f 34//38 10//46 26//38
f 18//33 17//45 36//18
f 17//45 27//60 37//26
f 28//34 18//33 38//19
f 29//89 32//80 7//84
f 19//76 39//77 29//89
f 31//46 30//46 13//75
f 30//46 40//46 19//76
f 14//46 33//29 31//46
f 27//60 20//61 41//57
f 32//80 41//57 20//61
f 21//28 42//15 33//29
f 22//30 43//23 21//28
f 22//30 34//38 44//36
f 45//74 23//64 35//74
f 25//54 46//54 35//74
f 28//34 47//35 25//54
f 26//38 48//36 34//38
f 37//26 36//18 17//45
f 36//18 38//19 18//33
f 49//43 37//26 27//60
f 38//19 50//21 28//34
f 32//80 29//89 51//81
f 52//90 29//89 39//77
f 39//77 19//76 40//46
f 30//46 31//46 53//44
f 40//46 30//46 54//49
f 55//37 31//46 33//29
f 41//57 56//41 27//60
f 32//80 51//81 41//57
f 57//14 33//29 42//15
f 42//15 21//28 43//23
f 43//23 22//30 44//36
f 44//36 34//38 48//36
f 45//74 35//74 46//54
f 25//54 47//35 46//54
f 28//34 58//21 47//35
f 36//18 37//26 59//8
f 38//19 36//18 60//8
f 37//26 49//43 61//8
f 49//43 27//60 56//41
f 50//21 58//21 28//34
f 38//19 62//8 50//21
f 52//90 51//81 29//89
f 39//77 63//83 52//90
f 40//46 64//46 39//77
f 55//37 53//44 31//46
f 53//44 54//49 30//46
f 54//49 65//69 40//46
f 33//29 57//14 55//37
f 56//41 41//57 66//42
f 67//58 41//57 51//81
f 57//14 42//15 68//10
f 42//15 43//23 69//6
f 43//23 44//36 70//11
f 44//36 48//36 71//20
f 72//35 46//54 47//35
f 72//35 47//35 58//21
f 61//8 59//8 37//26
f 59//8 60//8 36//18
f 60//8 73//8 38//19
f 74//8 61//8 49//43
f 56//41 75//8 49//43
f 58//21 50//21 62//8
f 73//8 62//8 38//19
f 51//81 52//90 76//82
f 77//91 52//90 63//83
f 63//83 39//77 64//46
f 64//46 40//46 65//69
f 53//44 55//37 78//32
f 54//49 53//44 79//50
f 65//69 54//49 80//70
f 81//22 55//37 57//14
f 67//58 66//42 41//57
f 66//42 82//8 56//41
f 51//81 76//82 67//58
f 69//6 68//10 42//15
f 68//10 83//17 57//14
f 70//11 69//6 43//23
f 70//11 44//36 71//20
f 84//20 71//20 48//36
f 59//8 61//8 85//2
f 60//8 59//8 86//5
f 60//8 87//13 73//8
f 61//8 74//8 88//4
f 74//8 49//43 75//8
f 75//8 56//41 82//8
f 62//8 73//8 87//13
f 77//91 76//82 52//90
f 63//83 89//87 77//91
f 64//46 90//46 63//83
f 65//69 91//86 64//46
f 81//22 78//32 55//37
f 78//32 79//50 53//44
f 79//50 80//70 54//49
f 80//70 92//88 65//69
f 81//22 57//14 83//17
f 66//42 67//58 93//48
f 82//8 66//42 94//8
f 95//59 67//58 76//82
f 69//6 96//3 68//10
f 68//10 97//1 83//17
f 70//11 98//9 69//6
f 70//11 71//20 99//27
f 84//20 100//27 71//20
f 88//4 85//2 61//8
f 85//2 86//5 59//8
f 86//5 101//13 60//8
f 101//13 87//13 60//8
f 102//12 88//4 74//8
f 75//8 103//16 74//8
f 82//8 104//31 75//8
f 76//82 77//91 105//85
f 106//92 77//91 89//87
f 89//87 63//83 90//46
f 90//46 64//46 91//86
f 91//86 65//69 92//88
f 81//22 83//17 78//32
f 78//32 107//25 79//50
f 79//50 108//39 80//70
f 80//70 109//55 92//88
f 95//59 93//48 67//58
f 93//48 94//8 66//42
f 94//8 110//47 82//8
f 76//82 105//85 95//59
f 97//1 68//10 96//3
f 96//3 69//6 98//9
f 111//7 83//17 97//1
f 98//9 70//11 99//27
f 99//27 71//20 100//27
f 85//2 88//4 96//3
f 86//5 85//2 98//9
f 86//5 99//27 101//13
f 87//13 101//13 100//27
f 88//4 102//12 97//1
f 102//12 74//8 103//16
f 103//16 75//8 104//31
f 104//31 82//8 110//47
f 106//92 105//85 77//91
f 107//25 78//32 83//17
f 108//39 79//50 107//25
f 109//55 80//70 108//39
f 112//78 92//88 109//55
f 93//48 95//59 113//67
f 94//8 93//48 114//8
f 110//47 94//8 115//66
f 116//68 95//59 105//85
f 97//1 96//3 88//4
f 96//3 98//9 85//2
f 83//17 111//7 107//25
f 111//7 97//1 102//12
f 98//9 99//27 86//5
f 99//27 100//27 101//13
f 103//16 117//24 102//12
f 104//31 118//40 103//16
f 110//47 119//56 104//31
f 108//39 107//25 118//40
f 109//55 108//39 119//56
f 112//78 109//55 120//79
f 116//68 113//67 95//59
f 113//67 114//8 93//48
f 114//8 115//66 94//8
f 115//66 120//79 110//47
f 117//24 107//25 111//7
f 111//7 102//12 117//24
f 117//24 103//16 118//40
f 118//40 104//31 119//56
f 119//56 110//47 120//79
f 117//24 118//40 107//25
f 118//40 119//56 108//39
f 119//56 120//79 109//55
