# SSTK version 0.8.0
# 23
mtllib original-23.mtl
o BK_1_1/BK_1/mesh17/mesh17-geometry#mesh17-geometry
v -0.663143 0.583922 -0.389830
v 0.691095 -0.346598 -0.389830
v -0.663143 -0.346598 -0.389830
v 0.691095 0.583922 -0.389830
v -0.663143 -0.346598 -0.381521
v 0.691095 0.583922 -0.381521
v 0.691095 -0.346598 -0.381521
v -0.663143 0.583922 -0.381521
vt -0.704297 0.592655
vt -1.298047 0.009322
vt -0.704297 0.009322
vt -1.298047 0.592655
vt 2.149869 -0.002097
vt 1.556119 0.009322
vt 1.556119 -0.002097
vt 1.548307 0.592655
vt 1.548307 0.009322
vt 1.556119 0.600467
vt 2.149869 0.592655
vt 2.149869 0.600467
vt 2.157682 0.009322
vt 2.157682 0.592655
vt 2.149869 0.009322
vt 1.556119 0.592655
vn 0 0 -1
vn 0 -1 0
vn -1 0 0
vn 0 1 0
vn 1 0 0
vn 0 0 1
usemtl material_0_0
f 1/1/1 2/2/1 3/3/1
f 2/2/1 1/1/1 4/4/1
f 2/5/2 5/6/2 3/7/2
f 5/6/3 1/8/3 3/9/3
f 1/10/4 6/11/4 4/12/4
f 6/11/5 2/13/5 4/14/5
f 5/6/2 2/5/2 7/15/2
f 1/8/3 5/6/3 8/16/3
f 6/11/4 1/10/4 8/16/4
f 2/13/5 6/11/5 7/15/5
f 6/11/6 5/6/6 7/15/6
f 5/6/6 6/11/6 8/16/6
usemtl material_1_0
f 3//6 2//6 1//6
f 4//6 1//6 2//6
f 3//4 5//4 2//4
f 3//5 1//5 5//5
f 4//2 6//2 1//2
f 4//3 2//3 6//3
f 7//4 2//4 5//4
f 8//5 5//5 1//5
f 8//2 1//2 6//2
f 7//3 6//3 2//3
f 7//1 5//1 6//1
f 8//1 6//1 5//1
