# SSTK version 0.8.0
# 26
mtllib original-26.mtl
o DF_12_1_1/DF_12_1/DWR_FACE_3_1/DWR_FACE_3/mesh20/mesh20-geometry#mesh20-geometry
v 0.001513 0.390756 0.382834
v -0.671451 0.390756 0.407759
v -0.671451 0.390756 0.382834
v 0.001513 0.390756 0.407759
v -0.671451 0.613000 0.382834
v 0.001513 0.613000 0.407759
v -0.671451 0.613000 0.407759
v 0.001513 0.613000 0.382834
vt -2.321027 2.402779
vt -1.70384 2.387154
vt -1.70384 2.402779
vt -2.321027 2.387154
vt -2.387154 0
vt -2.402779 0.127604
vt -2.402779 0
vt -1 0.127604
vt -1.617188 0
vt -1 0
vt 2.402779 0
vt 2.387154 0.127604
vt 2.387154 0
vt 1.617187 0.127604
vt 1 0
vt 1.617187 0
vt -2.387154 0.127604
vt -1.617188 0.127604
vt 2.402779 0.127604
vt 1 0.127604
vt 2.321027 2.387154
vt 1.70384 2.402779
vt 1.70384 2.387154
vt 2.321027 2.402779
vn 0 -1 0
vn -1 0 0
vn 0 0 -1
vn 1 0 0
vn 0 0 1
vn 0 1 0
usemtl material_0_0
f 1/1/1 2/2/1 3/3/1
f 2/2/1 1/1/1 4/4/1
f 2/5/2 5/6/2 3/7/2
f 5/8/3 1/9/3 3/10/3
f 1/11/4 6/12/4 4/13/4
f 6/14/5 2/15/5 4/16/5
f 5/6/2 2/5/2 7/17/2
f 1/9/3 5/8/3 8/18/3
f 6/12/4 1/11/4 8/19/4
f 2/15/5 6/14/5 7/20/5
f 6/21/6 5/22/6 7/23/6
f 5/22/6 6/21/6 8/24/6
usemtl material_1_0
f 3//6 2//6 1//6
f 4//6 1//6 2//6
f 3//4 5//4 2//4
f 3//5 1//5 5//5
f 4//2 6//2 1//2
f 4//3 2//3 6//3
f 7//4 2//4 5//4
f 8//5 5//5 1//5
f 8//2 1//2 6//2
f 7//3 6//3 2//3
f 7//1 5//1 6//1
f 8//1 6//1 5//1
