# SSTK version 0.8.0
# 16
mtllib original-16.mtl
o E1_2_1/E1_2/mesh11/mesh11-geometry#mesh11-geometry
v -0.677937 0.605562 -0.373959
v -0.658681 -0.549771 -0.373959
v -0.677937 -0.549771 -0.373959
v -0.658681 0.605562 -0.373959
v -0.677937 -0.549771 0.198894
v -0.658681 0.605562 0.198894
v -0.677937 0.605562 0.198894
v -0.658681 -0.549771 0.198894
vt 0.423307 0.618697
vt 0.41289 -0.006303
vt 0.423307 -0.006303
vt 0.41289 0.618697
vt 0.425911 0.629113
vt -0.008985 0.618697
vt 0.425911 0.618697
vt 0.425911 -0.006303
vt -0.008985 0.629113
vt -0.008985 -0.006303
vt 0 0
vt -0.434896 0.625
vt -0.434896 0
vt 0 0.625
vn 0 0 -1
vn 0 1 0
vn 1 0 0
vn 0 0 1
vn 0 -1 0
vn -1 0 0
usemtl material_0_0
f 1/1/1 2/2/1 3/3/1
f 2/2/1 1/1/1 4/4/1
f 1/5/2 6/6/2 4/7/2
f 6/6/3 2/8/3 4/7/3
f 6/6/2 1/5/2 7/9/2
f 2/8/3 6/6/3 8/10/3
usemtl material_1_0
f 3//4 2//4 1//4
f 4//4 1//4 2//4
f 3//3 1//3 5//3
f 4//5 6//5 1//5
f 4//6 2//6 6//6
f 7//3 5//3 1//3
f 7//5 1//5 6//5
f 8//6 6//6 2//6
usemtl material_2_0
f 5/11/6 1/12/6 3/13/6
f 1/12/6 5/11/6 7/14/6
