# SSTK version 0.8.0
# 37
mtllib original-37.mtl
o DF_12_L1/DF_12_L/mesh25/mesh25-geometry#mesh25-geometry
v -0.564810 0.598341 0.348124
v -0.680344 0.333577 0.348124
v -0.564810 0.333577 0.348124
v -0.680344 0.598341 0.348124
v -0.564810 0.333577 0.319241
v -0.680344 0.598341 0.319241
v -0.680344 0.333577 0.319241
v -0.564810 0.598341 0.319241
vt -1.944749 -0.843461
vt -1.882249 -0.715857
vt -1.944749 -0.715857
vt -1.882249 -0.843461
vt -1.944749 -0.700232
vt -1.960374 -0.715857
vt -1.882249 -0.859086
vt -1.866624 -0.843461
vt -1.882249 -0.700232
vt -1.960374 -0.843461
vt -1.944749 -0.859086
vt -1.866624 -0.715857
vt 1.525431 -0.843461
vt 1.587931 -0.715857
vt 1.525431 -0.715857
vt 1.587931 -0.843461
vn 0 0 1
vn 0 -1 0
vn 1 0 0
vn 0 1 0
vn -1 0 0
vn 0 0 -1
usemtl material_0_0
f 1/1/1 2/2/1 3/3/1
f 2/2/1 1/1/1 4/4/1
f 2/2/2 5/5/2 3/3/2
f 5/6/3 1/1/3 3/3/3
f 1/1/4 6/7/4 4/4/4
f 6/8/5 2/2/5 4/4/5
f 5/5/2 2/2/2 7/9/2
f 1/1/3 5/6/3 8/10/3
f 6/7/4 1/1/4 8/11/4
f 2/2/5 6/8/5 7/12/5
f 6/13/6 5/14/6 7/15/6
f 5/14/6 6/13/6 8/16/6
usemtl material_1_0
f 3//6 2//6 1//6
f 4//6 1//6 2//6
f 3//4 5//4 2//4
f 3//5 1//5 5//5
f 4//2 6//2 1//2
f 4//3 2//3 6//3
f 7//4 2//4 5//4
f 8//5 5//5 1//5
f 8//2 1//2 6//2
f 7//3 6//3 2//3
f 7//1 5//1 6//1
f 8//1 6//1 5//1
