# SSTK version 0.8.0
# 25
mtllib original-25.mtl
o DB1L1/DB1L/mesh17/mesh17-geometry#mesh17-geometry
v -0.603321 0.516505 -0.219914
v -0.603321 0.400972 0.319241
v -0.603321 0.516505 0.319241
v -0.603321 0.400972 -0.219914
v -0.574438 0.516505 0.319241
v -0.574438 0.400972 -0.219914
v -0.574438 0.400972 0.319241
v -0.574438 0.516505 -0.219914
vt 0.166922 -4.141614
vt 0.104422 -4.558281
vt 0.166922 -4.55828
vt 0.104422 -4.141614
vt 0.166922 -4.573905
vt 0.182547 -4.558281
vt 0.104422 -4.125989
vt 0.088797 -4.141614
vt 0.104422 -4.573906
vt 0.182547 -4.141614
vt 0.166922 -4.125989
vt 0.088797 -4.55828
vt 0.104422 -3.974947
vt 0.166923 -3.558281
vt 0.104423 -3.558281
vt 0.166922 -3.974947
vn -1 0 0
vn 0 0 1
vn 0 1 0
vn 0 0 -1
vn 0 -1 0
vn 1 0 0
usemtl material_0_0
f 1/1/1 2/2/1 3/3/1
f 2/2/1 1/1/1 4/4/1
f 2/2/2 5/5/2 3/3/2
f 5/6/3 1/1/3 3/3/3
f 1/1/4 6/7/4 4/4/4
f 6/8/5 2/2/5 4/4/5
f 5/5/2 2/2/2 7/9/2
f 1/1/3 5/6/3 8/10/3
f 6/7/4 1/1/4 8/11/4
f 2/2/5 6/8/5 7/12/5
f 6/13/6 5/14/6 7/15/6
f 5/14/6 6/13/6 8/16/6
usemtl material_1_0
f 3//6 2//6 1//6
f 4//6 1//6 2//6
f 3//4 5//4 2//4
f 3//5 1//5 5//5
f 4//2 6//2 1//2
f 4//3 2//3 6//3
f 7//4 2//4 5//4
f 8//5 5//5 1//5
f 8//2 1//2 6//2
f 7//3 6//3 2//3
f 7//1 5//1 6//1
f 8//1 6//1 5//1
