# SSTK version 0.8.0
# 48
mtllib original-48.mtl
o LT_11_B1/LT_11_B/mesh33/mesh33-geometry#mesh33-geometry
v -0.111824 -0.427017 0.319241
v -0.564810 -0.427017 0.348124
v -0.111824 -0.427017 0.348124
v -0.564810 -0.427017 0.319241
v -0.111824 -0.542550 0.348124
v -0.564810 -0.542550 0.319241
v -0.564810 -0.542550 0.348124
v -0.111824 -0.542550 0.319241
vt 1.772642 0.448206
vt 1.557798 0.432581
vt 1.772642 0.432581
vt 1.557798 0.448206
vt -1.533833 0.463831
vt -1.748677 0.526331
vt -1.748677 0.463831
vt 1.557798 0.510706
vt -1.533833 0.526331
vt 1.772642 0.510706
vt 1.772642 0.526331
vt 1.557798 0.526331
vn 0 1 0
vn 0 0 1
vn 0 0 -1
vn 0 -1 0
usemtl material_0_0
f 1/1/1 2/2/1 3/3/1
f 2/2/1 1/1/1 4/4/1
f 2/5/2 5/6/2 3/7/2
f 1/1/3 6/8/3 4/4/3
f 5/6/2 2/5/2 7/9/2
f 6/8/3 1/1/3 8/10/3
f 6/8/4 5/11/4 7/12/4
f 5/11/4 6/8/4 8/10/4
usemtl material_1_0
f 3//4 2//4 1//4
f 4//4 1//4 2//4
f 3//3 5//3 2//3
f 4//2 6//2 1//2
f 7//3 2//3 5//3
f 8//2 1//2 6//2
f 7//1 5//1 6//1
f 8//1 6//1 5//1
