# SSTK version 0.8.0
# 6
mtllib original-6.mtl
o BK_11_1/BK_11/mesh5/mesh5-geometry#mesh5-geometry
v 0.669951 0.557423 -0.330634
v -0.658681 0.557423 -0.345075
v -0.658681 0.557423 -0.330634
v 0.669951 0.557423 -0.345075
v -0.658681 -0.520887 -0.330634
v 0.669951 -0.520887 -0.345075
v 0.669951 -0.520887 -0.330634
v -0.658681 -0.520887 -0.345075
vt 2.149869 0.592655
vt 1.556119 0.600467
vt 1.556119 0.592655
vt 2.149869 0.600467
vt 1.556119 0.009322
vt -1.298047 0.009322
vt -0.704297 0.592655
vt -1.298047 0.592655
vt 2.149869 0.009322
vt -0.704297 0.009322
vn 0 1 0
vn 0 0 1
vn 0 0 -1
vn 0 -1 0
usemtl material_0_0
f 1/1/1 2/2/1 3/3/1
f 2/2/1 1/1/1 4/4/1
f 5/5/2 1/1/2 3/3/2
f 6/6/3 2/7/3 4/8/3
f 1/1/2 5/5/2 7/9/2
f 2/7/3 6/6/3 8/10/3
usemtl material_1_0
f 3//4 2//4 1//4
f 4//4 1//4 2//4
f 3//3 1//3 5//3
f 4//2 2//2 6//2
f 7//3 5//3 1//3
f 8//2 6//2 2//2
