# SSTK version 0.8.0
# 46
mtllib original-46.mtl
o LT_11_T1/LT_11_T/mesh31/mesh31-geometry#mesh31-geometry
v -0.111824 0.319136 0.319241
v -0.564810 0.319136 0.348124
v -0.111824 0.319136 0.348124
v -0.564810 0.319136 0.319241
v -0.111824 0.203603 0.348124
v -0.564810 0.203603 0.319241
v -0.564810 0.203603 0.348124
v -0.111824 0.203603 0.319241
vt -1.748677 0.028935
vt -1.533833 0.04456
vt -1.748677 0.04456
vt -1.533833 0.028935
vt -1.748677 0.10706
vt 1.772642 0.04456
vt 1.557798 0.10706
vt 1.557798 0.04456
vt -1.533833 0.10706
vt 1.772642 0.10706
vt -1.533833 0.122685
vt -1.748677 0.122685
vn 0 1 0
vn 0 0 1
vn 0 0 -1
vn 0 -1 0
usemtl material_0_0
f 1/1/1 2/2/1 3/3/1
f 2/2/1 1/1/1 4/4/1
f 2/2/2 5/5/2 3/3/2
f 1/6/3 6/7/3 4/8/3
f 5/5/2 2/2/2 7/9/2
f 6/7/3 1/6/3 8/10/3
f 6/11/4 5/5/4 7/9/4
f 5/5/4 6/11/4 8/12/4
usemtl material_1_0
f 3//4 2//4 1//4
f 4//4 1//4 2//4
f 3//3 5//3 2//3
f 4//2 6//2 1//2
f 7//3 2//3 5//3
f 8//2 1//2 6//2
f 7//1 5//1 6//1
f 8//1 6//1 5//1
