# SSTK version 0.8.0
# 34
mtllib original-34.mtl
o DF_12_T1/DF_12_T/mesh22/mesh22-geometry#mesh22-geometry
v 0.576081 0.598341 0.319241
v -0.564810 0.598341 0.348124
v 0.576081 0.598341 0.348124
v -0.564810 0.598341 0.319241
v 0.576081 0.502063 0.348124
v -0.564810 0.502063 0.319241
v -0.564810 0.502063 0.348124
v 0.576081 0.502063 0.319241
vt 2.27051 -1.928531
vt 1.778322 -1.944156
vt 2.27051 -1.944156
vt 1.778322 -1.928531
vt -1.754357 0.398727
vt -2.246545 0.45081
vt -2.246545 0.398727
vt 1.778322 -1.876448
vt -1.754357 0.45081
vt 2.27051 -1.876448
vt 2.27051 -1.860823
vt 1.778322 -1.860823
vn 0 1 0
vn 0 0 1
vn 0 0 -1
vn 0 -1 0
usemtl material_0_0
f 1/1/1 2/2/1 3/3/1
f 2/2/1 1/1/1 4/4/1
f 2/5/2 5/6/2 3/7/2
f 1/1/3 6/8/3 4/4/3
f 5/6/2 2/5/2 7/9/2
f 6/8/3 1/1/3 8/10/3
f 6/8/4 5/11/4 7/12/4
f 5/11/4 6/8/4 8/10/4
usemtl material_1_0
f 3//4 2//4 1//4
f 4//4 1//4 2//4
f 3//3 5//3 2//3
f 4//2 6//2 1//2
f 7//3 2//3 5//3
f 8//2 1//2 6//2
f 7//1 5//1 6//1
f 8//1 6//1 5//1
