# SSTK version 0.8.0
# 54
mtllib original-54.mtl
o _3035_A2/_3035_A/mesh28/mesh28-geometry#mesh28-geometry
v -0.044677 0.203603 0.394458
v -0.044677 0.203603 0.405289
v -0.043226 0.203603 0.399873
v -0.048641 0.203603 0.390493
v -0.043226 -0.233258 0.399873
v -0.044677 -0.233258 0.394458
v -0.048641 -0.233258 0.390493
v -0.048641 0.203603 0.409254
v -0.044677 -0.233258 0.405289
v -0.054057 0.203603 0.389042
v -0.048641 -0.233258 0.409254
v -0.054057 -0.233258 0.389042
v -0.054057 0.203603 0.410705
v -0.054057 -0.233258 0.410705
v -0.059473 0.203603 0.390493
v -0.059473 -0.233258 0.390493
v -0.059473 0.203603 0.409254
v -0.059473 -0.233258 0.409254
v -0.063437 0.203603 0.394458
v -0.063437 -0.233258 0.394458
v -0.063437 0.203603 0.405289
v -0.064888 -0.233258 0.399873
v -0.064888 0.203603 0.399873
v -0.063437 -0.233258 0.405289
vt -0.351314 9.471887
vt -0.332661 -0.625198
vt -0.329728 9.47188
vt -0.354248 -0.625191
vt -0.413223 -0.625174
vt -0.410289 9.471904
vt -0.490851 9.471928
vt -0.493785 -0.625151
vt -0.571413 9.471951
vt -0.574347 -0.625127
vt -0.630388 9.471969
vt -0.633322 -0.62511
vt -0.654909 -0.625104
vt -0.651975 9.471975
vn 0 1 0
vn 0 -1 0
vn -1 0 0
vn -0.8660253028382761 0 -0.5000001748438416
vn -0.8660253028382761 0 0.5000001748438416
vn -0.5000001748438416 0 0.8660253028382761
vn 0 0 1
vn -0.5000001748438416 0 -0.8660253028382761
vn 0 0 -1
vn 0.5000001748438416 0 0.8660253028382761
vn 0.5000001748438416 0 -0.8660253028382761
vn 0.8660253028382761 0 0.5000001748438416
vn 0.8660253028382761 0 -0.5000001748438416
vn 1 0 0
usemtl material_0_0
f 1//1 2//1 3//1
f 2//1 1//1 4//1
f 2//1 4//1 8//1
f 8//1 4//1 10//1
f 9//2 6//2 5//2
f 6//2 11//2 7//2
f 8//1 10//1 13//1
f 6//2 9//2 11//2
f 7//2 11//2 12//2
f 13//1 10//1 15//1
f 12//2 11//2 14//2
f 13//1 15//1 17//1
f 12//2 14//2 16//2
f 17//1 15//1 19//1
f 16//2 14//2 18//2
f 17//1 19//1 21//1
f 16//2 18//2 20//2
f 21//1 19//1 23//1
f 20//2 18//2 24//2
f 20//2 24//2 22//2
usemtl material_1_0
f 3//2 2//2 1//2
f 4//2 1//2 2//2
f 3//3 5//3 2//4
f 1//5 6//5 3//3
f 4//6 7//6 1//5
f 8//2 4//2 2//2
f 9//4 2//4 5//3
f 5//3 3//3 6//5
f 6//5 1//5 7//6
f 4//6 10//7 7//6
f 10//2 4//2 8//2
f 8//8 2//4 11//8
f 9//4 11//8 2//4
f 5//1 6//1 9//1
f 7//1 11//1 6//1
f 12//7 7//6 10//7
f 13//2 10//2 8//2
f 11//8 14//9 8//8
f 11//1 9//1 6//1
f 12//1 11//1 7//1
f 10//7 15//10 12//7
f 15//2 10//2 13//2
f 13//9 8//8 14//9
f 14//1 11//1 12//1
f 16//10 12//7 15//10
f 17//2 15//2 13//2
f 14//9 18//11 13//9
f 16//1 14//1 12//1
f 15//10 19//12 16//10
f 19//2 15//2 17//2
f 17//11 13//9 18//11
f 18//1 14//1 16//1
f 20//12 16//10 19//12
f 21//2 19//2 17//2
f 17//11 18//11 21//13
f 20//1 18//1 16//1
f 20//12 19//12 22//14
f 23//2 19//2 21//2
f 24//13 21//13 18//11
f 24//1 18//1 20//1
f 23//14 22//14 19//12
f 22//1 24//1 20//1
f 21//13 24//13 23//14
f 22//14 23//14 24//13
usemtl material_2_0
f 2/1/12 5/2/14 3/3/14
f 3/3/14 6/4/13 1/1/13
f 1/1/13 7/5/11 4/6/11
f 5/2/14 2/1/12 9/4/12
f 6/4/13 3/3/14 5/2/14
f 7/5/11 1/1/13 6/4/13
f 7/5/11 10/7/9 4/6/11
f 11/5/10 2/1/12 8/6/10
f 2/1/12 11/5/10 9/4/12
f 10/7/9 7/5/11 12/8/9
f 8/6/10 14/8/7 11/5/10
f 12/8/9 15/9/8 10/7/9
f 14/8/7 8/6/10 13/7/7
f 15/9/8 12/8/9 16/10/8
f 13/7/7 18/10/6 14/8/7
f 16/10/8 19/11/4 15/9/8
f 18/10/6 13/7/7 17/9/6
f 19/11/4 16/10/8 20/12/4
f 21/11/5 18/10/6 17/9/6
f 22/13/3 19/11/4 20/12/4
f 18/10/6 21/11/5 24/12/5
f 19/11/4 22/13/3 23/14/3
f 23/14/3 24/12/5 21/11/5
f 24/12/5 23/14/3 22/13/3
