# SSTK version 0.8.0
# 44
mtllib original-44.mtl
o _3035_C1/_3035_C/mesh30/mesh30-geometry#mesh30-geometry
v 0.345014 0.542051 0.348124
v 0.345014 0.544787 0.390493
v 0.345014 0.542051 0.393229
v 0.345014 0.558354 0.348124
v 0.309842 0.542051 0.348124
v 0.345014 0.550202 0.389042
v 0.309842 0.542051 0.393229
v 0.309842 0.558354 0.348124
v 0.345014 0.555618 0.390493
v 0.309842 0.544787 0.390493
v 0.309842 0.558354 0.393229
v 0.345014 0.558354 0.393229
v 0.309842 0.550202 0.389042
v 0.309842 0.555618 0.390493
vn 1 0 0
vn 0 -1 0
vn 0 0 -1
vn -1 0 0
vn 0 1 0
vn 0 0 1
usemtl material_0_0
f 1//1 2//1 3//1
f 2//1 1//1 4//1
f 3//2 5//2 1//2
f 5//3 4//3 1//3
f 2//1 4//1 6//1
f 5//2 3//2 7//2
f 4//3 5//3 8//3
f 6//1 4//1 9//1
f 10//4 5//4 7//4
f 5//4 10//4 8//4
f 11//5 4//5 8//5
f 9//1 4//1 12//1
f 8//4 10//4 13//4
f 4//5 11//5 12//5
f 8//4 14//4 11//4
f 8//4 13//4 14//4
usemtl material_1_0
f 3//4 2//4 1//4
f 4//4 1//4 2//4
f 1//5 5//5 3//5
f 1//6 4//6 5//6
f 6//4 4//4 2//4
f 7//5 3//5 5//5
f 8//6 5//6 4//6
f 9//4 4//4 6//4
f 7//1 5//1 10//1
f 8//1 10//1 5//1
f 8//2 4//2 11//2
f 12//4 4//4 9//4
f 13//1 10//1 8//1
f 12//2 11//2 4//2
f 11//1 14//1 8//1
f 14//1 13//1 8//1
