# SSTK version 0.8.0
# 58
mtllib original-58.mtl
o RT_11_L1/RT_11_L/mesh37/mesh37-geometry#mesh37-geometry
v 0.123094 0.319136 0.348124
v 0.007561 0.319136 0.319241
v 0.007561 0.319136 0.348124
v 0.123094 0.319136 0.319241
v 0.007561 -0.542550 0.348124
v 0.123094 -0.542550 0.319241
v 0.007561 -0.542550 0.319241
v 0.123094 -0.542550 0.348124
vt -1.724224 -1.197628
vt -1.661724 -1.213253
vt -1.661724 -1.197628
vt -1.724224 -1.213253
vt -1.646099 -1.197628
vt -1.661724 -0.715857
vt -0.741118 -1.197628
vt -0.756743 -0.715857
vt -0.756743 -1.197628
vt -0.819243 -1.197628
vt -1.646099 -0.715857
vt -1.724224 -0.715857
vt -0.741118 -0.715857
vt -0.819243 -0.715857
vt -1.724224 -0.700232
vt -1.661724 -0.700232
vn 0 1 0
vn -1 0 0
vn 0 0 1
vn 1 0 0
vn 0 0 -1
vn 0 -1 0
usemtl material_0_0
f 1/1/1 2/2/1 3/3/1
f 2/2/1 1/1/1 4/4/1
f 2/5/2 5/6/2 3/3/2
f 5/6/3 1/1/3 3/3/3
f 1/7/4 6/8/4 4/9/4
f 6/8/5 2/10/5 4/9/5
f 5/6/2 2/5/2 7/11/2
f 1/1/3 5/6/3 8/12/3
f 6/8/4 1/7/4 8/13/4
f 2/10/5 6/8/5 7/14/5
f 6/15/6 5/6/6 7/16/6
f 5/6/6 6/15/6 8/12/6
usemtl material_1_0
f 3//6 2//6 1//6
f 4//6 1//6 2//6
f 3//4 5//4 2//4
f 3//5 1//5 5//5
f 4//2 6//2 1//2
f 4//3 2//3 6//3
f 7//4 2//4 5//4
f 8//5 5//5 1//5
f 8//2 1//2 6//2
f 7//3 6//3 2//3
f 7//1 5//1 6//1
f 8//1 6//1 5//1
