# SSTK version 0.8.0
# 35
mtllib original-35.mtl
o DF_12_R1/DF_12_R/mesh23/mesh23-geometry#mesh23-geometry
v 0.691614 0.598341 0.348124
v 0.576081 0.333577 0.348124
v 0.691614 0.333577 0.348124
v 0.576081 0.598341 0.348124
v 0.691614 0.333577 0.319241
v 0.576081 0.598341 0.319241
v 0.576081 0.333577 0.319241
v 0.691614 0.598341 0.319241
vt -2.499436 -0.843461
vt -2.436936 -0.715857
vt -2.499436 -0.715857
vt -2.436936 -0.843461
vt -2.436936 -3.261864
vt -2.499436 -3.246239
vt -2.499436 -3.261864
vt -2.62704 -3.118635
vt -2.499436 -3.10301
vt -2.62704 -3.10301
vt -2.436936 -3.118635
vt -2.436936 -3.10301
vt -2.309332 -3.10301
vt -2.436936 -3.246239
vt -2.499436 -3.118635
vt -2.309332 -3.118635
vn 0 0 1
vn 0 -1 0
vn 1 0 0
vn 0 1 0
vn -1 0 0
vn 0 0 -1
usemtl material_0_0
f 1/1/1 2/2/1 3/3/1
f 2/2/1 1/1/1 4/4/1
f 2/5/2 5/6/2 3/7/2
f 5/8/3 1/9/3 3/10/3
f 1/9/4 6/11/4 4/12/4
f 6/11/5 2/13/5 4/12/5
f 5/6/2 2/5/2 7/14/2
f 1/9/3 5/8/3 8/15/3
f 6/11/4 1/9/4 8/15/4
f 2/13/5 6/11/5 7/16/5
f 6/11/6 5/6/6 7/14/6
f 5/6/6 6/11/6 8/15/6
usemtl material_1_0
f 3//6 2//6 1//6
f 4//6 1//6 2//6
f 3//4 5//4 2//4
f 3//5 1//5 5//5
f 4//2 6//2 1//2
f 4//3 2//3 6//3
f 7//4 2//4 5//4
f 8//5 5//5 1//5
f 8//2 1//2 6//2
f 7//3 6//3 2//3
f 7//1 5//1 6//1
f 8//1 6//1 5//1
