# SSTK version 0.8.0
# 61
mtllib original-61.mtl
o RT_11_B1/RT_11_B/mesh40/mesh40-geometry#mesh40-geometry
v 0.576081 -0.427017 0.319241
v 0.123094 -0.542550 0.319241
v 0.123094 -0.427017 0.319241
v 0.576081 -0.542550 0.319241
v 0.123094 -0.427017 0.348124
v 0.576081 -0.542550 0.348124
v 0.576081 -0.427017 0.348124
v 0.123094 -0.542550 0.348124
vt -1.748677 -0.052004
vt -1.533833 -0.114504
vt -1.533833 -0.052004
vt -1.748677 -0.114504
vt -1.533833 -0.036379
vt 1.772642 -0.036379
vt 1.557798 -0.052004
vt 1.772642 -0.052004
vt -1.748677 -0.036379
vt 1.557798 -0.036379
vt -1.533833 0.463831
vt -1.748677 0.526331
vt -1.748677 0.463831
vt -1.533833 0.526331
vn 0 0 -1
vn 0 1 0
vn 0 -1 0
vn 0 0 1
usemtl material_0_0
f 1/1/1 2/2/1 3/3/1
f 2/2/1 1/1/1 4/4/1
f 5/5/2 1/1/2 3/3/2
f 6/6/3 2/7/3 4/8/3
f 1/1/2 5/5/2 7/9/2
f 2/7/3 6/6/3 8/10/3
f 5/11/4 6/12/4 7/13/4
f 6/12/4 5/11/4 8/14/4
usemtl material_1_0
f 3//4 2//4 1//4
f 4//4 1//4 2//4
f 3//3 1//3 5//3
f 4//2 2//2 6//2
f 7//3 5//3 1//3
f 8//2 6//2 2//2
f 7//1 6//1 5//1
f 8//1 5//1 6//1
